<?xml version="1.0" encoding="utf-8"?>
<!-- Generator: Adobe Illustrator 21.0.0, SVG Export Plug-In . SVG Version: 6.00 Build 0)  -->
<svg version="1.1" id="Layer_1" xmlns="http://www.w3.org/2000/svg" xmlns:xlink="http://www.w3.org/1999/xlink" x="0px" y="0px"
	 viewBox="0 0 1366 768" style="enable-background:new 0 0 1366 768;" xml:space="preserve">
<style type="text/css">
	.st0{fill:none;stroke:#696F8E;stroke-miterlimit:10;}
	.st1{fill:#F2A042;}
	.st2{fill:#BBDBC3;}
	.st3{fill:#F6A73D;}
	.st4{opacity:0.57;}
	.st5{fill:#F4D2C4;}
	.st6{fill:#696F8E;}
	.st7{fill:none;stroke:#F6A73D;stroke-width:1.3;stroke-miterlimit:10;}
	.st8{fill:none;stroke:#F6A73D;stroke-miterlimit:10;}
	.st9{fill:none;stroke:#F6A73D;stroke-width:2;stroke-miterlimit:10;}
</style>
<path class="st0" d="M512.4,229.9c0.4,4,1.5,6.9,2.5,8.9c0.8,1.7,1.9,3.3,1.4,5.1c-0.4,1.4-1.6,2.4-2.6,2.9"/>
<path class="st0" d="M524.4,254.9c-1.8,0.8-4.4,1.7-7.5,2c-4.7,0.6-8.5-0.2-10.9-0.8"/>
<g id="Layer_68">
	<path class="st1" d="M531.2,265.7c-2.1,2-6.6,5.7-13.5,7.5c-9.3,2.4-16.8-0.4-18.2-1c-7-2.8-11.1-7.5-12.7-9.8
		c-6.2,4-11.4,6.8-14.9,8.5c-12,5.9-16.6,6-21.1,11.8c-3.6,4.6-5.2,10.3-5.7,12.2c-0.9,3.8-0.9,6.8-0.9,8.8
		c-0.1,8.2-1.1,18.1-3.2,38.1c-0.2,2.1-0.6,5.6-1.1,10c1.6,1,4,2.3,6.9,3.3c2.2,0.7,6.7,2.2,12.7,1.7c4.7-0.4,8.4-1.9,10.9-3.1
		c0.4,9.5,0.8,18.9,1.2,28.4c0.8,17.9,1.5,35.8,2.3,53.7c-0.1,0.3-0.1,0.8,0.1,1.3c0.4,1,1.5,1.3,1.9,1.5c2.1,0.7,4.1,1.7,6.2,2.3
		c3.5,0.9,3,1,6.9,2.1c9.4,2.5,18.7,3.3,18.7,3.3c11.2,1.4,20.1,0,24-0.5c14.1-1.9,25.7-6.5,34.1-10.8c0.3-0.2,0.9-0.5,1.2-1.1
		c0.6-1,0.4-2.5-0.5-3.7c-0.1-3.6-0.2-9-0.3-15.5c-0.3-11.7-0.6-19.2-0.9-27.3c-0.3-7.7-0.6-18.7-0.9-32.4
		c4.6-0.5,10.2-1.4,16.4-3.4c4.6-1.4,8.5-3.1,11.8-4.8c-0.2-9.8-1.7-17.8-3.1-23.5c-1.6-6.4-3.5-11.2-5-15.1
		c-2-5.1-3.7-9.4-6.8-14.6c-1.7-2.8-3.6-6.1-7-10c-6.3-7.1-13-10.8-16.2-12.3c-3.6-1.7-6.7-2.8-8.9-3.4"/>
</g>
<g>
	<g>
		<path class="st2" d="M663.9,172.5c18-17.9,17.6-44.1,13.3-67.4c-5.8-31-13.4-61.8-20.1-92.6c-0.3-1.2-2.1-0.7-1.9,0.5
			c6,27.2,12,54.3,17.9,81.5c5.6,25.7,10.2,56.1-10.5,76.7C661.7,172,663,173.4,663.9,172.5L663.9,172.5z"/>
	</g>
</g>
<g>
	<g>
		<path class="st2" d="M655.9,13.2c-20.6,7-41.8,15-55.1,33.3c-11.9,16.3-16.1,37-12,56.7c0.3,1.2,2.1,0.7,1.9-0.5
			c-4-19.1,0.2-39.4,11.8-55.2c13-17.8,33.8-25.6,53.9-32.4C657.5,14.7,657.1,12.8,655.9,13.2L655.9,13.2z"/>
	</g>
</g>
<g>
	<g>
		<path class="st2" d="M638.3,153.3c5.5-9,6.9-20.6,7.8-30.9c1-12.1,0.2-24.2-2-36.2c-0.2-1.2-2.1-0.7-1.9,0.5
			c2,10.8,2.9,21.8,2.2,32.8c-0.7,10.8-1.9,23.4-7.7,32.8C636,153.4,637.7,154.3,638.3,153.3L638.3,153.3z"/>
	</g>
</g>
<g>
	<g>
		<path class="st2" d="M547.4,58.9c7.9,19.9,26.8,30.3,42.3,43.6c19.2,16.5,28.2,40.5,20.8,65.3c-0.4,1.2,1.5,1.7,1.9,0.5
			c5.7-19.2,2.2-40.3-10.4-56.1c-15.8-19.8-42.9-29.1-52.7-53.8C548.8,57.3,546.9,57.8,547.4,58.9L547.4,58.9z"/>
	</g>
</g>
<g>
	<g>
		<path class="st2" d="M545.3,55.1c-13.4,15.9-19.7,35.9-20.8,56.4c-1.1,18.7-0.5,44.1,13.4,58.3c0.9,0.9,2.2-0.5,1.4-1.4
			c-13.5-13.8-13.9-38.7-12.9-56.9c1.1-20,7.2-39.6,20.3-55.1C547.5,55.5,546.1,54.1,545.3,55.1L545.3,55.1z"/>
	</g>
</g>
<g>
	<g>
		<path class="st2" d="M577.4,152.7c-0.1-11.6-7.6-22.3-14.6-31c-0.8-1-2.1,0.4-1.4,1.4c6.6,8.3,13.9,18.7,14,29.7
			C575.5,153.9,577.4,153.9,577.4,152.7L577.4,152.7z"/>
	</g>
</g>
<g>
	<g>
		<path class="st2" d="M529.7,81.9c-21.9-15.2-32.3-40.4-41.6-64.4c-0.3-0.7-1.4-1-1.8-0.2c-11.9,25.2-17.3,52.5-15.6,80.3
			c0.1,1.2,2,1.2,1.9,0c-1.6-27.5,3.6-54.5,15.4-79.4c-0.6-0.1-1.2-0.2-1.8-0.2c9.6,24.5,20.1,50,42.5,65.5
			C529.7,84.3,530.7,82.6,529.7,81.9L529.7,81.9z"/>
	</g>
</g>
<g>
	<g>
		<path class="st2" d="M524.3,121.4c-11.8-8.6-26.9-7-39.6-13.4c-17.5-8.9-23.2-29.2-25.2-47.2c-0.1-0.9-1.3-1.4-1.8-0.5
			c-7.1,12.4-11,26-13.3,40c-2.3,13.9-4,28.7-0.3,42.5c5.8,21.7,26.5,36.8,48.7,37.2c1.2,0,1.2-1.9,0-1.9
			c-23.7-0.5-44.2-17.8-48-41.3c-2.2-13.5-0.1-27.8,2.4-41.1c2.3-12.1,6.1-23.6,12.2-34.3c-0.6-0.2-1.2-0.3-1.8-0.5
			c1.9,16.5,6.3,34.1,20,44.9c13.4,10.6,32.1,7.5,45.7,17.4C524.4,123.8,525.3,122.1,524.3,121.4L524.3,121.4z"/>
	</g>
</g>
<g>
	<g>
		<path class="st2" d="M512,102.3c-9.3-8.6-15.6-19.3-18.5-31.6c-0.3-1.2-2.1-0.7-1.9,0.5c3,12.6,9.5,23.7,19,32.5
			C511.5,104.5,512.9,103.2,512,102.3L512,102.3z"/>
	</g>
</g>
<g>
	<g>
		<path class="st2" d="M524,159.2c-10-23.9-49.9-13.4-55.1-39.9c-0.2-1.2-2.1-0.7-1.9,0.5c5.5,27.4,45.3,16.4,55.1,39.9
			C522.6,160.8,524.5,160.3,524,159.2L524,159.2z"/>
	</g>
</g>
<g>
	<g>
		<path class="st3" d="M719.3,106.2c-0.1,3.7,1,7.3,3.3,10.2c1.9,2.5,4.9,4.9,8.2,4.3c1.2-0.2,0.7-2.1-0.5-1.9c-3,0.5-5.9-3-7.2-5.2
			c-1.4-2.3-1.9-4.8-1.9-7.5C721.2,105,719.3,105,719.3,106.2L719.3,106.2z"/>
	</g>
</g>
<g>
	<g>
		<path class="st3" d="M718.6,105.9c-1.6,7.1-7.1,12.6-14.2,14.2c-1.2,0.3-0.7,2.1,0.5,1.9c7.7-1.8,13.7-7.8,15.5-15.6
			C720.8,105.2,718.9,104.7,718.6,105.9L718.6,105.9z"/>
	</g>
</g>
<g>
	<g>
		<path class="st3" d="M728.8,120.1c-5.5,3.5-9.3,8.6-11,14.9c-0.3,1.2,1.5,1.7,1.9,0.5c1.6-5.8,5.1-10.5,10.1-13.7
			C730.8,121.1,729.9,119.4,728.8,120.1L728.8,120.1z"/>
	</g>
</g>
<g>
	<g>
		<path class="st3" d="M704.4,122.8c6.9,0.5,12,6.1,11.9,13c0,1.2,1.9,1.3,1.9,0c0.1-8-5.8-14.3-13.8-14.9
			C703.2,120.8,703.2,122.7,704.4,122.8L704.4,122.8z"/>
	</g>
</g>
<g>
	<g>
		<path class="st3" d="M824.7,440.4c-1.4,5-0.7,10.5,2.1,14.9c1.4,2.2,5.5,7.7,8.4,4.8c0.9-0.9-0.5-2.2-1.4-1.4c-2,2-6.7-6.9-7.1-8
			c-1.1-3.3-1.1-6.6-0.2-9.9C826.9,439.7,825,439.2,824.7,440.4L824.7,440.4z"/>
	</g>
</g>
<g>
	<g>
		<path class="st3" d="M823.6,441c-3,6.9-9,11.7-16.3,13.1c-1.2,0.2-0.7,2.1,0.5,1.9c7.8-1.5,14.3-6.7,17.5-14
			C825.8,440.9,824.1,439.9,823.6,441L823.6,441z"/>
	</g>
</g>
<g>
	<g>
		<path class="st3" d="M833.1,459.4c-7,1.6-11.5,7.3-15.6,12.8c-0.7,1,0.9,2,1.7,1c3.8-5.1,8-10.5,14.5-12
			C834.8,461,834.3,459.2,833.1,459.4L833.1,459.4z"/>
	</g>
</g>
<g>
	<g>
		<path class="st3" d="M807.5,455.7c6.3,4.4,7.2,12.2,7.9,19.2c0.1,1.2,2,1.2,1.9,0c-0.7-7.9-1.9-16.1-8.8-20.9
			C807.5,453.3,806.5,455,807.5,455.7L807.5,455.7z"/>
	</g>
</g>
<g class="st4">
	<path class="st5" d="M778.3,629.4c-42.7-34.1-95.2-53-147.9-53.1c-37.3-0.1-74,8.9-110.5,17.8c-11,2.7-22.2,5.5-32.3,11
		c-35.8,19.8-48.5,77.6-24.9,113.3c20.5,31,59.2,40.5,93.7,36.8c34.5-3.7,67.4-18.1,101.4-25.4c22.8-4.9,46.1-6.6,68.4-13.5
		c22.3-6.9,44.3-19.8,56.6-41.6C792.3,658.2,794.9,636,778.3,629.4"/>
</g>
<g>
	<g>
		<path class="st6" d="M533.4,235.1c5,0,5-7.7,0-7.7C528.4,227.4,528.4,235.1,533.4,235.1L533.4,235.1z"/>
	</g>
</g>
<g>
	<g>
		<path class="st6" d="M496.3,234c5,0,5-7.7,0-7.7C491.3,226.3,491.3,234,496.3,234L496.3,234z"/>
	</g>
</g>
<g>
	<g>
		<path class="st6" d="M541.4,222.2c-4.9-3.8-11.2-4.7-17-2.4c-0.7,0.3-0.4,1.4,0.3,1.1c5.5-2.2,11.4-1.3,16.1,2.3
			C541.4,223.6,541.9,222.6,541.4,222.2L541.4,222.2z"/>
	</g>
</g>
<g>
	<g>
		<path class="st6" d="M502.9,219.6c-5.5-2.5-11.8-1.5-16.3,2.6c-0.6,0.5,0.3,1.3,0.8,0.8c4.1-3.7,9.8-4.7,14.9-2.4
			C503,220.9,503.6,219.9,502.9,219.6L502.9,219.6z"/>
	</g>
</g>
<g>
	<g>
		<path class="st6" d="M502.6,227.7c-4.2-4.2-10.7-3.4-13.8,1.7c-0.4,0.6,0.6,1.2,1,0.6c2.7-4.4,8.3-5,11.9-1.4
			C502.3,229,503.1,228.2,502.6,227.7L502.6,227.7z"/>
	</g>
</g>
<g>
	<g>
		<path class="st6" d="M539.6,228.5c-4.6-3-10.5-2.5-14.5,1.1c-0.6,0.5,0.3,1.3,0.8,0.8c3.7-3.3,9-3.7,13.1-0.9
			C539.6,230,540.2,228.9,539.6,228.5L539.6,228.5z"/>
	</g>
</g>
<g>
	<g>
		<path class="st6" d="M523.4,255.2c-2.4,8-13.1,8.8-16.4,0.9c-0.3-0.7-1.4-0.4-1.1,0.3c3.7,8.8,15.9,8.3,18.6-0.9
			C524.7,254.8,523.6,254.5,523.4,255.2L523.4,255.2z"/>
	</g>
</g>
<path class="st7" d="M602.4,388.1h215.5c9.1,0,16.5-7.4,16.5-16.5V188c0-9.1-7.4-16.5-16.5-16.5l-297.2-1"/>
<rect x="582" y="191" class="st7" width="212.3" height="18.3"/>
<circle class="st8" cx="815.3" cy="198.5" r="6.2"/>
<line class="st8" x1="812.6" y1="204.7" x2="809.1" y2="211.1"/>
<path class="st9" d="M660,292.7c3.5,3.6,6.9,7.1,10.4,10.7c9-8.6,18-17.3,26.9-25.9"/>
<circle class="st7" cx="677.5" cy="289.9" r="35"/>
<g id="Layer_47">
	<path class="st0" d="M549.2,227.4c-0.1,3.6-0.6,9.3-2.8,15.7c-1.6,4.7-6.1,17.1-18.7,25c-4.1,2.6-10.4,6.7-19.2,6.3
		c-7.1-0.4-12.1-3.6-14.2-5c-7.8-5.1-11-12.2-13.2-17c-2.7-5.8-3.8-11.1-4.3-15.3c-1.3-1.1-3-2.9-4.7-5.4c-1.9-2.9-3.4-5.2-3-8.2
		c0.4-3.5,3-5.6,3.2-5.7c1.1-0.9,2.3-1.3,3-1.5"/>
	<path class="st0" d="M549.4,223.8c1-0.3,3.9-1.1,5.8,0.3c2.7,1.9,3.1,7.7-0.7,13.2"/>
</g>
<g id="Layer_48">
	<path class="st0" d="M554.5,237.3c-2.7,1.9-5.4,3.9-8,5.8"/>
	<path class="st0" d="M524.5,202.1c8.2,11.7,13,13.6,16,13.1c1.1-0.2,3.2-0.9,4.6,0.1c1.2,0.9,1.2,2.3,2.1,6c0.7,3.2,1.4,6,2,6
		c0.6,0,1.4-2.5,2.5-14"/>
</g>
<g id="Layer_49">
	<path class="st0" d="M524.5,202.1c-0.7,2.3-1,5.3,0.2,8c1.2,2.6,3.1,3.3,2.8,4c-0.6,1.6-11.3,1.3-18.2-5c-4.9-4.4-5.1-9.3-7.8-9.2
		c-3,0-2.6,6.3-9,11.7c-5.5,4.6-12,5.4-13.5,5.5c-2.2,0.2-4.1,0.1-5.4-0.1"/>
	<path class="st0" d="M554,223.5c1.5-3,4.7-10.8,2.7-20.4c-1.7-8-6.1-13.2-8.7-16c-3.7-4.1-7.1-6.2-13.8-10.2
		c-10-6-15.2-6.4-20.2-6.4c-4.9,0-4.9-0.7-21,6.4c-10.7,4.7-11.6,4.4-15,7c-2.5,1.9-9.2,7.3-11.5,17c-2.3,9.4,1,17.1,2.1,19.6"/>
</g>
<g id="Layer_50">
	<path class="st0" d="M531.2,265.7c5.9,0.2,15.9,1.3,26.2,7.1c17.6,9.8,24,27.4,28.5,39.2c2.8,7.3,6.3,19.2,6.7,34.8
		c-3.6,1.8-8.2,3.7-13.5,5.3c-5.6,1.6-10.6,2.4-14.8,2.8c-0.3-5.7-0.5-11.4-0.8-17.1"/>
	<path class="st0" d="M486.7,262.4c-4,2.5-10.6,6.4-19.1,10.7c-9.9,5-13.4,5.9-16.9,9.6c-5.9,6.3-6.1,14.3-6.8,24.6
		c-0.6,10.4-1.8,25.4-4.1,44.5c3.8,2.4,7.3,3.5,9.6,4c2.3,0.6,10.2,2.4,18.9-0.9c2.3-0.9,4-1.9,5.1-2.5"/>
</g>
<g id="Layer_51">
	<path class="st0" d="M588,348.7c0.2,6.1,0.5,12.3,0.7,18.4"/>
	<path class="st0" d="M564.6,352c0.3,24.1,1,48.5,2.1,73.3c0.1,3.1,0.3,6.3,0.4,9.4c-8.3,4.2-19.5,8.6-33.1,10.7
		c-26.7,4.2-48.4-2.8-60-7.6c-1.2-28-2.4-56.1-3.6-84.1"/>
	<g>
		<g>
			<path class="st6" d="M604.6,338.6c0.8-3.7,0.3-7.2,0.1-11c-0.2-4.6,1.2-8.1,2.9-12.2c0.3-0.7-0.8-1-1.1-0.3
				c-1.3,3.1-2.7,6.1-3,9.4c-0.4,4.7,1,9.1,0,13.8C603.3,339,604.4,339.3,604.6,338.6L604.6,338.6z"/>
		</g>
	</g>
	<g>
		<g>
			<path class="st6" d="M607.6,315.7c0.4-2.5,0.8-5,1.2-7.5c0.2-1.5,0.1-4.5,1-5.8c0.3-1.4,1.5-1.5,3.6-0.4c0.1,0.5,0.1,1,0.2,1.6
				c0.1,1.2,0.1,2.3,0.1,3.5c0,2.7-0.3,5.4-0.7,8c-0.1,0.7,1,1,1.1,0.3c0.6-3.9,1-7.9,0.6-11.8c-0.1-1.5-0.5-4.6-2.5-4.9
				c-1.9-0.3-3.1,2.1-3.6,3.5c-1.3,4.2-1.5,9-2.2,13.3C606.4,316.2,607.5,316.5,607.6,315.7L607.6,315.7z"/>
		</g>
	</g>
	<g>
		<g>
			<path class="st6" d="M614.2,312.7c2.3,1.3,5.1,1.3,7.7,2c1.7,0.4,3.7,0.9,4.6,2.5c1.5,2.7-1.1,4.8-3.7,4.7c-0.7,0-0.7,1.1,0,1.2
				c3.2,0.2,6.5-2.7,5-6.1c-2-4.5-9.4-3.2-12.9-5.2C614.1,311.3,613.6,312.4,614.2,312.7L614.2,312.7z"/>
		</g>
	</g>
	<g>
		<g>
			<path class="st6" d="M626.7,321.4c2.6,5.5-8.3,9-11.6,6.2c-0.6-0.5-1.4,0.3-0.8,0.8c4.5,3.7,16.7-0.8,13.5-7.6
				C627.4,320.1,626.4,320.7,626.7,321.4L626.7,321.4z"/>
		</g>
	</g>
	<g>
		<g>
			<path class="st6" d="M623,322.1c-2.2-0.4-4.3-0.5-6.5-0.4c-0.4,0-0.7,0.1-1.1,0c-0.8,0.2-1.3-0.2-1.5-1c-0.7-0.4-0.8-0.9-0.4-1.4
				c0.5-1.5,2.7-1.6,4-1.8c0.7-0.1,0.7-1.2,0-1.2c-2.3,0.2-6.7,1.5-5.3,4.9c0.5,1.1,1.5,1.5,2.6,1.6c2.7,0.2,5.2-0.2,7.9,0.3
				C623.4,323.3,623.7,322.2,623,322.1L623,322.1z"/>
		</g>
	</g>
	<g>
		<g>
			<path class="st6" d="M615.8,322.1c-1.9,0-3.7,1.4-3.8,3.4c0,2,1.7,3.5,3.6,3.6c0.7,0,0.7-1.1,0-1.2c-1.3,0-2.5-1.1-2.4-2.4
				c0-1.3,1.3-2.3,2.6-2.3C616.6,323.3,616.6,322.1,615.8,322.1L615.8,322.1z"/>
		</g>
	</g>
	<g>
		<g>
			<path class="st6" d="M625.8,327.1c1.1,2.9-2.6,4.5-4.6,5.1c-1,0.3-2,0.5-3,0.5c-0.3,0-0.6,0-0.9,0c-2,0.2-2.9-0.9-2.9-3.4
				c0.6-0.4,0-1.4-0.6-1c-1.2,0.8-1.9,2.1-1.2,3.5c0.9,1.9,3.7,2.1,5.5,2.1c3.4-0.1,10.5-2.4,8.8-7.1
				C626.6,326.1,625.5,326.4,625.8,327.1L625.8,327.1z"/>
		</g>
	</g>
	<g>
		<g>
			<path class="st6" d="M464.2,453c0.1,2.8,0.6,5.5,1.6,8.1c0.3,0.7,1.4,0.4,1.1-0.3c-1-2.5-1.5-5.1-1.6-7.8
				C465.4,452.3,464.2,452.3,464.2,453L464.2,453z"/>
		</g>
	</g>
	<g>
		<g>
			<path class="st6" d="M451.9,454.3c1.7,9.4-3.5,18.2-1.1,27.6c0.2,0.7,1.3,0.4,1.1-0.3c-2.4-9.3,2.9-18.2,1.1-27.6
				C452.8,453.3,451.7,453.6,451.9,454.3L451.9,454.3z"/>
		</g>
	</g>
	<g>
		<g>
			<path class="st6" d="M453.3,470.8c-0.8,5.8-3.3,13.1-0.7,18.7c0.3,0.7,1.3,0.1,1-0.6c-2.4-5.2,0-12.4,0.8-17.8
				C454.6,470.4,453.4,470.1,453.3,470.8L453.3,470.8z"/>
		</g>
	</g>
	<g>
		<g>
			<path class="st6" d="M456.2,471c-0.7,5-1.7,10-2.2,15.1c-0.3,2.7-0.2,5.1,1.4,7.4c0.4,0.6,1.4,0,1-0.6c-2.3-3.3-1.1-7.5-0.6-11.2
				c0.5-3.5,1-6.9,1.5-10.4C457.4,470.6,456.3,470.3,456.2,471L456.2,471z"/>
		</g>
	</g>
	<g>
		<g>
			<path class="st6" d="M459.5,472.4c-0.8,3.7-7.1,26.4,1.9,24.4c0.7-0.2,0.4-1.3-0.3-1.1c-4.9,1.1-2.6-10.6-2.4-12.2
				c0.5-3.6,1.1-7.2,1.9-10.8C460.7,472,459.6,471.7,459.5,472.4L459.5,472.4z"/>
		</g>
	</g>
	<g>
		<g>
			<path class="st6" d="M463.2,478.1c-1,6.2-1.7,12.4-2.1,18.7c0,0.7,1.1,0.7,1.2,0c0.4-6.2,1.1-12.3,2.1-18.3
				C464.4,477.7,463.3,477.3,463.2,478.1L463.2,478.1z"/>
		</g>
	</g>
</g>
<g id="Layer_52">
	<path class="st0" d="M442.7,353.4c2.1,18.5,2.4,33.4,2.3,43.7c-0.2,15.6-1.4,29.7,4.1,48.3c1.3,4.4,2.6,7.9,3.6,10.2"/>
	<path class="st0" d="M470.8,332.5c0.8,6.9,1.7,13.9,2.5,20.9"/>
	<path class="st0" d="M466.3,355.6c-0.2,8.7-0.4,25.6-0.6,34.6c-0.2,12.8-0.3,15.8-0.4,20.8c-0.2,10-0.5,24.2-1,41.7"/>
	<path class="st0" d="M565.4,393.3c0,0.8,0.6,10.5,8,14.7c7.4,4.2,18.7,1.3,24.8-8.2c6.7-18.4,16.1-47.8,22.7-66.3"/>
	<path class="st0" d="M604.8,337.8c-6.7,12.5-13.4,24.9-20,37.4"/>
</g>
<g id="Layer_53">
	<path class="st0" d="M567,434.6c8.4,40.7,15.9,85.5,21.2,134.2c5.2,47.5,7.7,92,8.4,132.7c-3.9,1.7-8.4,3.4-13.6,4.8
		c-5.8,1.6-11.2,2.6-15.8,3.1c-11-28.7-20.5-64.5-22-105.9c-0.3-7.9-0.3-15.5,0-22.9c-8.9-26.4-13.6-35-22.5-61.4"/>
</g>
<g id="Layer_54">
	<path class="st0" d="M522.7,519.2c-14.8,34.4-19,61.2-20.1,79.5c-0.4,6.2-0.7,16.4-0.8,20.3c-0.9,32.2,0.1,41.6-1.4,61.4
		c-0.5,6.7-1.5,16.8-3.6,29.2c-2.6,1.7-8.9,5.2-17.5,5.2c-6.1,0-10.8-1.7-13.5-3c-2.9-16.9-6.2-43.1-5.5-75.4
		c0.5-19.9,2-20.8,2.9-43.6c1.8-45.8-3.8-58.2-1.9-90.6c0.9-15.5,3.8-37.8,12.4-64.5"/>
</g>
<g id="Layer_55">
	<path class="st0" d="M497,709c1.3,0.9,3.5,2.3,6.4,3.5c7.7,3.1,10.3,0.9,16.4,3.5c1.2,0.5,9.1,4.1,11.4,12.1
		c0.8,2.8,0.7,5.3,0.4,6.9c-10.5,2.3-19.4,3.5-26.3,4.1c-21.6,2-33.1-0.4-36.4-1.1c-2.8-0.6-5.1-1.3-6.7-1.7
		c-0.9-2.4-2-6.4-1.7-11.4c0.3-6.5,2.8-11.2,4.2-13.5"/>
	<path class="st0" d="M596.6,701.5c0.9,2.6,2.5,6.1,6,8.5c3.5,2.4,5.7,1.3,12.5,2.8c2.6,0.5,12.6,2.7,17.8,9c0.9,1.1,3,3.6,3.7,7.5
		c0.2,1.2,0.2,2.2,0.2,2.9c-13.3,3-29.6,5.3-48.2,5.2c-8.4-0.1-16.2-0.6-23.4-1.5c-1.1-2.3-3.2-7.7-2.4-14.7c0.7-5.6,3-9.7,4.3-11.8
		"/>
</g>
</svg>
