<?xml version="1.0" encoding="utf-8"?>
<!-- Generator: Adobe Illustrator 21.0.0, SVG Export Plug-In . SVG Version: 6.00 Build 0)  -->
<svg version="1.1" id="Layer_1" xmlns="http://www.w3.org/2000/svg" xmlns:xlink="http://www.w3.org/1999/xlink" x="0px" y="0px"
	 viewBox="0 0 1366 768" style="enable-background:new 0 0 1366 768;" xml:space="preserve">
<style type="text/css">
	.st0{fill:none;stroke:#696F8E;stroke-miterlimit:10;}
	.st1{fill:#BBDBC3;stroke:#BBDBC3;stroke-miterlimit:10;}
	.st2{fill:#BBDBC3;}
	.st3{opacity:0.57;}
	.st4{fill:#F4D2C4;}
	.st5{fill:#696F8E;}
	.st6{fill:none;stroke:#696F8E;stroke-width:1.3;stroke-miterlimit:10;}
	.st7{fill:none;stroke:#F2A042;stroke-miterlimit:10;}
	.st8{fill:#F2A042;}
</style>
<path class="st0" d="M633.4,261.9c-6.3,1.1-13.9,1.9-22.5,1.7c-5.1-0.1-9.7-0.6-13.9-1.2c1.1,1,2.9,2.6,5.2,4.6
	c5.4,5,6.6,6.5,9.4,7.5c0.2,0.1,3.6,1.4,7.5,0.8C628.7,274,633.2,262.4,633.4,261.9z"/>
<path class="st0" d="M595.3,233.5c-0.4,1.5-1,5.5,1.1,9.2c2.9,5.1,10,7.7,17.3,5.7"/>
<path class="st1" d="M596,295.8c-6.3,10.2-8.6,18.2-10.2,24.7c-5.8,23.3-0.5,42.3,1.5,49.1c1.6,5.4,4.3,14.5,11.3,24.5
	c8.8,12.6,15.3,16.3,15.3,16.3c1.7,1.3,4.4,3.2,6.7,6.7c2.6,4.1,3.1,8.1,3.4,10.4c2.7,23.2,3.8,34.8,2.4,34.9
	c-0.6,0.1-0.1-7.9-3.9-9.3c-2.1-0.8-3.9,1-9.1,2.7c-2.9,0.9-5.1,1.5-8,1.5c-1.5,0-5.4-0.1-9.1-2.4c-2-1.2-2.7-2.3-4.4-4.1
	c-4-4.3-7.4-6.2-9.7-8c-3.9-3-14.3-12.3-40.4-38.1c2-7.3,3.9-14.6,5.9-21.9c-2.5-0.8-5.1-1.6-7.7-2.4c-1.8,7-3.6,14-5.3,21
	c-4.3,0-10.4-0.4-17.1-2.9c-14.3-5.3-21.9-16.1-24.5-20.4c-0.1-5.3,0.1-12.5,1.5-21c3-19.5,9.9-33.1,11.8-36.6
	c2-3.7,6.7-12.2,14.8-21.5c4.7-5.4,11.8-12.7,21.9-19.5c4.8-3.3,9.1-5.7,12.4-7.5c4.2,5.9,8.6,9.4,11.6,11.4
	c0.3,0.2,0.2,0.1,13.1,6.3c4.2,2,7.5,3.6,12.4,4.3C594.3,294.5,595,295.8,596,295.8z"/>
<path class="st1" d="M692.3,273.3c6.1,3.7,14.1,9.1,22.7,16.6c6.9,6,22.5,20.5,35.9,43.7c11.7,20.1,17.2,38.8,20,52
	c-7.6,3.7-14,6-18.3,7.5c-19.5,6.5-31,5.7-43.9,15.4c-0.5,0.4-0.9,0.6-1.2,0.9c-3.1,2.6-5.2,4.8-5.5,5.1c-1.7,1.8-9.1,8-31.3,25.6
	c-0.7-2-1.5-5.2-1.1-9c0.5-4.4,2.4-8,5.5-11.9c6.4-8.2,10-8.2,17.4-15.5c7.5-7.5,11.6-15.1,14.1-19.7c3.4-6.4,5.2-11.6,6.7-16.2
	c2.5-7.5,4.6-13.6,5.2-22c0.5-6.7-0.2-11.7-1-18c-1-7.2-1.8-13.3-4.8-21c-0.8-2.1-4.3-10.5-11.8-19.7c-3.4-4.2-6.7-7.4-9.4-9.7"/>
<g>
	<g>
		<path class="st2" d="M504.8,321.3c-9.3-26.7-23.5-50.7-42.5-71.6c-1.9-2.2-5.1,1-3.2,3.2c18.5,20.4,32.3,43.6,41.3,69.6
			C501.4,325.2,505.7,324,504.8,321.3L504.8,321.3z"/>
	</g>
</g>
<g>
	<g>
		<path class="st2" d="M457.4,253.3c-6,38.5,4.3,75.9,29.2,105.8c1.9,2.2,5-1,3.2-3.2c-23.8-28.6-33.8-64.7-28.1-101.4
			C462.1,251.7,457.8,250.4,457.4,253.3L457.4,253.3z"/>
	</g>
</g>
<g>
	<g>
		<path class="st2" d="M472.6,300.1c4.9,13.7,10.4,27.1,16.8,40.2c1.3,2.6,5.1,0.3,3.9-2.3c-6.1-12.8-11.6-25.8-16.3-39.1
			C476,296.1,471.7,297.3,472.6,300.1L472.6,300.1z"/>
	</g>
</g>
<g>
	<g>
		<path class="st2" d="M490.9,271.6c-1.2,7.5-1.7,14.9-1.2,22.5c0.2,2.9,4.7,2.9,4.5,0c-0.4-7.1-0.1-14.2,1-21.3
			C495.7,270,491.4,268.8,490.9,271.6L490.9,271.6z"/>
	</g>
</g>
<g>
	<g>
		<path class="st2" d="M491.7,272c8.9,9.9,14,21.9,14.7,35.1c0.2,2.9,4.7,2.9,4.5,0c-0.9-14.5-6.3-27.6-16-38.3
			C493,266.7,489.8,269.8,491.7,272L491.7,272z"/>
	</g>
</g>
<g class="st3">
	<g>
		<path class="st4" d="M498.8,537.7c11.6,0,11.6-17.9,0-17.9C487.3,519.8,487.3,537.7,498.8,537.7L498.8,537.7z"/>
	</g>
</g>
<g class="st3">
	<path class="st4" d="M853.1,411.1c12.2,26.9,24.6,54.3,29.3,83.4c4.7,29.2,0.8,61-17.1,84.6c-8.1,10.7-18.7,19.3-29.4,27.3
		c-24,18.1-49.3,34.6-75.6,49.1c-19.1,10.6-40.2,20.5-61.9,18.1c-38.5-4.2-62.8-44.9-68.8-83.2c-3.9-24.5-1.1-53.3,18.7-68.2
		c16.7-12.6,39.7-11,59.9-16.4c33.3-8.9,58-36.3,79.4-63.4c8.5-10.8,17.2-21.9,29-29c11.8-7,27.7-9,38.9-1.1"/>
	<g>
		<path class="st4" d="M845.4,415.6c14.5,31.9,29.9,65.4,29.9,101.2c0,35.9-16.1,60.8-43.9,82c-26.8,20.5-55.9,39.8-86.2,54.8
			c-29.9,14.7-61.2,16.6-84-11.2c-17-20.7-25.9-50.3-23.9-77c1.4-18.9,9.5-35.2,28.3-41.8c14.5-5.2,30.3-4.8,45-8.8
			c24.4-6.6,44.8-22.4,61.9-40.5c18.2-19.2,46.1-72.3,78.5-53.9c10,5.7,19.1-9.8,9-15.5c-23.5-13.4-48.2-2.6-65.5,15.6
			c-21.9,23.1-38.1,50.6-66.3,67.3c-26.2,15.6-59.7,9.1-84.5,26.9c-19.9,14.3-25.7,40.2-24.4,63.4c2.4,44.5,29.3,100.1,79.1,104.7
			c31.2,2.9,60.4-15.2,86-30.6c27.5-16.5,57.3-34.7,79.8-57.9c51.6-53.5,23.1-129.6-3.3-187.6C856.1,396.1,840.7,405.2,845.4,415.6
			L845.4,415.6z"/>
	</g>
</g>
<g>
	<g>
		<path class="st5" d="M672.7,219.9c-10.2-9-23.5-7.7-35.6-3.3c-1.6,0.6-0.9,3.2,0.7,2.6c11-4,23.5-5.8,33,2.6
			C672.1,222.9,674,221,672.7,219.9L672.7,219.9z"/>
	</g>
</g>
<g>
	<g>
		<path class="st5" d="M581.7,217.4c0,0.1-0.1,0.1-0.1,0.3c-0.3,0.5-0.3,1.3,0.2,1.6c0.1,0.1,0.3,0.2,0.4,0.3
			c0.4,0.3,0.8,0.5,1.3,0.4c0.1,0,0.3-0.1,0.4-0.1c0.7-0.3,1.1-0.9,0.9-1.7c-0.8-3.7-7.8-4.5-10.8-4.8c-5.9-0.6-11.6,0.9-16.6,4.1
			c-1.5,0.9-0.1,3.2,1.4,2.3c3.5-2.2,7.3-3.6,11.4-3.8c2.1-0.1,11.4,0.1,12,2.9c0.3-0.5,0.6-1.1,0.9-1.7c0.3,0.5,0.6,1.1,1,1.6
			C584.9,217.3,582.6,216,581.7,217.4L581.7,217.4z"/>
	</g>
</g>
<path class="st0" d="M707.3,184.6c0.4,3.5,0.9,7,1.3,10.4c1.3-0.5,10.4-3.8,17.9,1.2c8.7,5.8,8.8,18.4,6.6,25.8
	c-2.2,7.3-7.2,11.5-9,12.9c-6.7,5.4-13.9,6-16.5,6.1c-1.6,5.7-4.1,12.6-7.9,20c-3,5.8-6.1,10.6-9.1,14.6"/>
<path class="st0" d="M632.6,81c3.2,2.9,8.6,8.6,12.2,17.5c2.6,6.4,3.4,12.2,3.6,16.1"/>
<path class="st0" d="M672.2,94.9c-2.3,0.3-8.6,1.5-14.1,6.4c-5,4.4-6.6,9.4-7.1,11.4"/>
<path class="st0" d="M707.3,184.6c-0.8-7.2-3.4-23.1-14.6-38.9c-2.8-3.9-13.6-18.4-33.6-27.1c-22.6-9.8-42.7-6.1-49.7-4.7
	c-9.8,1.9-38.4,9.4-56.4,37.1c-9.4,14.5-12.2,28.8-13.2,37c-2.2-0.2-6.1-0.3-10.5,1.6c-1.5,0.6-9.9,4.2-12.1,13.5
	c-2.2,8.9,3,15.8,3.4,16.3c5.9,7.6,15.1,7,15.9,7c1.5,5.6,3.9,13.3,7.9,22.1c5,10.9,9.9,21.9,20.4,31.6c4.8,4.4,18.4,11.9,33.5,16"
	/>
<path class="st0" d="M700.5,165.1c-0.5,2.9-1.9,8.8-6.7,13.5c-7,6.9-16.3,6.6-21.4,6.5c-16.1-0.5-27.2-11-30.7-14.7
	c-8.4-11.6-22-15.1-30.9-10c-7.2,4.1-9.3,12.6-9.7,14.7c-8.3,8.2-20.1,9.9-28.6,4.7c-6.2-3.8-4.3-13.6-10.3-16.4
	c-5.2-2.5-12.4,1.6-18.1,6"/>
<path id="shirt" class="st6" d="M553,270.2c-8.9,4.6-31.1,17.7-46.8,45.7c-15.1,27.1-15.6,52.9-15.3,63.4c2.8,4.4,8.5,12,18.1,17.8
	c12.4,7.6,24.3,7.9,29.5,7.8c1.9-7.9,3.9-15.7,5.8-23.5"/>
<path id="bulb" class="st7" d="M668.7,267.5c5.7,0.8,14.8,3.2,23.9,10.4c16.6,13.2,26.1,37.1,25.9,60.9
	c-0.2,26.9-12.9,52.7-28.6,65.9c-11.7,9.9-18.4,13.5-21,29.7c-4.1,26.3,0.7-5.3-0.1,2.2"/>
<path id="bub" class="st7" d="M670.3,267.8c-5.9-2.1-30-1.8-41.7,3.4c-21.3,9.4-36.9,30.9-41.7,54.4c-5.5,26.7,3.2,54.8,17.8,71.3
	c10.9,12.3,19.4,13.2,20.6,29.4c1.1,14.5,3.2,26.9,1.2,35.7"/>
<g>
	<g>
		<path class="st8" d="M660.7,446.4c-0.8-10-0.9-21.4,1.3-31.2c2.8-12.5,12.6-20,16.6-31.6c4.6-12.8-1.5-25.3-12.3-32.4
			c-2.4-1.6-4.7,2.3-2.3,3.9c26.5,17.4-0.9,37-5.7,56.2c-2.8,11.2-3,23.6-2.1,35.1C656.5,449.3,661,449.3,660.7,446.4L660.7,446.4z"
			/>
	</g>
</g>
<g>
	<g>
		<path class="st8" d="M666.4,351.3c-11.5-5.7-23,4.1-28,14.2c-4.6,9.5-1.7,24.6,11.4,23.6c2.9-0.2,2.9-4.7,0-4.5
			c-12.1,1-9.8-14-5.4-20.4c4.2-6.2,11.9-13,19.8-9.1C666.7,356.4,669,352.6,666.4,351.3L666.4,351.3z"/>
	</g>
</g>
<g>
	<g>
		<path class="st8" d="M649.3,389c14.9,2,15.7-17.3,11.4-27.1c-6.2-14-23-16.8-34.2-7.1c-2.2,1.9,1,5.1,3.2,3.2
			c8-6.9,19.9-5.9,25.7,3.4c2,3.3,2.9,7.1,3.2,10.9c0.4,5-1.5,13.2-8.1,12.3C647.7,384.3,646.4,388.6,649.3,389L649.3,389z"/>
	</g>
</g>
<g>
	<g>
		<path class="st8" d="M626.8,353.9c-10,9.2-10.4,21.5-5.8,33.8c4.6,12.2,13.7,22,18.1,34.4c3.5,9.9,3.3,19.6,2.9,29.9
			c-0.1,2.9,4.3,2.9,4.5,0c0.6-13.1,0.3-24-5-36.2c-7.5-17.4-30.9-41-11.5-58.8C632.1,355.1,628.9,352,626.8,353.9L626.8,353.9z"/>
	</g>
</g>
<path class="st0" d="M692.3,273.3c11.3,6.9,25.4,17.3,39,32.7c26.2,29.9,35.8,62.1,39.6,79.5c-22.2,9.1-44.5,18.2-66.8,27.2
	c-1.6-3.5-3.2-7-4.9-10.5"/>
<path class="st0" d="M493.7,383.2c-0.6,9.6,0.8,21.8,7.8,35.3c20,38,71,58.5,89.6,65.2"/>
<path class="st0" d="M538.5,404.9c19.1,17.5,38.2,35,57.3,52.5"/>
<path class="st0" d="M764,387c0.1,9.1-1.2,20.6-6.4,32.7c-17.9,41.4-66.1,50.2-71.7,51.2"/>
<path class="st0" d="M704.1,412.7c-10.7,8.6-21.5,17.3-32.2,25.9"/>
<path class="st0" d="M747.3,436.7c5.5,2,17.9,7.7,26.2,21c10.4,17,8.5,36.6,3.7,49.9c-14.4,39.8-73.2,38.8-150,23"/>
<path class="st0" d="M495.4,409.2c-6.4,2.8-15.8,7.9-23.6,17.5c-18.6,22.9-21.7,62.7-1.7,83.2c7.8,7.9,23.5,12.5,24.3,12.7
	c1.7,0.5,7.5,2.4,15.9,3.5c21.9,2.8,32.4,0.4,42.7-1.8"/>
<path class="st0" d="M657.7,482c-9.3,0.6-20.4,2.9-31.6,8.9c-1.6,0.9-3.2,1.8-4.6,2.7c-0.2,5.8,0,13.3,1.7,21.8
	c1.3,6.5,3.1,12,4.9,16.5"/>
<path class="st0" d="M627.8,530.2c-6.8,4.1-18.5,9.7-33.8,10.3c-9.5,0.4-26.3,1-37-10.7c-1.4-1.5-10.6-10.9-8.3-22.4
	c1.6-7.8,7.7-12.5,10.2-14.4c20.6-15.8,57.8-0.9,61.5,0.6"/>
<g>
	<g>
		<path class="st5" d="M595.6,459.6c4.6,1.5,9.1,1.9,13.9,1.1c1.9-0.3,3.8-0.7,5.6-1.3c1.3-0.4,2.7-1.5,3.7-0.6
			c1.5,1.3-2,4.3-2.7,4.8c-2.3,1.7-0.1,5.6,2.3,3.9c3.6-2.5,8.8-10.4,2.8-13.5c-2.7-1.4-5.5,0.6-8.1,1.4c-5.5,1.6-10.9,1.6-16.3-0.1
			C594,454.3,592.9,458.7,595.6,459.6L595.6,459.6z"/>
	</g>
</g>
<g>
	<g>
		<path class="st5" d="M619.2,468.4c4.1-1,7.3-3.3,10.7-5.7c1.7-1.2,3.3-2.4,5-3.7c1.7-1.3,4-4.3,6.1-4.9c-0.9-0.4-1.7-0.7-2.5-1
			c1.6,2.4-1.3,6.5-2.8,8.1c-1.5,1.7-3.4,3-5.2,4.3c-2.3,1.7-0.1,5.6,2.3,3.9c4.8-3.5,14.3-11.5,9.6-18.5c-0.6-0.8-1.5-1.3-2.5-1
			c-3.5,0.9-6.8,5.1-9.6,7.1c-3.7,2.8-7.6,6-12.2,7.1C615.3,464.8,616.4,469.1,619.2,468.4L619.2,468.4z"/>
	</g>
</g>
<g>
	<g>
		<path class="st5" d="M642.6,460.7c1.9-1.1,4.7-2.4,7-1.7c-0.5-0.5-1-1-1.6-1.6c0.8,3.6-2.7,8.8-4.8,11.3c-2.4,2.8-5.5,5-8.7,6.8
			c-2.5,1.4-0.3,5.3,2.3,3.9c6.9-3.9,13-9.6,15.1-17.5c0.6-2.3,1.6-5.7-0.8-7.1c-2.9-1.8-8.1,0.5-10.7,2
			C637.8,458.2,640,462.1,642.6,460.7L642.6,460.7z"/>
	</g>
</g>
<g>
	<g>
		<path class="st5" d="M649.2,464.1c4.7,5.5-3.1,13.9-7,17.4c-2.1,2,1,5.1,3.2,3.2c6.1-5.6,13.7-15.9,7-23.8
			C650.5,458.7,647.4,461.9,649.2,464.1L649.2,464.1z"/>
	</g>
</g>
<g>
	<g>
		<path class="st5" d="M688.4,468.6c-4.5,0.7-7.6,2-11.6,4.3c-6.5,3.8-12.8,6.4-20.2,7.3c-2.3,0.3-2.3,3.8,0,3.6
			c5.7-0.6,11.2-2,16.4-4.6c5.6-2.7,10-6.2,16.3-7.1C691.7,471.7,690.7,468.2,688.4,468.6L688.4,468.6z"/>
	</g>
</g>
<g>
	<g>
		<path class="st5" d="M673.6,435c-2.3,1.9-4.3,4.1-6.6,6.1c-3.7,3.3-7.3,4.2-12.2,4.8c-4.6,0.6-8.6,1.4-11.9,4.8
			c-1.6,1.7,0.9,4.2,2.5,2.5c4.8-5,12-3,17.9-5.5c5.1-2.2,8.6-6.8,12.7-10.3C677.9,436.1,675.4,433.5,673.6,435L673.6,435z"/>
	</g>
</g>
</svg>
