<?xml version="1.0" encoding="utf-8"?>
<!-- Generator: Adobe Illustrator 21.0.0, SVG Export Plug-In . SVG Version: 6.00 Build 0)  -->
<svg version="1.1" id="Layer_1" xmlns="http://www.w3.org/2000/svg" xmlns:xlink="http://www.w3.org/1999/xlink" x="0px" y="0px"
	 viewBox="0 0 1366 768" style="enable-background:new 0 0 1366 768;" xml:space="preserve">
<style type="text/css">
	.st0{fill:none;stroke:#696F8E;stroke-miterlimit:10;}
	.st1{fill:#F2A042;}
	.st2{fill:#BBDBC3;}
	.st3{opacity:0.57;}
	.st4{fill:#F4D2C4;}
	.st5{fill:#696F8E;}
	.st6{fill:none;stroke:#F6A73D;stroke-width:1.3;stroke-miterlimit:10;}
	.st7{fill:#F6A73D;}
</style>
<path class="st0" d="M607.2,397.3c3,0.7,7.7,1.5,13.3,0.6c9.4-1.4,15.6-6.5,18.1-8.8"/>
<path class="st0" d="M617.2,366.4c-0.3,1.6-1,4.1-2.2,6.9c-2.1,4.8-4,6.8-3.3,8.8c0.4,1.1,1.6,2.5,5.5,3.3"/>
<g id="Layer_64">
	<path class="st1" d="M657.8,407c3.1,1.6,7.3,4.1,12,7.5c3,2.2,16.6,12.6,27.5,31.7c3.8,6.7,8.6,16.9,11.5,30.2
		c-11.2,5-22.4,10.1-33.7,15.1c-0.4-16.9-0.8-33.8-1.2-50.7c-32.9-0.1-65.9-0.2-98.8-0.3c-0.2,24.3-0.3,48.5-0.5,72.8
		c-2.5,0.7-4.9,1.4-7.4,2.1c1-9.3,2-18.5,3-27.8c-12.1-0.8-24.3-1.5-36.4-2.3c0.1-5.5,0.6-12,1.6-19.3c0.9-6.4,1.8-12.4,4.4-20
		c1.6-4.7,3.8-10.8,8.5-17.6c5.1-7.4,10.5-11.8,12.5-13.3c7-5.5,13.9-8.3,18.7-9.8c1.9,2,4.8,4.7,8.6,7.2c8,5.3,15.5,6.9,19.6,7.7
		c3.9,0.8,16.3,2.8,30-1.6c6.1-2,10.5-4.6,11.7-5.3C653,411.1,655.7,408.9,657.8,407z"/>
	<path class="st1" d="M675.4,539.1c0.5,0.1,5.4,1.2,5.4,1.2l0,0l0,0l0,0c0,0,1.4,25.7,1.5,26.3c-39.6,0.2-79.2,0.5-118.8,0.7
		c-0.4-5.1-0.7-10.1-1.1-15.2c4.5-1.9,9-3.8,13.5-5.7c33.2-0.1,66.3-0.2,99.4-0.3C675.3,543.8,675.4,541.5,675.4,539.1z"/>
</g>
<g>
	<g>
		<path class="st2" d="M782.4,297.9c15.7-22.1,11.8-48.8,3.6-73c-0.6-1.7-3.4-1-2.8,0.8c8,23.5,12,49.2-3.3,70.8
			C778.9,297.9,781.4,299.4,782.4,297.9L782.4,297.9z"/>
	</g>
</g>
<g>
	<g>
		<path class="st2" d="M782.2,225.2c-15,15.4-26.5,33.8-24.2,56c0.2,1.8,3,1.8,2.9,0c-2.2-21.6,8.8-39.1,23.4-54
			C785.5,225.9,783.5,223.8,782.2,225.2L782.2,225.2z"/>
	</g>
</g>
<g>
	<g>
		<path class="st2" d="M779.5,243.9c-1.2,11.1-4.3,21.8-9.1,31.9c-0.8,1.7,1.7,3.1,2.5,1.4c5.1-10.6,8.2-21.7,9.5-33.3
			C782.5,242.1,779.7,242.1,779.5,243.9L779.5,243.9z"/>
	</g>
</g>
<g>
	<g>
		<path class="st2" d="M803.6,291c-11.1,1.7-18.2,10.6-22.6,20.3c-0.8,1.7,1.7,3.1,2.5,1.4c4.2-9,10.5-17.3,20.9-19
			C806.2,293.4,805.5,290.7,803.6,291L803.6,291z"/>
	</g>
</g>
<g>
	<g>
		<path class="st2" d="M803.6,293.4c1.3,15.7-7.2,29.6-21.9,35.3c-1.7,0.7-1,3.4,0.8,2.8c15.9-6.1,25.4-21,24-38.1
			C806.3,291.5,803.4,291.5,803.6,293.4L803.6,293.4z"/>
	</g>
</g>
<g>
	<g>
		<path class="st2" d="M795.9,303.4c-3.7,4.7-7.3,9.4-11,14.2c-1.1,1.4,0.9,3.5,2,2c3.7-4.7,7.3-9.4,11-14.2
			C799.1,304,797.1,302,795.9,303.4L795.9,303.4z"/>
	</g>
</g>
<g class="st3">
	<path class="st4" d="M616.9,115.3c30.2,24.8,60.5,49.6,90.7,74.4c10.5,8.6,21.4,17.7,26.6,30.3c9.3,22.4-3.5,49.5-23.8,62.8
		s-46.1,15.2-70.3,13.1c-24.2-2-48.1-7.7-72.4-8.1c-8.2-0.1-16.5,0.3-24.4-1.6c-15.6-3.7-28.2-16.3-34.6-31s-7.4-31.3-5.7-47.3
		c3-29.3,15.2-58.8,38.3-77.3c23-18.5,57.7-23.5,82.5-7.6"/>
</g>
<g>
	<g>
		<path class="st5" d="M655.2,354.8c-7-4.3-15.3-5-23-1.9c-1,0.4-0.6,2.1,0.5,1.7c7.2-3,15-2.4,21.7,1.7
			C655.3,356.9,656.2,355.4,655.2,354.8L655.2,354.8z"/>
	</g>
</g>
<g>
	<g>
		<path class="st5" d="M652.8,362.7c-5.1-3.6-12-3-16.5,1.3c-0.8,0.8,0.4,2,1.2,1.2c4-3.8,10-4.2,14.4-1
			C652.8,364.8,653.7,363.3,652.8,362.7L652.8,362.7z"/>
	</g>
</g>
<g>
	<path class="st5" d="M645.4,362.7c2.1,0.9,3.2,3.3,3.2,5.6c0,1-0.2,1.9-0.7,2.7c-0.9,1.3-2.9,1.7-4.4,1.1s-2.6-2-3.1-3.6
		c-0.6-1.6-0.5-3.6,0.6-4.9c1.1-1.3,3.4-1.6,4.5-0.3"/>
</g>
<g>
	<g>
		<path class="st5" d="M596.4,352.9c-7.7-4.3-17.2-3-23.4,3.3c-0.8,0.8,0.4,2,1.2,1.2c5.7-5.7,14.3-6.9,21.4-3
			C596.5,354.9,597.3,353.4,596.4,352.9L596.4,352.9z"/>
	</g>
</g>
<g>
	<g>
		<path class="st5" d="M594.8,360.9c-6.6-2.3-13.8-0.4-18.4,4.8c-0.7,0.8,0.5,2,1.2,1.2c4.2-4.8,10.7-6.5,16.8-4.4
			C595.4,362.9,595.9,361.3,594.8,360.9L594.8,360.9z"/>
	</g>
</g>
<g>
	<path class="st5" d="M584.7,361.7c2.5-0.2,5,1.5,5.8,3.9c0.8,2.4-0.2,5.3-2.3,6.6c-0.7,0.5-1.5,0.8-2.3,0.8
		c-2.5,0.2-4.7-2.2-4.8-4.7c-0.1-2.5,1.6-4.9,3.9-6"/>
</g>
<g id="ke_books">
	<path class="st0" d="M678.6,718.4c-3.8,1.6-11.3,4.2-21.1,4c-9.3-0.2-16.4-2.8-20.1-4.4"/>
	<path class="st0" d="M572.3,713.7c1.5,2.1,6.2,8,14.6,10.4c12.9,3.6,23.4-4.4,24.6-5.3"/>
	<path class="st6" d="M675,322.1v-31.1c0-4.7,3.8-8.5,8.5-8.5h88.4c4.7,0,8.5,3.8,8.5,8.5v131.1c0,4.7-3.8,8.5-8.5,8.5h-86"/>
	<path class="st6" d="M678.2,373.6c0,15.8,0,31.7,0,47.5"/>
	<g>
		<g>
			<path class="st7" d="M588.4,193.2c-21,0-42,0-63,0c-1.5,0-1.5,2.3,0,2.3c21,0,42,0,63,0C589.8,195.5,589.8,193.2,588.4,193.2
				L588.4,193.2z"/>
		</g>
	</g>
	<g>
		<g>
			<path class="st7" d="M588.6,202.6c-21,0-42.1,0-63.1,0c-1.5,0-1.5,2.3,0,2.3c0.3,0,0.6,0,0.9,0c1.5,0,1.5-2.3,0-2.3
				c-0.3,0-0.6,0-0.9,0c0,0.8,0,1.5,0,2.3c21,0,42.1,0,63.1,0C590.1,204.9,590.1,202.6,588.6,202.6L588.6,202.6z"/>
		</g>
	</g>
	<g>
		<g>
			<path class="st7" d="M587.4,211.9c-20.5,0-41,0-61.5,0c-1.5,0-1.5,2.3,0,2.3c0.4,0,0.8,0,1.2,0c1.5,0,1.5-2.3,0-2.3
				c-0.4,0-0.8,0-1.2,0c-1.5,0-1.5,2.3,0,2.3c20.5,0,41,0,61.5,0C588.8,214.2,588.8,211.9,587.4,211.9L587.4,211.9z"/>
		</g>
	</g>
	<g>
		<g>
			<path class="st7" d="M554.7,224.2c-9.4-0.2-18.7-0.1-28.1,0.2c-1.5,0-1.5,2.3,0,2.3c9.4-0.3,18.7-0.4,28.1-0.2
				C556.2,226.5,556.2,224.2,554.7,224.2L554.7,224.2z"/>
		</g>
	</g>
	<g>
		<g>
			<path class="st7" d="M526,225.9c-1.4,13.2-1.4,26.3-0.2,39.4c0.1,1.5,2.4,1.5,2.3,0c-1.2-13.2-1.1-26.3,0.2-39.4
				C528.5,224.4,526.2,224.4,526,225.9L526,225.9z"/>
		</g>
	</g>
	<g>
		<g>
			<path class="st7" d="M553.6,225.6c-0.4,12.4-0.1,24.8,0.9,37.2c0.1,1.5,2.4,1.5,2.3,0c-1-12.4-1.3-24.8-0.9-37.2
				C556,224.1,553.7,224.1,553.6,225.6L553.6,225.6z"/>
		</g>
	</g>
	<g>
		<g>
			<path class="st7" d="M555,262.2c-5.4,0.3-10.9,0.6-16.3,0.9c-4.2,0.2-8.7,0-12.8,1.3c-1.4,0.5-0.8,2.7,0.6,2.2
				c4.4-1.4,9.7-1.1,14.4-1.4c4.7-0.3,9.4-0.5,14.1-0.8C556.5,264.4,556.5,262.1,555,262.2L555,262.2z"/>
		</g>
	</g>
	<g>
		<g>
			<path class="st7" d="M542,231.8c3,4,5.8,8.2,8.1,12.7c0.7,1.3,2.7,0.1,2-1.1c-2.3-4.4-5-8.7-8.1-12.7
				C543.1,229.5,541.1,230.7,542,231.8L542,231.8z"/>
		</g>
	</g>
	<g>
		<g>
			<path class="st7" d="M539.7,239.3c1.7,2,3.2,4.3,4.3,6.7c0.3,0.6,0.5,1.2,0.7,1.8c0.5,1.4,0.2,0.4-0.2,0.1
				c-1.1-1-2.2-2.2-3.2-3.3c-1-1.1-2.7,0.6-1.6,1.6c1.4,1.4,3,3.8,4.9,4.5c1.3,0.5,2.6-0.1,2.8-1.5c0.2-1.7-1.1-3.9-1.8-5.4
				c-1.1-2.2-2.6-4.3-4.2-6.2C540.3,236.6,538.7,238.2,539.7,239.3L539.7,239.3z"/>
		</g>
	</g>
	<g>
		<g>
			<path class="st7" d="M538.2,248.6c0.1,0.3,0.2,0.6,0.3,0.9c0.5,1.4,2.7,0.8,2.2-0.6c-0.1-0.3-0.2-0.6-0.3-0.9
				C539.9,246.6,537.7,247.2,538.2,248.6L538.2,248.6z"/>
		</g>
	</g>
	<g>
		<g>
			<path class="st7" d="M532.9,252c0.9,1.7,1.9,3.4,2.8,5.1c0.7,1.3,2.7,0.1,2-1.1c-0.9-1.7-1.9-3.4-2.8-5.1
				C534.2,249.6,532.2,250.7,532.9,252L532.9,252z"/>
		</g>
	</g>
	<g>
		<g>
			<path class="st7" d="M580.8,225.7c3.3,3.6,6.7,7.1,10.1,10.5c1.7,1.7,3.3,3.3,5,4.9c0.7,0.7,1.3,1.4,2.3,1.4
				c0.8,0,1.2-0.7,1.1-1.4c0-0.1,0-0.2,0-0.3c-0.1-0.7-0.9-0.9-1.4-0.8c0,0-0.1,0-0.2,0c-1.4,0.3-0.8,2.5,0.6,2.2c0,0,0.1,0,0.2,0
				c-0.5-0.3-0.9-0.5-1.4-0.8c0,0.1,0,0.2,0,0.3c0.4-0.5,0.7-1,1.1-1.4c-0.8,0-3.3-3.2-3.9-3.8c-1.4-1.3-2.7-2.7-4-4.1
				c-2.7-2.7-5.3-5.5-7.9-8.3C581.4,223,579.8,224.6,580.8,225.7L580.8,225.7z"/>
		</g>
	</g>
	<g>
		<g>
			<path class="st7" d="M592.9,225.4c-4.6,6-9.4,11.7-14.5,17.3c-1,1.1,0.6,2.7,1.6,1.6c5.2-5.7,10.2-11.6,14.9-17.7
				C595.7,225.4,593.7,224.2,592.9,225.4L592.9,225.4z"/>
		</g>
	</g>
	<g>
		<g>
			<path class="st7" d="M582.9,261.4c5.1,5.7,10.3,11.3,15.6,16.8c1,1.1,2.7-0.6,1.6-1.6c-5.3-5.5-10.6-11.1-15.6-16.8
				C583.6,258.6,582,260.3,582.9,261.4L582.9,261.4z"/>
		</g>
	</g>
	<g>
		<g>
			<path class="st7" d="M595.8,257.9c-4.4,7.3-8.9,14.4-13.5,21.6c-0.8,1.2,1.2,2.4,2,1.1c4.6-7.1,9.1-14.3,13.5-21.6
				C598.6,257.8,596.6,256.7,595.8,257.9L595.8,257.9z"/>
		</g>
	</g>
	<g>
		<g>
			<path class="st7" d="M693.5,312.9c19.4,0,38.7,0,58.1,0c1.5,0,1.5-2.3,0-2.3c-19.4,0-38.7,0-58.1,0
				C692,310.6,692,312.9,693.5,312.9L693.5,312.9z"/>
		</g>
	</g>
	<g>
		<g>
			<path class="st7" d="M694.1,325.8c19.1,0,38.3,0,57.4,0c1.5,0,1.5-2.3,0-2.3c-19.1,0-38.3,0-57.4,0
				C692.7,323.5,692.7,325.8,694.1,325.8L694.1,325.8z"/>
		</g>
	</g>
	<g>
		<g>
			<path class="st7" d="M695.8,337.7c18.5,0,36.9,0,55.4,0c1.5,0,1.5-2.3,0-2.3c-18.5,0-36.9,0-55.4,0
				C694.4,335.4,694.4,337.7,695.8,337.7L695.8,337.7z"/>
		</g>
	</g>
	<g>
		<g>
			<path class="st7" d="M770.6,372.1c-11.6,0-23.1,0-34.7,0c-1.5,0-1.5,2.3,0,2.3c11.6,0,23.1,0,34.7,0
				C772.1,374.4,772.1,372.1,770.6,372.1L770.6,372.1z"/>
		</g>
	</g>
	<g>
		<g>
			<path class="st7" d="M770.9,379.6c-11.2,0-22.4,0-33.7,0c-1.5,0-1.5,2.3,0,2.3c11.2,0,22.4,0,33.7,0
				C772.4,381.9,772.4,379.6,770.9,379.6L770.9,379.6z"/>
		</g>
	</g>
	<g>
		<g>
			<path class="st7" d="M771.6,386.4c-11.3,0-22.7,0-34,0c-1.5,0-1.5,2.3,0,2.3c11.3,0,22.7,0,34,0
				C773.1,388.7,773.1,386.4,771.6,386.4L771.6,386.4z"/>
		</g>
	</g>
	<g>
		<g>
			<path class="st7" d="M702.6,375.2c-0.3-0.2,0,0,0-0.1c0.1-0.1-0.2-0.2,0.1-0.2c0.2,0,0.5,0.1,0.5,0.3c0.1,0.3-0.3,0.6-0.3,0.3
				c-0.1-1.5-2.4-1.5-2.3,0c0.1,2.6,3.6,3.3,4.7,0.9c1-2.2-1.4-4.7-3.7-3.6c-2,1-1.6,4.2,0.6,4.6c2.4,0.4,3.3-2.9,1.5-4.1
				C702.5,372.4,701.3,374.4,702.6,375.2L702.6,375.2z"/>
		</g>
	</g>
	<g>
		<g>
			<path class="st7" d="M703.4,391.5c-1-0.1,0.1-1,0.3-0.8c0.4,0.3-0.4,0.8-0.5,0.3c-0.2-1.4-2.5-1.5-2.3,0c0.3,2.3,3.4,3.6,4.8,1.3
				c1.3-2.2-1.1-4.8-3.4-3.6c-2.3,1.2-1.4,5,1.3,4.6c2.4-0.4,2-3.8-0.2-4.1C702,389,702,391.3,703.4,391.5L703.4,391.5z"/>
		</g>
	</g>
	<g>
		<g>
			<path class="st7" d="M703.1,404.7c-0.2-0.1,0.6-0.4,0.3,0.2c0.1-0.1-0.5,0-0.3,0.1c-0.2,0,0.1,0.1,0.1,0c0,0-0.2-0.4,0,0
				c0.6,1.4,2.5,0.2,2-1.1c-1.1-2.6-5.7-0.4-4,2.2c1.7,2.6,5.8,0.3,4.3-2.5c-1.6-3.1-6.4,0.3-3.7,2.7c1.1,1,2.9,0.7,3.4-0.7
				c0.5-1.2-0.2-2.6-1.5-3C702.3,402,701.7,404.3,703.1,404.7L703.1,404.7z"/>
		</g>
	</g>
	<path class="st6" d="M523.3,318.5c-5.6,0-10.2-4.6-10.2-10.2V180.9c0-5.6,4.6-10.2,10.2-10.2h87.3c5.6,0,10.2,4.6,10.2,10.2v107.1"
		/>
</g>
<g id="Layer_22">
	<g>
		<g>
			<path class="st7" d="M683.7,652.8c32.9,0,65.8,0,98.7,0c1.8,0,1.9-2.9,0-2.9c-32.9,0-65.8,0-98.7,0
				C681.9,649.9,681.9,652.8,683.7,652.8L683.7,652.8z"/>
		</g>
	</g>
	<g>
		<g>
			<path class="st7" d="M781.8,652.5c3.4,2.2,3.2,7.2-0.7,8.8c-1.7,0.7-0.9,3.5,0.8,2.8c6.1-2.5,7-10.4,1.3-14.1
				C781.7,649,780.2,651.5,781.8,652.5L781.8,652.5z"/>
		</g>
	</g>
	<g>
		<g>
			<path class="st7" d="M780.6,661.2c-32.1,0-64.2,0-96.4,0c-1.8,0-1.9,2.9,0,2.9c32.1,0,64.2,0,96.4,0
				C782.4,664,782.4,661.2,780.6,661.2L780.6,661.2z"/>
		</g>
	</g>
	<g>
		<g>
			<path class="st7" d="M783.7,663.7c2.3,3.7,2.7,8,1.1,12c-0.7,1.7,2.1,2.5,2.8,0.8c1.9-4.7,1.4-10-1.3-14.3
				C785.2,660.7,782.7,662.1,783.7,663.7L783.7,663.7z"/>
		</g>
	</g>
	<g>
		<g>
			<path class="st7" d="M786.2,675.2c-33.7,0-67.4,0-101,0c-1.8,0-1.9,2.9,0,2.9c33.7,0,67.4,0,101,0
				C788,678.1,788,675.2,786.2,675.2L786.2,675.2z"/>
		</g>
	</g>
	<g>
		<g>
			<path class="st7" d="M787.2,678c2,0.3,3.9,0.2,5.9-0.3c1.8-0.5,1-3.3-0.8-2.8c-1.4,0.4-2.9,0.6-4.4,0.3c-0.8-0.1-1.5,0.2-1.8,1
				C786,676.9,786.4,677.9,787.2,678L787.2,678z"/>
		</g>
	</g>
	<g>
		<g>
			<path class="st7" d="M792.6,677.3c1.4,3,1.5,6.3,0.1,9.3c-0.7,1.7,1.7,3.1,2.5,1.4c1.8-4,1.7-8.2-0.1-12.2
				C794.3,674.1,791.8,675.6,792.6,677.3L792.6,677.3z"/>
		</g>
	</g>
	<g>
		<g>
			<path class="st7" d="M794.1,686c-36.6,0-73.3,0-109.9,0c-1.8,0-1.9,2.9,0,2.9c36.6,0,73.3,0,109.9,0C796,688.8,796,686,794.1,686
				L794.1,686z"/>
		</g>
	</g>
	<g>
		<g>
			<path class="st7" d="M682.3,701.5c36.5,0,73,0,109.5,0c1.8,0,1.9-2.9,0-2.9c-36.5,0-73,0-109.5,0
				C680.5,698.6,680.5,701.5,682.3,701.5L682.3,701.5z"/>
		</g>
	</g>
	<g>
		<g>
			<path class="st7" d="M788.9,688.8c2.9,2.6,3.1,7.2,0.3,10c-1.3,1.3,0.7,3.3,2,2c3.9-3.8,3.8-10.4-0.3-14
				C789.6,685.6,787.5,687.6,788.9,688.8L788.9,688.8z"/>
		</g>
	</g>
	<g>
		<g>
			<path class="st7" d="M786.1,702c2.2,4.8,1.7,10.1-1.3,14.5c-1,1.5,1.4,3,2.5,1.4c3.6-5.3,3.9-11.7,1.3-17.4
				C787.8,698.9,785.3,700.4,786.1,702L786.1,702z"/>
		</g>
	</g>
	<g>
		<g>
			<path class="st7" d="M785.7,715.4c-35.6,0-71.1,0-106.7,0c-1.8,0-1.9,2.9,0,2.9c35.6,0,71.1,0,106.7,0
				C787.5,718.3,787.5,715.4,785.7,715.4L785.7,715.4z"/>
		</g>
	</g>
	<g>
		<g>
			<path class="st7" d="M787.1,718.8c4.5,0,9,0,13.6,0c1.8,0,1.9-2.9,0-2.9c-4.5,0-9,0-13.6,0C785.3,715.9,785.3,718.8,787.1,718.8
				L787.1,718.8z"/>
		</g>
	</g>
	<g>
		<g>
			<path class="st7" d="M799.7,717.8c4.4,4.7,3.3,11.6-2.2,14.9c-1.6,0.9-0.1,3.4,1.4,2.5c7.1-4.3,8.3-13.4,2.8-19.4
				C800.5,714.5,798.4,716.5,799.7,717.8L799.7,717.8z"/>
		</g>
	</g>
	<g>
		<g>
			<path class="st7" d="M798.3,732.3c-32.7,0-65.5,0-98.2,0c-1.8,0-1.9,2.9,0,2.9c32.7,0,65.5,0,98.2,0
				C800.2,735.1,800.2,732.3,798.3,732.3L798.3,732.3z"/>
		</g>
	</g>
</g>
<line class="st6" x1="523.3" y1="318.5" x2="560" y2="318.1"/>
<g>
	<g>
		<path class="st5" d="M649.7,501.5c-0.8-5.7-3.4-11.7-7.7-15.7c-3.5-3.2-5,2.4-3.8,5.2c0.7,1.7,3.2,0.2,2.5-1.4
			c-0.3-0.8-1.9-2.7-0.3-1.4c0.5,0.4,0.9,1,1.3,1.5c1.1,1.3,1.9,2.7,2.7,4.2c1.4,2.7,2.2,5.5,2.6,8.4
			C647.2,504.1,650,503.3,649.7,501.5L649.7,501.5z"/>
	</g>
</g>
<g>
	<g>
		<path class="st5" d="M639.9,489.8c-2.1-5.4-4.2-10.9-6.3-16.3c-0.7-1.7-3.4-1-2.8,0.8c2.1,5.4,4.2,10.9,6.3,16.3
			C637.8,492.3,640.5,491.6,639.9,489.8L639.9,489.8z"/>
	</g>
</g>
<g>
	<g>
		<path class="st5" d="M630.7,473.4c-4.9,5.9-1,16,1.9,22c0.8,1.7,3.3,0.2,2.5-1.4c-2.2-4.5-6.1-14-2.3-18.5
			C633.9,474,631.9,471.9,630.7,473.4L630.7,473.4z"/>
	</g>
</g>
<g>
	<g>
		<path class="st5" d="M627.4,475.5c-4.1,6.2-3.4,13.5-1.2,20.3c0.6,1.7,3.3,1,2.8-0.8c-2-6.1-2.8-12.5,0.9-18.1
			C630.9,475.4,628.4,474,627.4,475.5L627.4,475.5z"/>
	</g>
</g>
<g>
	<g>
		<path class="st5" d="M623.6,478.1c-7.7,15.8,3,28.2,11.8,40.7c1.1,1.5,3.5,0.1,2.5-1.4c-7.9-11.3-18.8-23.3-11.8-37.9
			C626.9,477.9,624.4,476.4,623.6,478.1L623.6,478.1z"/>
	</g>
</g>
<g>
	<g>
		<path class="st5" d="M587.6,512c0.8-2.4,1.4-4.9,2-7.4c0.4-1.4,0.8-2.8,1.4-4.1c0.3-0.7,1.5-3.3,2.2-3.4c-0.4-0.2-0.8-0.5-1.2-0.7
			c0.4,1,0.5,2.1,0.3,3.1c-0.1,1.8,2.7,1.8,2.9,0c0.1-1.6,0.1-3.2-0.7-4.6c-0.3-0.4-0.7-0.7-1.2-0.7c-2.6,0.2-4.2,3.7-5.1,5.8
			c-1.5,3.6-2,7.5-3.2,11.2C584.3,513,587,513.8,587.6,512L587.6,512z"/>
	</g>
</g>
<g>
	<g>
		<path class="st5" d="M595.7,499.7c1.3-2.2,2.5-4.4,3.4-6.7c0.6-1.5,1.3-6.2,2.6-7.1c-0.7-0.3-1.4-0.6-2.1-0.8
			c2.3,6,0,11.8-2.4,17.3c-0.7,1.7,1.7,3.1,2.5,1.4c2.7-6.2,5.3-12.8,2.7-19.5c-0.3-0.8-1.3-1.5-2.1-0.8c-1.8,1.3-1.9,3.1-2.6,5.2
			c-1.1,3.4-2.6,6.6-4.4,9.7C592.2,499.9,594.7,501.3,595.7,499.7L595.7,499.7z"/>
	</g>
</g>
<g>
	<g>
		<path class="st5" d="M603.3,488.3c1.5-1.2,1.4,4.8,1.4,4.8c-0.1,1.9-0.3,3.8-0.7,5.6c-0.7,3.3-2,6.5-3.7,9.4
			c-0.9,1.6,1.6,3.1,2.5,1.4c3.3-6,5.2-12.7,4.8-19.5c-0.2-4.2-2.3-6.9-6.2-3.8C599.8,487.4,601.9,489.4,603.3,488.3L603.3,488.3z"
			/>
	</g>
</g>
<g>
	<g>
		<path class="st5" d="M607.6,489.2c1.8,0,1.9-2.9,0-2.9C605.7,486.4,605.7,489.2,607.6,489.2L607.6,489.2z"/>
	</g>
</g>
<g>
	<g>
		<path class="st5" d="M606.7,489.1c3,5.2,1,13.2-0.5,18.6c-0.5,1.8,2.3,2.5,2.8,0.8c1.7-6.2,3.6-14.9,0.2-20.8
			C608.2,486.1,605.7,487.5,606.7,489.1L606.7,489.1z"/>
	</g>
</g>
<g>
	<g>
		<path class="st5" d="M606.5,507.4c-3.3,6.1-6.5,12.2-9.8,18.4c-0.9,1.6,1.6,3.1,2.5,1.4c3.3-6.1,6.5-12.2,9.8-18.4
			C609.8,507.2,607.3,505.8,606.5,507.4L606.5,507.4z"/>
	</g>
</g>
<g id="boy_2">
	<path class="st0" d="M676.3,347.1c2.2,3.4,6.8,1.1,9.9,4.4c4.1,4.3,2.8,15.2-3.7,20c-2.7,2-5.5,2.5-7.2,2.6
		c-0.5,3.8-1.6,9.1-4.3,15.1c-6,13.2-15.9,20.1-19,22.3c-14.9,10.2-36.9,13.8-56.5,4.9c-21.3-9.7-29.1-29.3-30.7-33.4
		c-0.6-1.5-1.2-3-1.8-4.6c-5-0.2-9.4-3.2-11-7.5c-2-5.4,0.6-12,6.4-14.9c-2.1-3.8-4.9-10.2-4.8-18.2c0.1-18.1,14.8-30.1,20.7-34.9
		c25.4-20.8,57.3-13.9,58.6-13.5c15.9,3.7,33.1,14,39.6,27.8c2.9,6.3,5.4,11.6,4.6,18.3C676.7,340.6,674.4,344.1,676.3,347.1z"/>
</g>
<g id="Layer_14">
	<path class="st0" d="M670.5,313.2c0.1,1.7,0.4,11.4-7.2,19.4c-1.7,1.8-10,10.8-20.3,8c-6.3-1.6-5.1-7.8-12.7-12.2
		c-5.5-3.2-12.8-4.1-18.8-2.3c-10.4,3.2-9.5,12.3-17.7,14.2c-11,2.6-19-12.1-29-9c-4.8,1.5-7.6,6.3-9.4,10.3"/>
	<path class="st0" d="M657.8,407c12.6,6.7,20.8,14.5,25.7,19.9c14.7,16.1,20.5,33.9,23.3,42.9c0.9,2.8,1.5,5.2,1.9,6.7
		c-10.3,4.7-20.6,9.4-30.9,14.2"/>
	<path class="st0" d="M579.5,405.3c-12.5,4.2-20,10.4-24.1,14.5c-18.3,18.3-20.3,45.8-21.3,60.1c-0.2,2.3-0.2,4.1-0.3,5.3
		c12.1,0.8,24.3,1.5,36.4,2.3"/>
</g>
<g id="Layer_15">
	<path class="st0" d="M702.9,479.1c3.3,7.6,6.5,15.8,9.3,24.6c1.1,3.6,3.8,8.5,4.4,15.5c0.4,5.1,0.7,9.2-2.4,13.1
		c-4.6,5.7-13.6,7.6-16.9,8.3c-17,3.5-41-6.2-61.4-23.8"/>
	<path class="st0" d="M574.5,515.4c0-26.5,0.5-48.3,0.5-74.9c33,0,66,0,99,0l1.4,67.5"/>
	<path class="st0" d="M539.2,485.6c-1.3,5.4-2.8,13.5-2.7,23.2c0.1,10,0.4,34.5,12.7,41.3c11.4,6.3,33.2-2.8,49.8-24.6"/>
	<path class="st0" d="M570.2,487.6c-1,9.3-2,18.5-3,27.8"/>
</g>
<g id="Layer_16">
	<path class="st0" d="M681.9,540.6c0.1,8.7,0.2,17.4,0.3,26.1c-39.6,0.2-79.2,0.5-118.8,0.7c-0.4-5.3-0.8-10.5-1.1-15.7"/>
</g>
<g id="Layer_17">
	<path class="st0" d="M682.7,567.4c3.6,10.5,7.3,25.1,7.8,42.9c0.3,11-0.7,20.7-2.1,28.7c0,0.3-0.2,0.6-0.5,0.7
		c-4.9,3.3-15.1,9-29.3,10.2c-12.2,1-21.9-1.8-27.3-3.9c-0.4-0.1-0.6-0.4-0.7-0.8l-2.8-9c-0.3-1.3-3.3-8.2-3.4-6.9
		c-0.5,6.3-3.7,14.7-3.9,17.5c0,0.4,0.4-0.2,0,0c-2.2,0.9-4.5,1.7-7.2,2.3c-4,1-15.6,2.1-20.7,1.9c-6.9-0.3-14.1-0.5-22.6-4
		c-1.9-0.8-3.5-1.6-4.5-2.1c-2.2-8.8-4.1-19.3-4.9-31.3c-1.2-17.9,0.6-33.2,2.9-44.9"/>
</g>
<g id="Layer_18">
	<path class="st0" d="M680.5,643.9c1.4,11.3,2.2,24.6,1.7,39.5c-0.5,14-2.1,26.5-4.1,37.2"/>
	<path class="st0" d="M631.9,647.1c1.1,16.9,2.4,34,3.8,51.2c0.5,6.4,1.1,12.9,1.6,19.3"/>
	<path class="st0" d="M619.4,647.3c-0.7,19.5-2.7,40.2-6.3,61.7c-0.6,3.6-1.2,7.2-1.9,10.7"/>
	<path class="st0" d="M569.1,646.5c-0.1,10.2,0,20.9,0.5,32c0.5,12.3,1.4,24.1,2.6,35.1"/>
</g>
<g id="Layer_19">
	<path class="st0" d="M611.3,719.7c1,1.9,2.4,4.9,2.9,8.8c0.9,6.1-0.5,12.2-2.6,16c-9.6,16.9-45,8.5-48.2,7.7
		c-4.5-1.1-8.7-2.8-11.5-6.7c0,0-3.1-4.3-3-10c0.3-8.8,9.7-17.7,23.4-21.9"/>
	<path class="st0" d="M674.5,720.1c1.5,0,12.3-0.3,19.6,7.6c1.2,1.3,5.4,6.1,5.7,13.2c0.1,2.5-0.3,4.7-0.6,5.6
		c-2.4,6.9-28.5,7.7-62,3.8c-1.9-1.8-4.1-4.4-5.4-7.9c-4.7-12.1,4.9-23.7,5.9-24.8"/>
</g>
<g id="Layer_20">
	<path class="st0" d="M566.2,515.5c6.9-1.1,13.9-2.1,20.8-3.2"/>
	<path class="st0" d="M678.2,507.4c-4.9-0.7-9.9-1.5-15-2.4c-5.3-0.9-10.4-1.8-15.4-2.8"/>
	<path class="st0" d="M675.4,538.2c0,2.9,0,5.8,0,8.7c-33.4,0-66.8,0-100.2,0"/>
</g>
</svg>
