<?xml version="1.0" encoding="utf-8"?>
<!-- Generator: Adobe Illustrator 21.0.0, SVG Export Plug-In . SVG Version: 6.00 Build 0)  -->
<svg version="1.1" id="Layer_1" xmlns="http://www.w3.org/2000/svg" xmlns:xlink="http://www.w3.org/1999/xlink" x="0px" y="0px"
	 viewBox="0 0 1366 768" style="enable-background:new 0 0 1366 768;" xml:space="preserve">
<style type="text/css">
	.st0{fill:#8891D5;}
	.st1{opacity:0.57;}
	.st2{fill:#F4D2C4;}
	.st3{fill:#696F8E;}
	.st4{fill:none;stroke:#696F8E;stroke-miterlimit:10;}
	.st5{fill:#F6A73D;}
	.st6{fill:none;stroke:#F6A73D;stroke-miterlimit:10;}
</style>
<path class="st0" d="M746.9,253.4c3.2,0,7.7,0.2,13,1.3c19.4,3.9,31.2,15.6,33.4,17.8c2,2,8,8.4,12.6,18.6
	c2.6,5.7,3.6,10.3,5.3,18.7c1.8,8.3,2.8,15.6,3.4,21.8c-11,2.5-22,5.1-32.9,7.6c0.4,16.8,1.4,34.7,3.3,53.6
	c1.4,13.5,3.1,26.4,5,38.6c-6.4,1.9-13.5,3.7-21.3,5.2c-6.1,1.1-16.9,2.9-30.2,3.3c-12,0.4-28.9-0.1-49-4.3
	c0.8-4.8,1.9-11.9,2.8-20.7c1.4-14.9,1.1-24,1.4-35.8c0.2-9.4,1-23,3.1-39.6c-9.9-0.5-19.7-1-29.6-1.4c-0.9-9.3-1.4-17.9-1.7-25.5
	c-0.3-9.2-0.2-15.4,2.7-22.5c0.9-2.2,1.8-3.7,2.7-5.3c1.9-3.3,7-12,16.6-19.6c11.6-9.2,23.9-12.1,30-13.1c1.4,1.2,3.5,2.8,6.3,4.2
	c2.7,1.3,7,3.3,12.3,2.6C741.7,258.1,745.4,254.9,746.9,253.4z"/>
<g class="st1">
	<path class="st2" d="M801,585c-34.5,0.9-69.1-1.8-103.4,2c-34.3,3.8-69.1,14.9-93.7,39c-7.6,7.5-14.3,16.4-16.6,26.8
		c-4.4,19.4,7.6,39.6,24.2,50.5c16.6,11,36.9,14.5,56.6,16.9c39.6,4.9,79.6,6.2,119.3,4c33.3-1.9,71.3-9.3,88-38.2
		c13.6-23.6,7-55.7-11.9-75.4c-18.9-19.7-47.6-28-74.8-26.4"/>
	<g>
		<path class="st2" d="M801,581.5c-55.8,1.2-114.7-6.1-166.7,19.1c-20.2,9.8-43.3,26.4-49.8,49.2c-6.3,22,7.3,44.5,25.2,56.5
			c22.2,14.8,51,17,76.8,19.4c30.4,2.9,61,3.7,91.6,2.4c39.7-1.7,95.5-9.1,106.3-55.8c5.6-24.4-3.9-51-22.3-67.7
			c-19.8-18-47.2-25-73.5-23.8c-4.4,0.2-4.4,7,0,6.8c22.1-1,44.8,3.8,62.9,17.1c17.6,12.9,28.5,34,27.6,56
			c-2,46.5-54.3,57.9-91.7,60.1c-26.5,1.5-53.2,1.4-79.7-0.3c-25.1-1.6-51.9-3-75.9-11.2c-21.2-7.3-42.8-25-42-49.6
			c0.8-23.6,25.1-41.4,44-51.3c51.3-27,111.4-18.9,167.1-20.1C805.3,588.3,805.4,581.4,801,581.5L801,581.5z"/>
	</g>
</g>
<g>
	<g>
		<path class="st3" d="M749,222.1c4.4,0,4.4-6.8,0-6.8C744.6,215.2,744.6,222.1,749,222.1L749,222.1z"/>
	</g>
</g>
<g>
	<g>
		<path class="st3" d="M717.9,220.2c4.4,0,4.4-6.8,0-6.8C713.5,213.4,713.5,220.2,717.9,220.2L717.9,220.2z"/>
	</g>
</g>
<g>
	<g>
		<path class="st3" d="M758.2,209.1c-4.5-5-11.5-5.5-16.8-1.4c-0.5,0.4,0.2,1.1,0.7,0.7c4.8-3.8,11.2-3.2,15.3,1.4
			C757.9,210.3,758.6,209.6,758.2,209.1L758.2,209.1z"/>
	</g>
</g>
<g>
	<g>
		<path class="st3" d="M724.6,204.8c-4-5.6-12.3-2.8-16.2,1.3c-0.5,0.5,0.3,1.2,0.7,0.7c3.4-3.6,11-6.6,14.6-1.5
			C724.1,205.9,725,205.4,724.6,204.8L724.6,204.8z"/>
	</g>
</g>
<g>
	<g>
		<path class="st3" d="M723.8,215.4c-4.1-4.1-10.4-3.9-14.2,0.5c-0.4,0.5,0.3,1.2,0.7,0.7c3.4-4,9-4.2,12.7-0.5
			C723.5,216.6,724.2,215.9,723.8,215.4L723.8,215.4z"/>
	</g>
</g>
<g>
	<g>
		<path class="st3" d="M755.8,218.8c-0.9-2.4-3-4-5.6-4.3c-3.4-0.4-6.5,1.8-8.6,4.3c-0.4,0.5,0.3,1.2,0.7,0.7
			c3-3.5,10.2-6.6,12.5-0.4C755,219.7,756,219.4,755.8,218.8L755.8,218.8z"/>
	</g>
</g>
<g>
	<g>
		<path class="st3" d="M742.5,241.4c-4.1,6.8-13.4,6.7-17.3-0.3c-0.3-0.6-1.2-0.1-0.9,0.5c4.3,7.6,14.6,7.8,19,0.3
			C743.7,241.4,742.8,240.9,742.5,241.4L742.5,241.4z"/>
	</g>
</g>
<path class="st4" d="M718,725.4c-0.3,2.3-0.3,3.1,0.3,7.2c0.6,4.2,1.7,6.5,2.8,10.4c1,3.3,2.1,8.2,2.5,14.3
	c-18.4,0.6-36.7,1.1-55.1,1.7c-2-4-4.5-10.4-1.7-14.9c1.6-2.6,4.9-3.9,11.5-6.5c7.3-2.8,9.9-2.7,12.1-5.3c2.4-2.9,2.5-4.2,2.2-7"/>
<g id="Layer_70">
	<path class="st4" d="M769.7,208.9c0.7,0.1,2.8,0.5,4.3,2.3c1.8,2.1,1.6,4.6,1.4,5.9c-0.1,0.8-0.5,4.4-3.6,7c-1.7,1.4-3.5,1.8-4.4,2
		c-1.5,3.2-3.9,7.9-7.6,13.2c-4.1,5.9-7.2,10.4-12.9,14.1c-3.1,2-8.3,5.3-15.2,4.8c-4.5-0.3-7.7-2.2-10.8-4
		c-2.1-1.3-8.8-5.5-13.3-13.5c-2.8-5-4-9.9-4.7-13.1c-0.5-2-0.8-3.7-0.9-5c-0.7-0.1-2.5-0.4-4.1-1.9c-1.8-1.7-2.1-3.9-2.4-5.4
		c-0.2-1.2-0.5-3.8,0.9-6.4c1.1-2.1,2.8-3.1,3.6-3.6"/>
</g>
<g id="Layer_71">
	<path class="st4" d="M729.2,185.4c0.6,2.1,2.3,6.4,6.5,10.1c6.3,5.5,13.7,5.5,15.5,5.5c-0.7-2.7-1.3-5.5-2-8.2
		c3.1,2.3,6.6,5.4,10.1,9.5c3,3.5,4.7,5.7,6,8.2c0.9,1.8,1.4,3.4,1.8,4.5c0.9-2.6,1.9-5.2,2.8-7.9"/>
</g>
<g id="Layer_72">
	<path class="st4" d="M729.2,182c-0.2,0.3-3.9,5.8-2,11.2c0.6,1.7,1.6,2.8,2.4,3.6c-1.9,0.2-6.8,0.3-11.6-3.1
		c-2.3-1.7-3.9-3.6-4.9-5.1c-0.1,1.7-0.4,5.2-2.4,8.7c-3.6,6.2-9.6,7.4-10.7,7.6c-1.2,1.4-2.4,2.7-3.6,4.1c-1.6-8.9-1.5-16.3-1-21.5
		c0.5-6.3,0.9-10.7,3.4-15.6c3.9-7.5,10-10.7,14.4-12.9c4.6-2.4,13.3-6.9,23.2-3.4c4.1,1.5,4.5,4.4,11.5,8.2c3.9,2.1,5,2.1,8.9,3.9
		c1.2,0.6,9.7,4.7,13.8,9.5c8.3,9.8,3.3,29,2.5,31.9"/>
</g>
<g id="Layer_73">
	<path class="st4" d="M746.9,253.4c6,0,18.8,0.8,32.5,8.5c14.9,8.4,22.3,20.4,25.2,25.6c2,5.4,3.9,11.4,5.6,18
		c2.4,9.6,3.7,18.3,4.4,26c-11,2.5-22,5.1-32.9,7.6c-0.2-4.8-0.4-9.6-0.7-14.4"/>
	<path class="st4" d="M717.6,252c-5.7,0.9-13.7,2.9-22.1,7.7c-16.7,9.6-24.4,24.2-27.2,30.3c-1.2,5.2-2.2,11.3-2.6,18.3
		c-0.4,7.4,0.3,15,1,23.5c0,0.5,0.5,6.3,0.5,6.3c10.6,0.5,21.2,1,31.9,1.6c0.3-4.3,0.7-8.7,1-13.1"/>
</g>
<g id="Layer_74">
	<path class="st4" d="M809.2,332.8c1.1,16.3,2.1,32.6,3.2,48.9c0.7,11.5,0.9,13.3,1,15.5c0.8,13.9,1.4,34.2,0.5,60.5"/>
	<path class="st4" d="M781.6,339.2c0.4,18.1,1.6,37.7,3.8,58.4c2.5,23.1,6,44.4,10,63.8"/>
	<path class="st4" d="M696.8,339.5c-2.3,20.4-3.2,37.5-3.6,50.3c-0.3,9-0.2,12.5-0.6,19.1c-1.2,20-4.9,36.4-8.3,48.3"/>
	<path class="st4" d="M667.2,338.1c1.7,20.1,1.5,36.3,1,47.4c-0.7,14.9-2,23.4-2.2,40.7c-0.2,14.1,0.5,25.7,1.1,33.1"/>
</g>
<g id="Layer_75">
	<path class="st4" d="M790,431.4c-12.6,3.8-29.6,7.6-50,8.4c-20.4,0.8-37.6-1.5-50.5-4.2"/>
</g>
<g id="Layer_76">
	<path class="st4" d="M794.7,457.7c4.7,43.9,8.8,89.8,12.1,137.6c3,43.1,5.1,84.8,6.5,125c-13.4,1.1-26.8,2.3-40.2,3.5
		c-2.9-37.9-7.4-79.2-14.3-123c-5.6-35.9-12.2-69.4-19.1-100.3c-3.9,32.3-7.7,64.6-11.6,96.9c-1.1,42.7-2.3,85.4-3.4,128.1
		c-13.9-0.1-27.8-0.1-41.8-0.2c4-57,2.8-100.9,0.8-131.3c-1.3-19.5-4.5-58.4-1.3-111.2c0.7-10.8,1.4-19.7,2-25.7"/>
</g>
<path class="st4" d="M801.2,721.3c0,1.6,0.2,4.6,1.9,7.6c1.8,3.1,4.5,4.6,6.9,5.9c7,3.9,10.7,1.6,15.1,4c5.1,2.8,7.3,9.6,7.7,14.5
	c0.1,1.2,0.1,2.2,0,2.9c-17.7,0-35.4,0-53.1,0c-0.9-5.4-0.9-9.7-0.8-12.7c0.2-3.7,0.6-5.5,0.8-9.8c0.2-4.5-0.1-8.2-0.3-10.6"/>
<g>
	<g>
		<path class="st5" d="M693.8,81.1c4.6,0.3,4,7,1.9,9.4c-2.4,2.7-6.6,2.6-9.2,0.4c-0.5-0.4-1.2,0.3-0.7,0.7c3.5,2.9,9,2.5,11.5-1.5
			c2-3.3,1.4-9.8-3.4-10.1C693.2,80.1,693.2,81.1,693.8,81.1L693.8,81.1z"/>
	</g>
</g>
<g>
	<g>
		<path class="st5" d="M696,90.9c2.5,6.3,4.2,12.8,4.9,19.6c0.3,3,1,7.4-1.7,8.9c-2.6,1.4-8.1,0.9-11,1c-0.7,0-0.7,1,0,1
			c4-0.1,12.3,0.9,14.1-3.4c1.3-3.1-0.5-9.7-1-13c-0.9-5-2.3-9.7-4.2-14.4C696.7,90,695.7,90.3,696,90.9L696,90.9z"/>
	</g>
</g>
<g>
	<g>
		<path class="st5" d="M685.2,91.4c-2.8,4.1-6.6,32.6,2.6,29.4c0.6-0.2,0.4-1.2-0.3-1c-4.9,1.7-4-11.9-4-13.8
			c0.2-4.5,0-10.4,2.6-14.2C686.5,91.4,685.6,90.9,685.2,91.4L685.2,91.4z"/>
	</g>
</g>
<g>
	<g>
		<path class="st5" d="M694.9,80.4c-3.6-1.1-7.9-0.1-10.1,3.2c-2.4,3.7-0.4,6.9,2.7,9.3c0.5,0.4,1.2-0.3,0.7-0.7
			c-2.7-2.1-4.7-5-2.4-8.3c2-2.8,5.6-3.5,8.7-2.5C695.3,81.6,695.5,80.6,694.9,80.4L694.9,80.4z"/>
	</g>
</g>
<path class="st6" d="M721.4,124.6c6.6-7,10.6-16.3,10.6-26.4c0-22-19-39.9-42.5-39.9C666,58.4,647,76.3,647,98.3s19,39.9,42.5,39.9
	c7.8,0,15-2,21.3-5.3"/>
<g>
	<g>
		<path class="st5" d="M625.6,168.2c4.6,0.3,4,7,1.9,9.4c-2.4,2.7-6.6,2.6-9.2,0.4c-0.5-0.4-1.2,0.3-0.7,0.7c3.5,2.9,9,2.5,11.5-1.5
			c2-3.3,1.4-9.8-3.4-10.1C624.9,167.2,624.9,168.2,625.6,168.2L625.6,168.2z"/>
	</g>
</g>
<g>
	<g>
		<path class="st5" d="M627.7,178c2.5,6.3,4.2,12.8,4.9,19.6c0.3,3,1,7.4-1.7,8.9c-2.6,1.4-8.1,0.9-11,1c-0.7,0-0.7,1,0,1
			c4-0.1,12.3,0.9,14.1-3.4c1.3-3.1-0.5-9.7-1-13c-0.9-5-2.3-9.7-4.2-14.4C628.5,177.1,627.5,177.4,627.7,178L627.7,178z"/>
	</g>
</g>
<g>
	<g>
		<path class="st5" d="M616.9,178.5c-2.8,4.1-6.6,32.6,2.6,29.4c0.6-0.2,0.4-1.2-0.3-1c-4.9,1.7-4-11.9-4-13.8
			c0.2-4.5,0-10.4,2.6-14.2C618.2,178.5,617.3,178,616.9,178.5L616.9,178.5z"/>
	</g>
</g>
<g>
	<g>
		<path class="st5" d="M626.6,167.5c-3.6-1.1-7.9-0.1-10.1,3.2c-2.4,3.7-0.4,6.9,2.7,9.3c0.5,0.4,1.2-0.3,0.7-0.7
			c-2.7-2.1-4.7-5-2.4-8.3c2-2.8,5.6-3.5,8.7-2.5C627,168.7,627.3,167.7,626.6,167.5L626.6,167.5z"/>
	</g>
</g>
<path class="st6" d="M653.1,211.8c6.6-7,10.6-16.3,10.6-26.4c0-22-19-39.9-42.5-39.9s-42.5,17.9-42.5,39.9s19,39.9,42.5,39.9
	c7.8,0,15-2,21.3-5.3"/>
<g>
	<g>
		<path class="st5" d="M565.6,31.4c4.6,0.3,4,7,1.9,9.4c-2.4,2.7-6.6,2.6-9.2,0.4c-0.5-0.4-1.2,0.3-0.7,0.7c3.5,2.9,9,2.5,11.5-1.5
			c2-3.3,1.4-9.8-3.4-10.1C564.9,30.3,565,31.3,565.6,31.4L565.6,31.4z"/>
	</g>
</g>
<g>
	<g>
		<path class="st5" d="M567.7,41.1c2.5,6.3,4.2,12.8,4.9,19.6c0.3,3,1,7.4-1.7,8.9c-2.6,1.4-8.1,0.9-11,1c-0.7,0-0.7,1,0,1
			c4-0.1,12.3,0.9,14.1-3.4c1.3-3.1-0.5-9.7-1-13c-0.9-5-2.3-9.7-4.2-14.4C568.5,40.2,567.5,40.5,567.7,41.1L567.7,41.1z"/>
	</g>
</g>
<g>
	<g>
		<path class="st5" d="M557,41.6c-2.8,4.1-6.6,32.6,2.6,29.4c0.6-0.2,0.4-1.2-0.3-1c-4.9,1.7-4-11.9-4-13.8c0.2-4.5,0-10.4,2.6-14.2
			C558.2,41.6,557.4,41.1,557,41.6L557,41.6z"/>
	</g>
</g>
<g>
	<g>
		<path class="st5" d="M566.7,30.6c-3.6-1.1-7.9-0.1-10.1,3.2c-2.4,3.7-0.4,6.9,2.7,9.3c0.5,0.4,1.2-0.3,0.7-0.7
			c-2.7-2.1-4.8-5-2.4-8.3c2-2.8,5.6-3.5,8.7-2.5C567,31.8,567.3,30.8,566.7,30.6L566.7,30.6z"/>
	</g>
</g>
<path class="st6" d="M596,77.2c6.6-7,10.6-16.3,10.6-26.4c0-22-19-39.9-42.5-39.9c-23.5,0-42.5,17.9-42.5,39.9s19,39.9,42.5,39.9
	c7.8,0,15-2,21.3-5.3"/>
<g>
	<g>
		<path class="st3" d="M682.2,474.8c0,2-0.2,3.9-0.5,5.8c-0.1,0.6-0.2,1.7-0.5,2.3c0,1-0.4,1.2-1.3,0.7c-1,0.1-1.6-0.4-1.7-1.5
			c-1.2-3-0.9-6.4-0.7-9.6c0-0.7-1-0.7-1,0c-0.2,2.8-0.3,5.6,0.3,8.4c0.3,1.4,1.1,4.3,2.7,4.9c3.7,1.3,3.7-9.1,3.7-10.9
			C683.3,474.2,682.2,474.2,682.2,474.8L682.2,474.8z"/>
	</g>
</g>
<g>
	<g>
		<path class="st3" d="M666.7,458.4c-2.4,6.6-5,13.1-7.8,19.6c-0.3,0.6,0.6,1.1,0.9,0.5c2.8-6.5,5.4-13.1,7.9-19.8
			C667.9,458.1,666.9,457.8,666.7,458.4L666.7,458.4z"/>
	</g>
</g>
<g>
	<g>
		<path class="st3" d="M659,478.6c0.1,4.3,0.4,8.6,0.9,12.9c0.1,0.6,1.1,0.7,1,0c-0.5-4.3-0.8-8.6-0.9-12.9
			C660,477.9,659,477.9,659,478.6L659,478.6z"/>
	</g>
</g>
<g>
	<g>
		<path class="st3" d="M676.7,479.7c-1.3,6.1-1.3,12.2,0,18.3c0.1,0.6,1.1,0.4,1-0.3c-1.2-5.9-1.2-11.8,0-17.8
			C677.8,479.3,676.8,479.1,676.7,479.7L676.7,479.7z"/>
	</g>
</g>
<g>
	<g>
		<path class="st3" d="M676.5,498.8c0.3,1,0.5,2.1,0.8,3.1c0.3,1,0.8,1.6-0.1,2.1c-1.8,1.1-3.7-3.6-4.1-4.8
			c-1.1-3.4-1.6-7.2-2.1-10.8c-0.1-0.7-1.1-0.4-1,0.3c0.7,4.9,0.9,12.6,5.3,16c0.9,0.7,2.4,1.6,3.3,0.5c1.1-1.5-0.8-5.2-1.1-6.7
			C677.3,497.9,676.3,498.1,676.5,498.8L676.5,498.8z"/>
	</g>
</g>
<g>
	<g>
		<path class="st3" d="M674.4,503.1c0.2,1,0.3,2,0.5,3c-1.7,0.3-2.8-0.1-3.2-1.4c-1.2-1.3-2-3.8-2.7-5.4c-1.8-4.2-2.8-8.4-2.5-13
			c0.1-0.7-1-0.7-1,0c-0.4,5.8,1.3,11.1,3.9,16.3c1.3,2.6,2.9,6.7,6.5,5.5c0.3-0.1,0.4-0.3,0.4-0.6c-0.2-1.5-0.5-3-0.8-4.5
			C675.2,502.2,674.2,502.5,674.4,503.1L674.4,503.1z"/>
	</g>
</g>
<g>
	<g>
		<path class="st3" d="M660,491.1c1.9,5,4.9,9.3,9,12.8c0.5,0.4,1.2-0.3,0.7-0.7c-4-3.3-6.9-7.5-8.8-12.3
			C660.8,490.2,659.8,490.5,660,491.1L660,491.1z"/>
	</g>
</g>
<g>
	<g>
		<path class="st3" d="M813.3,456.5c1.4,9.7,4.1,20,2.4,29.8c-0.1,0.6,0.9,0.9,1,0.3c1.7-10-1-20.5-2.4-30.4
			C814.2,455.6,813.2,455.9,813.3,456.5L813.3,456.5z"/>
	</g>
</g>
<g>
	<g>
		<path class="st3" d="M797.7,484c0.3,1.1,1.7,1.1,2.3,0.2c0.5-0.7,0.5-1.8,0.6-2.6c0.2-1.3,0.4-2.5,0.6-3.8c0.1-0.6-0.9-0.9-1-0.3
			c-0.2,1-0.3,2.1-0.5,3.1c-0.1,0.5-0.2,0.9-0.2,1.4c0,0.2-0.1,0.5-0.1,0.7c0,0.5-0.2,0.8-0.7,1C798.5,483.1,797.5,483.3,797.7,484
			L797.7,484z"/>
	</g>
</g>
<g>
	<g>
		<path class="st3" d="M800.2,482.7c0.7,5.9,1.1,11.8,1.2,17.7c0,0.7,1,0.7,1,0c-0.1-5.9-0.5-11.8-1.2-17.7
			C801.2,482,800.1,482,800.2,482.7L800.2,482.7z"/>
	</g>
</g>
<g>
	<g>
		<path class="st3" d="M802.3,501.2c3.8,1.8,3.7-4.4,4.1-6.7c1.1-7.1,1.2-12.6-0.7-19.6c-0.2-0.6-1.2-0.4-1,0.3
			c1.2,4.4,2.1,8.7,1.6,13.3c-0.1,1.1-1.3,12.7-3.4,11.8C802.3,500,801.7,500.9,802.3,501.2L802.3,501.2z"/>
	</g>
</g>
<g>
	<g>
		<path class="st3" d="M805.1,500.6c7.7,4.8,6.7-20,5.9-23.6c-0.2-0.6-1.1-0.4-1,0.3c1,4.3,1,8.6,0.4,13c-0.2,1.4-1.4,11.5-4.8,9.4
			C805,499.3,804.5,500.2,805.1,500.6L805.1,500.6z"/>
	</g>
</g>
<g>
	<g>
		<path class="st3" d="M810.7,499.8c1.9-0.5,2.5-2.1,2.9-3.9c0.9-4,1.4-8.2,2.1-12.2c0.1-0.6-0.9-0.9-1-0.3
			c-0.4,2.6-0.9,5.1-1.3,7.7c-0.3,2-0.4,7-3,7.7C809.8,499,810.1,500,810.7,499.8L810.7,499.8z"/>
	</g>
</g>
<g>
	<g>
		<path class="st3" d="M815.8,486.5c-0.9,2.1-1.7,4.1-2.6,6.2c-0.3,0.6,0.6,1.1,0.9,0.5c0.9-2.1,1.7-4.1,2.6-6.2
			C816.9,486.5,816,485.9,815.8,486.5L815.8,486.5z"/>
	</g>
</g>
<g>
	<g>
		<path class="st3" d="M732.1,221.6c-0.5,3.5-3.5,14.4,3.4,13.7c0.7-0.1,0.7-1.1,0-1c-5.7,0.5-2.9-9.4-2.4-12.4
			C733.2,221.2,732.2,220.9,732.1,221.6L732.1,221.6z"/>
	</g>
</g>
<g>
	<g>
		<path class="st3" d="M743,240.9c-5.7,1.5-11.4,1.6-17.2,0.1c-0.6-0.2-0.9,0.8-0.3,1c5.9,1.5,11.8,1.5,17.7-0.1
			C743.9,241.7,743.7,240.7,743,240.9L743,240.9z"/>
	</g>
</g>
<g>
	<g>
		<path class="st5" d="M671.5,51.7c-2.1-3.2-4.8-5.8-8-8c-0.5-0.4-1.1,0.5-0.5,0.9c3,2.1,5.6,4.6,7.6,7.6
			C671,52.7,671.9,52.2,671.5,51.7L671.5,51.7z"/>
	</g>
</g>
<g>
	<g>
		<path class="st5" d="M653.1,35c-3.8-1.7-7.6-3.4-11.4-5.1c-0.6-0.3-1.1,0.6-0.5,0.9c3.8,1.7,7.6,3.4,11.4,5.1
			C653.1,36.2,653.7,35.3,653.1,35L653.1,35z"/>
	</g>
</g>
<g>
	<g>
		<path class="st5" d="M633.5,26.1c-3.2-0.6-6.4-0.8-9.7-0.5c-0.7,0.1-0.7,1.1,0,1c3.2-0.3,6.3-0.2,9.4,0.4
			C633.9,27.2,634.2,26.2,633.5,26.1L633.5,26.1z"/>
	</g>
</g>
<g>
	<g>
		<path class="st5" d="M615.1,25.3c-1.1,0.7-2.3,1.1-3.6,1.3c-0.6,0.1-0.4,1.1,0.3,1c1.4-0.2,2.7-0.7,3.9-1.4
			C616.2,25.8,615.7,25,615.1,25.3L615.1,25.3z"/>
	</g>
</g>
<g>
	<g>
		<path class="st5" d="M678.2,142.4c-2,2.8-4.1,5.5-6.5,8c-0.5,0.5,0.3,1.2,0.7,0.7c2.4-2.6,4.6-5.3,6.7-8.2
			C679.4,142.4,678.6,141.9,678.2,142.4L678.2,142.4z"/>
	</g>
</g>
<g>
	<g>
		<path class="st5" d="M666.2,153.4c-1.6,0.6-3.2,1.1-4.8,1.7c-0.6,0.2-0.4,1.2,0.3,1c1.6-0.6,3.2-1.1,4.8-1.7
			C667.1,154.2,666.8,153.2,666.2,153.4L666.2,153.4z"/>
	</g>
</g>
<g>
	<g>
		<path class="st5" d="M547.6,96.6c-0.9,3.4-1.2,6.8-0.9,10.3c0.1,0.7,1.1,0.7,1,0c-0.3-3.4,0-6.8,0.9-10.1
			C548.7,96.3,547.7,96,547.6,96.6L547.6,96.6z"/>
	</g>
</g>
<g>
	<g>
		<path class="st5" d="M548.4,123.1c0.6,2.7,1.2,5.5,1.9,8.2c0.2,0.6,1.1,0.4,1-0.3c-0.6-2.7-1.2-5.5-1.9-8.2
			C549.2,122.2,548.3,122.5,548.4,123.1L548.4,123.1z"/>
	</g>
</g>
<g>
	<g>
		<path class="st5" d="M560.4,145.4c2,2,4,3.9,6,5.9c0.5,0.5,1.2-0.3,0.7-0.7c-2-2-4-3.9-6-5.9C560.7,144.2,560,144.9,560.4,145.4
			L560.4,145.4z"/>
	</g>
</g>
</svg>
