<?xml version="1.0" encoding="utf-8"?>
<!-- Generator: Adobe Illustrator 21.0.0, SVG Export Plug-In . SVG Version: 6.00 Build 0)  -->
<svg version="1.1" id="Layer_1" xmlns="http://www.w3.org/2000/svg" xmlns:xlink="http://www.w3.org/1999/xlink" x="0px" y="0px"
	 viewBox="0 0 1366 768" style="enable-background:new 0 0 1366 768;" xml:space="preserve">
<style type="text/css">
	.st0{fill:none;stroke:#696F8E;stroke-miterlimit:10;}
	.st1{fill:#8891D5;}
	.st2{fill:#BBDBC3;}
	.st3{fill:#696F8E;}
	.st4{opacity:0.57;}
	.st5{fill:#F4D2C4;}
	.st6{fill:none;stroke:#F6A73D;stroke-width:1.3;stroke-miterlimit:10;}
	.st7{fill:#F6A73D;}
	.st8{fill:none;stroke:#F6A73D;stroke-width:0.25;stroke-miterlimit:10;}
	.st9{fill:none;stroke:#F6A73D;stroke-miterlimit:10;}
	.st10{fill:none;stroke:#F6A73D;stroke-width:0.75;stroke-miterlimit:10;}
</style>
<path class="st0" d="M532.3,360.8c4.4,0.6,10.4,0.7,16.7-1.5c1-0.3,2-0.7,2.9-1.2c-0.1,1-0.4,2.6-1.4,4.2c-2.3,3.6-6.3,4.3-7,4.4"/>
<path class="st0" d="M536,338.3c-1.6,2.7-2.6,5.1-3.2,6.8c-1,3-0.9,4.1-0.4,5c0.8,1.4,2.3,1.8,2.4,1.8c1.5,0.4,2.8-0.3,3-0.4"/>
<g id="Layer_66">
	<path class="st1" d="M581.5,351.2c-1.2,2.1-3,5-5.7,8c-6.3,7.2-13,10.6-15,11.6c-7.5,3.6-14,4.2-15.6,4.3
		c-2.1,0.2-9.5,0.6-18.2-2.7c-8.5-3.1-13.7-8-16.9-11.1c-4.5-4.3-7.5-8.5-9.4-11.6c-4.1,3.5-7.3,7-9.9,10c-3.6,4.2-6,7.9-7.6,10.3
		c-1,1.6-3.3,5.4-5.6,10.5c-0.9,2-4.8,10.8-7.1,23.4c-1.2,6.6-2.2,15.9-1.4,27.1c10.8-0.5,21.6-0.9,32.4-1.4
		c0.3,2.1,0.5,4.3,0.8,6.4c5.7,1.2,12,2.8,18.8,5.1c4.6,1.5,8.8,3.2,12.7,4.9c0-0.8-0.1-12.1-0.1-12.9c-0.1-9.9-1.5-16-0.2-25.5
		c0.2-1.5,0.4-2.8,0.6-3.5c0.8-0.6,2.2-1.5,4.1-2c2.6-0.7,4.8-0.2,5.5,0c2.6,0.6,8,1,20.3,0.3c0.9,0.8,2.1,2.1,2.6,4
		c0.4,1.5,0.2,2.7,0,4.7c-0.2,2.2,0,4.4,0,6.6c0,4.5,0,8.9,0,13.4c0,4.6-0.4,9.2,0,13.8c0,0.2,0.1,0.5,0,0.9
		c-0.2,1.8-1.7,2.7-1.4,3.2c0.1,0.3,0.9,0.5,2.3,0.2c4.4-0.9,24.7-8.3,30.2-10.2c-0.5-3.3-1.1-6.5-1.6-9.8c3.5-0.9,7.2-1.7,11.1-2.4
		c8.7-1.6,16.8-2.3,24-2.6c-0.6-2.7-1.5-6.5-2.6-11.1c-1.6-6.4-2.7-10.5-4.4-15.5c-1.1-3.2-2.6-7.3-5.1-12
		c-4.2-7.9-8.9-12.8-13.7-17.8c-5.3-5.6-10.1-10.4-17.9-13.9c-1.5-0.7-2.9-1.2-3.7-1.5"/>
</g>
<g>
	<g>
		<path class="st2" d="M756.2,527.9c6.9-15.9,18.7-25.5,34-32.9c13.8-6.6,23.7-16.8,33.2-28.6c0.9-1.1-0.7-2.6-1.5-1.5
			c-5.1,6.2-10.3,12.4-16.3,17.7c-7.4,6.4-15.7,9.8-24.2,14.3c-12.3,6.6-21.5,17.1-27,29.8C753.8,528.1,755.7,529.2,756.2,527.9
			L756.2,527.9z"/>
	</g>
</g>
<g>
	<g>
		<path class="st2" d="M821.9,468.1c3.3,22.3-1.4,45.4-14.1,64.1c-5.3,7.8-11.9,14.8-19.4,20.6c-6.5,5-23.5,17.9-31.5,11.4
			c-1.1-0.9-2.6,0.7-1.5,1.5c7,5.7,16.7-0.1,23.3-3.9c10.4-5.8,19.5-13.7,26.9-23c16-20.2,22.1-46,18.4-71.3
			C823.8,466.1,821.7,466.7,821.9,468.1L821.9,468.1z"/>
	</g>
</g>
<g>
	<g>
		<path class="st2" d="M800.3,496.4c-4.8,11.7-11.7,22-20.7,30.9c-1,1,0.5,2.5,1.5,1.5c9.3-9.1,16.4-19.8,21.3-31.9
			C803,495.7,800.9,495.1,800.3,496.4L800.3,496.4z"/>
	</g>
</g>
<g>
	<g>
		<path class="st2" d="M790.9,554.2c9-4,21.1,2.4,29.9,4.8c7.2,2,14.2,3.2,21.7,2.8c1.4-0.1,1.4-2.3,0-2.2
			c-11.7,0.7-22.2-3.2-33.2-6.4c-6.6-1.9-12.9-3.9-19.5-0.9C788.5,552.9,789.6,554.8,790.9,554.2L790.9,554.2z"/>
	</g>
</g>
<g>
	<g>
		<path class="st2" d="M840.3,561c-8.3,13.6-21.6,23.4-37.4,26.3c-15.4,2.8-43.1-1-47.1-19.5c-0.3-1.4-2.4-0.8-2.1,0.6
			c3.9,17.7,28.3,22.9,43.6,21.8c18.8-1.3,35.2-12.2,44.9-28.1C842.9,560.9,841,559.9,840.3,561L840.3,561z"/>
	</g>
</g>
<g>
	<g>
		<path class="st2" d="M780.7,574.8c9,5.1,22.7,0.8,31.2-3.6c1.2-0.6,0.1-2.5-1.1-1.9c-7.7,3.9-20.7,8.2-29,3.6
			C780.6,572.3,779.5,574.1,780.7,574.8L780.7,574.8z"/>
	</g>
</g>
<g>
	<g>
		<path class="st3" d="M558.8,268.3c7,10.2,10.3,21.7,9.8,34.1c-0.1,1.4,2.1,1.4,2.2,0c0.5-12.7-3-24.7-10.1-35.2
			C559.9,266.1,558,267.2,558.8,268.3L558.8,268.3z"/>
	</g>
</g>
<g>
	<g>
		<path class="st3" d="M543.6,275.1c0.9,8.9,1.7,17.9,2.2,26.8c0.1,1.4,2.3,1.4,2.2,0c-0.6-9-1.3-17.9-2.2-26.8
			C545.6,273.7,543.5,273.7,543.6,275.1L543.6,275.1z"/>
	</g>
</g>
<g>
	<g>
		<path class="st3" d="M529.1,271.4c-3.4,9.5-5.3,19.3-5.7,29.4c-0.1,1.4,2.1,1.4,2.2,0c0.4-9.9,2.3-19.5,5.6-28.9
			C531.7,270.6,529.6,270,529.1,271.4L529.1,271.4z"/>
	</g>
</g>
<g>
	<g>
		<path class="st3" d="M510.8,271.7c-4.8,9.1-7.6,18.9-8.5,29.1c-0.1,1.4,2,1.4,2.2,0c0.9-9.9,3.6-19.2,8.2-28
			C513.3,271.5,511.4,270.4,510.8,271.7L510.8,271.7z"/>
	</g>
</g>
<g class="st4">
	<path class="st5" d="M574.3,594.6c19.8,12.3,43,18.7,61.9,32.3c18.9,13.6,33.2,38.7,23.8,60c-3.2,7.4-9,13.4-15.1,18.7
		c-35.9,30.9-90.3,38.2-133.1,17.9c-42.8-20.3-71.6-67-70.5-114.3c0.3-14.8,3.5-29.9,11.8-42.1c6.1-9,14.6-16.1,24.1-21.4
		c22-12.2,52.3-12.9,70,4.9c6.1,6.1,10.2,13.9,15.1,21c19.8,28.9,51.4,47.1,81.9,64.4"/>
</g>
<g>
	<g>
		<path class="st3" d="M570.9,334.2c-5.6-4.1-13-4.2-18.7-0.4c-0.7,0.5,0,1.6,0.7,1.1c5.4-3.6,12.1-3.5,17.4,0.4
			C571,335.8,571.6,334.7,570.9,334.2L570.9,334.2z"/>
	</g>
</g>
<g>
	<g>
		<path class="st3" d="M526.6,336.8c-2.9-6-13.6-3.5-17.6-0.2c-0.6,0.5,0.3,1.5,0.9,0.9c3.2-2.8,13.1-5.2,15.6-0.1
			C525.9,338.3,527,337.6,526.6,336.8L526.6,336.8z"/>
	</g>
</g>
<g>
	<path class="st3" d="M560.1,332c0.9-0.5,2.1-0.2,2.9,0.4c0.8,0.6,1.2,1.6,1.4,2.6c0.2,0.9,0.1,2-0.4,2.8c-0.8,1.4-2.7,2.1-4.2,1.5
		c-1.5-0.6-2.6-2.2-2.5-3.8c0.1-1.6,1.2-3.1,2.7-3.8"/>
</g>
<g>
	<path class="st3" d="M518,333.9c1-0.5,2.2,0.1,2.9,0.9c1.2,1.3,1.9,3.4,1,5c-0.8,1.4-2.6,2-4.1,1.4s-2.4-2.2-2.3-3.7
		c0.1-1.6,1.3-3,2.8-3.5"/>
</g>
<path class="st6" d="M592.7,197h-81.1c-4.6,0-8.4-3.7-8.4-8.4V64.5c0-4.6,3.7-8.4,8.4-8.4h81.1c4.6,0,8.4,3.7,8.4,8.4v124.1
	C601.1,193.2,597.3,197,592.7,197z"/>
<g>
	<g>
		<path class="st7" d="M527.2,81c2.4-0.7,4,2.9,3.9,4.8c-0.2,2.3-2.2,3.9-4.4,3.9c-4.8,0.2-4.4-8,0.1-8.5c0.8-0.1,0.8-1.4,0-1.3
			c-3.2,0.3-4.9,2.9-4.7,6c0.2,3.2,1.8,5.4,5.2,5c3-0.4,5.2-2.7,5.1-5.8c-0.1-2.7-2.5-6.2-5.5-5.4C526.1,79.9,526.4,81.2,527.2,81
			L527.2,81z"/>
	</g>
</g>
<g>
	<g>
		<path class="st7" d="M529.5,89c2.1,4.4,4.4,8.7,4.2,13.7c0,0.8,1.3,0.8,1.3,0c0.2-5.2-2.2-9.8-4.4-14.4
			C530.3,87.6,529.2,88.3,529.5,89L529.5,89z"/>
	</g>
</g>
<g>
	<g>
		<path class="st7" d="M523.3,89.8c-2.4,4.2-2.5,9.6-2.7,14.3c0,0.8,1.3,0.8,1.3,0c0.2-4.5,0.3-9.7,2.5-13.6
			C524.8,89.7,523.7,89.1,523.3,89.8L523.3,89.8z"/>
	</g>
</g>
<g>
	<g>
		<path class="st7" d="M533.1,94c0.6-3.6,2.6-6.7,5.6-8.8c0.7-0.5,0-1.6-0.7-1.1c-3.2,2.3-5.5,5.6-6.2,9.6
			C531.7,94.5,533,94.9,533.1,94L533.1,94z"/>
	</g>
</g>
<g>
	<g>
		<path class="st7" d="M542.6,75.4c3.1-0.8,5.2,2.2,4.6,5.1c-0.5,2.3-2.3,4.5-4.7,4.9c-3.5,0.6-5.1-2.4-4.3-5.4
			c0.6-2.5,2.2-4.1,4.7-4.7c0.8-0.2,0.5-1.4-0.3-1.2c-3.7,0.8-5.8,4-5.9,7.7c-0.1,3.4,3.2,5.7,6.5,4.9c3.3-0.8,5.7-4.3,5.5-7.7
			c-0.2-3.2-3.2-5.6-6.4-4.8C541.4,74.3,541.8,75.6,542.6,75.4L542.6,75.4z"/>
	</g>
</g>
<g>
	<g>
		<path class="st7" d="M544.7,85.5c1.7,1.1,3.2,2.4,4.3,4.1c0.9,1.4,1.3,3.2,2.3,4.5c0.5,0.7,1.6,0,1.1-0.7c-1.2-1.7-1.7-3.7-3-5.4
			c-1.1-1.5-2.6-2.7-4.1-3.7C544.6,84,543.9,85.1,544.7,85.5L544.7,85.5z"/>
	</g>
</g>
<g>
	<g>
		<path class="st7" d="M556.6,80.3c4.7-0.4,4.6,7.2,0.1,7.7c-5.7,0.6-4.1-8.9,0.1-7.5c0.8,0.2,1.1-1,0.3-1.2c-3-0.9-5.2,2.1-5.5,4.7
			c-0.4,2.7,1.7,5.3,4.5,5.4c2.7,0.1,5-2,5.3-4.6c0.3-2.8-1.7-6-4.8-5.7C555.7,79.1,555.7,80.4,556.6,80.3L556.6,80.3z"/>
	</g>
</g>
<g>
	<g>
		<path class="st7" d="M559.4,88.2c2.5,3.5,3.9,7.4,4.3,11.7c0.1,0.8,1.4,0.8,1.3,0c-0.3-4.5-1.8-8.7-4.4-12.4
			C560.1,86.8,558.9,87.5,559.4,88.2L559.4,88.2z"/>
	</g>
</g>
<g>
	<g>
		<path class="st7" d="M553.2,88c-1.9,3.9-2.7,8.2-2.1,12.5c0.1,0.8,1.4,0.8,1.3,0c-0.5-4.1,0.1-8.1,1.9-11.9
			C554.7,87.9,553.5,87.3,553.2,88L553.2,88z"/>
	</g>
</g>
<g>
	<g>
		<path class="st7" d="M570,75.4c3.4-2,7,1.7,5.4,5.2c-1.1,2.4-3.9,2.9-5.6,0.7C568.6,79.4,568.3,76.8,570,75.4
			c0.7-0.6-0.2-1.5-0.8-1c-5.1,4.1,2.1,13.6,6.7,7.9c3.5-4.4-1.4-11-6.5-8C568.6,74.7,569.3,75.8,570,75.4L570,75.4z"/>
	</g>
</g>
<g>
	<g>
		<path class="st7" d="M574.9,83.5c3.7,4.6,4.1,10.3,4.4,16c0,0.8,1.3,0.8,1.3,0c-0.2-6.1-0.8-12-4.7-16.9
			C575.3,81.9,574.4,82.9,574.9,83.5L574.9,83.5z"/>
	</g>
</g>
<g>
	<g>
		<path class="st7" d="M568.5,81.3c-3.3,3.3-4.7,9.4-4.9,13.9c0,0.8,1.3,0.8,1.3,0c0.2-4.2,1.5-9.9,4.6-12.9
			C570,81.7,569.1,80.7,568.5,81.3L568.5,81.3z"/>
	</g>
</g>
<g id="boy_3">
	<path class="st0" d="M584.1,318.9c6.5-1,12.3,2.9,13.5,7.8c1.4,5.8-3.5,13.1-11.6,13.7c-1.2,4.3-4.7,14.5-14.5,23.1
		c-3,2.7-12.8,11-27.8,11.6c-17.4,0.7-29.2-9.5-32.8-13c-9-8.6-12-18.5-13.2-22.9c-4.4-0.5-7.9-3.7-8.6-7.5
		c-0.8-4.8,2.9-10,8.6-10.8"/>
</g>
<g id="Layer_26">
	<path class="st0" d="M587.6,317.3c-7.8,2.5-16.4,4.8-26,6.2c-27.7,4.3-51.5,0.5-68.5-4.1c-0.7-0.5-1.2-1.1-1.7-1.7
		c-3.5-4.9-0.9-12.6-0.6-13.6c14.4,3.2,32.8,5.7,54.2,4.7c15.2-0.7,28.7-3.1,40-5.9c0.9,0.6,2.9,1.9,3.9,4.6
		c0.5,1.3,0.6,2.5,0.8,4.3c0.2,2.7-0.2,3.5-0.3,3.8C588.9,316.6,588.1,317.1,587.6,317.3z"/>
</g>
<rect x="660.2" y="132.9" class="st6" width="32.5" height="40.3"/>
<rect x="743.2" y="194" class="st6" width="32.5" height="40.3"/>
<rect x="664.4" y="250.9" class="st6" width="32.5" height="40.3"/>
<rect x="818.9" y="267.8" class="st6" width="32.5" height="40.3"/>
<rect x="784.3" y="124.7" class="st6" width="32.5" height="40.3"/>
<rect x="751.1" y="325.1" class="st6" width="32.5" height="40.3"/>
<rect x="848.5" y="185.6" class="st6" width="32.5" height="40.3"/>
<g id="Layer_37">
	<g>
		<g>
			<path class="st7" d="M675.9,130.9c1.4,0,1.4-2.2,0-2.2C674.5,128.7,674.5,130.9,675.9,130.9L675.9,130.9z"/>
		</g>
	</g>
	<g>
		<g>
			<path class="st7" d="M682,249.2c1.4,0,1.4-2.2,0-2.2C680.7,247,680.6,249.2,682,249.2L682,249.2z"/>
		</g>
	</g>
	<g>
		<g>
			<path class="st7" d="M760.2,191.8c1.4,0,1.4-2.2,0-2.2C758.8,189.6,758.8,191.8,760.2,191.8L760.2,191.8z"/>
		</g>
	</g>
	<g>
		<g>
			<path class="st7" d="M801,122.7c1.4,0,1.4-2.2,0-2.2C799.6,120.5,799.6,122.7,801,122.7L801,122.7z"/>
		</g>
	</g>
	<g>
		<g>
			<path class="st7" d="M836,265c1.4,0,1.4-2.2,0-2.2C834.6,262.8,834.6,265,836,265L836,265z"/>
		</g>
	</g>
	<g>
		<g>
			<path class="st7" d="M767.5,322.4c1.4,0,1.4-2.2,0-2.2C766.1,320.2,766.1,322.4,767.5,322.4L767.5,322.4z"/>
		</g>
	</g>
	<g>
		<g>
			<path class="st7" d="M866.3,182.8c1.4,0,1.4-2.2,0-2.2C864.9,180.6,864.9,182.8,866.3,182.8L866.3,182.8z"/>
		</g>
	</g>
	<line class="st8" x1="801" y1="121.6" x2="866.3" y2="181.7"/>
	<line class="st8" x1="801" y1="121.6" x2="760.2" y2="190.7"/>
	<line class="st8" x1="760.2" y1="190.7" x2="675.9" y2="129.8"/>
	<line class="st8" x1="760.2" y1="190.7" x2="682" y2="248.1"/>
	<line class="st8" x1="836" y1="263.9" x2="866.3" y2="181.7"/>
	<line class="st8" x1="760.2" y1="190.7" x2="836" y2="263.9"/>
	<line class="st8" x1="801" y1="121.6" x2="767.5" y2="321.3"/>
	<line class="st8" x1="682" y1="248.1" x2="767.5" y2="321.3"/>
	<line class="st8" x1="760.2" y1="190.7" x2="767.5" y2="321.3"/>
	<line class="st8" x1="675.9" y1="129.8" x2="682" y2="248.1"/>
	<path class="st9" d="M748.1,451.1h-79.4c-3.6,0-6.5-2.9-6.5-6.5v-38c0-3.6,2.9-6.5,6.5-6.5h79.4c3.6,0,6.5,2.9,6.5,6.5v38
		C754.7,448.2,751.7,451.1,748.1,451.1z"/>
	<path class="st9" d="M709.9,374.7c8.5,0,17,0,25.4,0c-8.4,8.4-16.9,16.9-25.3,25.3"/>
	<path class="st9" d="M710.4,374.7c-7.3,7.3-18.2,17.6-25.5,24.9"/>
	<path class="st10" d="M564.5,118.9h-52.1c-1.2,0-2.3-1-2.3-2.3v-1.4c0-1.2,1-2.3,2.3-2.3h52.1c1.2,0,2.3,1,2.3,2.3v1.4
		C566.8,117.9,565.8,118.9,564.5,118.9z"/>
	<path class="st10" d="M564.5,129.4h-52.1c-1.2,0-2.3-1-2.3-2.3v-1.4c0-1.2,1-2.3,2.3-2.3h52.1c1.2,0,2.3,1,2.3,2.3v1.4
		C566.8,128.4,565.8,129.4,564.5,129.4z"/>
	<path class="st10" d="M564.9,138.8h-52.1c-1.2,0-2.3-1-2.3-2.3v-1.4c0-1.2,1-2.3,2.3-2.3h52.1c1.2,0,2.3,1,2.3,2.3v1.4
		C567.2,137.7,566.2,138.8,564.9,138.8z"/>
	<path class="st10" d="M521.2,104.1l58.7-1.4c0-1.4,0-2.9,0-4.3"/>
</g>
<g id="Layer_27">
	<path class="st0" d="M585.1,302c0.7-4.4,1.4-13.3-2.9-22.8c-8.4-18.9-29-23.6-32.5-24.4c-16.8-3.8-30.9,2.7-33,3.7
		c-4.9,2.3-16.2,7.6-22.4,20.6c-4.9,10.2-4,19.8-3.4,23.9"/>
	<path class="st0" d="M581.5,351.2c6.7,3,20.5,10.4,32,25.8c9.5,12.7,12.9,28.1,15.6,38.4c0.9,3.5,1.5,6.5,1.9,8.6
		c-5.6,0.3-11.6,1-18.1,1.9c-6.6,1-12.6,2.3-18.1,3.6c-1.3-5.7-2.6-11.3-3.9-17"/>
</g>
<g id="Layer_28">
	<path class="st0" d="M627.1,424.3c1.1,8.5,2.3,18.3,3.4,26.8"/>
</g>
<g id="Layer_29">
	<path class="st0" d="M501.4,349c-5.3,4.4-11.2,10.5-16.7,18.6c-14.2,21.2-15.7,43.2-15.6,53.6c0,0.1,0,2.3,0,5.2c0,1.9,0,3.4,0,4.5
		c4.9-0.1,9.8-0.2,14.8-0.3c6.4-0.1,12.6-0.3,18.9-0.5c0.3-5.3,0.5-10.6,0.8-15.9"/>
	<path class="st0" d="M596.2,429.3c0.5,3.3,0.9,6.6,1.4,9.9c-4.5,1.2-9.1,2.6-13.8,4c-5.4,1.7-16,6.1-20.9,7.9"/>
</g>
<g id="Layer_30">
	<path class="st0" d="M501.5,429.6c0.1,2.4,0.3,4.8,0.4,7.2c5.5,0.9,11.6,2.2,18,3.9c7.6,2.1,20.8,7.9,26.8,10.3"/>
	<path class="st0" d="M472.5,430.9c-0.7,2-0.1,7.7,0.4,12.4c0.5,4.5,0.6,6.1,1.7,7.9"/>
</g>
<g id="Layer_31">
	<rect x="466.7" y="451.1" class="st6" width="313.1" height="28.1"/>
</g>
<g id="Layer_32">
	<path class="st0" d="M533.7,445.9v-39.5c0-2.4,1.9-4.4,4.4-4.4h24.1c2.4,0,4.4,1.9,4.4,4.4v39.5c0,2.4-1.9,4.4-4.4,4.4l-17.9,0"/>
</g>
<g id="Layer_33">
	<path class="st6" d="M740.1,662.9h-234c-8.1,0-14.6-6.5-14.6-14.6V479h263.2v169.3C754.7,656.4,748.1,662.9,740.1,662.9z"/>
</g>
</svg>
