<?xml version="1.0" encoding="utf-8"?>
<!-- Generator: Adobe Illustrator 21.0.0, SVG Export Plug-In . SVG Version: 6.00 Build 0)  -->
<svg version="1.1" id="Layer_1" xmlns="http://www.w3.org/2000/svg" xmlns:xlink="http://www.w3.org/1999/xlink" x="0px" y="0px"
	 viewBox="0 0 1366 768" style="enable-background:new 0 0 1366 768;" xml:space="preserve">
<style type="text/css">
	.st0{fill:none;stroke:#696F8E;stroke-miterlimit:10;}
	.st1{fill:#BBDBC3;stroke:#BBDBC3;stroke-miterlimit:10;}
	.st2{fill:#BBDBC3;}
	.st3{opacity:0.57;}
	.st4{fill:#F4D2C4;}
	.st5{fill:#696F8E;}
	.st6{fill:none;stroke:#F6A73D;stroke-width:1.3;stroke-miterlimit:10;}
</style>
<path class="st0" d="M852.4,180.8c1.1,3.7,2.3,6.5,3.2,8.4c1.3,2.6,2.1,3.9,1.8,5.5c-0.5,2.3-2.9,3.6-4.5,4.3"/>
<path class="st0" d="M863.2,208.5c-0.3,0.4-3.3,4.6-8.8,4.6c-5.2,0-8.2-3.7-8.5-4.2"/>
<g id="Layer_67">
	<path class="st1" d="M886.6,204.1c3.9,0.9,9.3,2.5,15.3,5.3c16.1,7.6,25.1,19.1,29.8,25.2c14.9,19.3,18.8,39.9,20,50.5
		c-12.9,4-23.4,5.6-30.9,6.3c-5.7,0.6-9.7,0.6-16.5,2.2c-8.6,2-15.3,5.1-19.8,7.5c-6.7,3.6-11.9,7.6-15.8,11.1
		c-13.1-0.9-26.2-1.9-39.3-2.8c-14.2,3.5-28.5,7.1-42.7,10.7c-4.3-13.1-8.6-26.2-13-39.3c1-8.9,1.4-19.5-0.1-31.1
		c-0.4-3.4-1-6.7-1.6-9.8c1.5-3.9,4.2-9.8,9.5-15.7c6.6-7.3,13.5-10.7,15.9-11.7c7.5-3.4,14.3-4.1,18.4-4.2c2.4,3.1,5.4,6.5,9.1,9.8
		c1.6,1.4,3.7,1.9,5,4.1c1.3,2.2,0.8,3.8,2.4,6c0.3,0.4,1.1,1.6,4,3.3c2.4,1.5,5.3,3.2,9.3,3.9c7.3,1.3,13.1-1.8,15-2.8
		c4.5-2.4,7.1-5.7,8-6.9c1.4-1.8,2.2-3.6,2.8-4.9c2.4-1.6,5.2-3.9,8-6.8c2.5-2.6,4.3-5.2,5.7-7.4"/>
	<path class="st1" d="M926.8,319.1c2.4,22,4.9,44.1,7.3,66.1c-6.5,3.3-15.6,7.4-26.8,10.9c-28.7,9-52.7,8.3-62.6,7.6
		c-7.9-0.5-18.3-1.8-30.5-4.9c-1.5-19.5-3-38.9-4.4-58.4c6.4,0,13-0.2,20-0.7c11.9-0.9,33.1-3.6,47.3-7.6c3.6-1,7-2.2,12.1-2.3
		c3.8-0.1,5.7,0.4,10.2-0.2c3.6-0.5,6.3-1.3,7.7-1.8c3.1-1.1,6.8-2.4,9.8-5.8c0.8-0.9,1.3-1.6,1.7-2.1"/>
</g>
<g>
	<g>
		<path class="st2" d="M721.3,234.3c-4.3-13.8-13.2-24.6-22.5-35.3c-12.2-14-22.8-28.6-31.2-45.2c-0.7-1.5-3-0.2-2.2,1.3
			c6.9,13.6,15.2,26.3,24.9,38c10.9,13.1,23.3,25.2,28.5,41.9C719.3,236.6,721.8,235.9,721.3,234.3L721.3,234.3z"/>
	</g>
</g>
<g>
	<g>
		<path class="st2" d="M664.9,154.4c-14,23.7-24.8,51.8-15.2,79.2c8.5,24.5,31.4,41.4,57.6,39c1.6-0.1,1.6-2.7,0-2.6
			c-27.5,2.5-51.1-17-57-43.5c-5.6-25.1,4.2-49.5,16.8-70.8C667.9,154.3,665.7,153,664.9,154.4L664.9,154.4z"/>
	</g>
</g>
<g>
	<g>
		<path class="st2" d="M695.7,241.7c-9.6-11.8-16.4-24.9-19.8-39.7c-0.4-1.6-2.8-0.9-2.5,0.7c3.5,15.2,10.6,28.8,20.4,40.9
			C694.9,244.8,696.7,243,695.7,241.7L695.7,241.7z"/>
	</g>
</g>
<g>
	<g>
		<path class="st2" d="M651.8,228.2c-5.3-4.8-11.7-7.7-17.9-11.3c-7.9-4.6-13.9-10.8-19.8-17.5c-1.1-1.2-2.9,0.6-1.8,1.8
			c5,5.6,10.1,11.2,16.4,15.5c7,4.7,15,7.7,21.3,13.3C651.2,231.1,653,229.3,651.8,228.2L651.8,228.2z"/>
	</g>
</g>
<g>
	<g>
		<path class="st2" d="M610.9,201.6c-9,30.9-17.6,66.8,4.7,94.3c8.6,10.6,20.8,18,33.9,21.5c7.4,2,15.1,2.7,22.7,2
			c9.2-0.8,31.3-7.5,33.8,7.2c0.3,1.6,2.7,0.9,2.5-0.7c-2-11.8-16.9-11.5-25.9-10.5c-18.4,2.1-34.4,1.8-50.7-8.5
			c-37.6-23.7-29-68.7-18.6-104.7C613.9,200.7,611.4,200,610.9,201.6L610.9,201.6z"/>
	</g>
</g>
<g>
	<g>
		<path class="st2" d="M439,619.6c2,3,3.1,6.2,3.1,9.8c0,1.6,2.6,1.7,2.6,0c0-4-1.2-7.8-3.5-11.1C440.3,617,438,618.2,439,619.6
			L439,619.6z"/>
	</g>
</g>
<g>
	<g>
		<path class="st2" d="M698.6,300.8c-3.2-8.9-11.1-13.2-19.4-16.9c-13.8-6.1-25.9-12.7-35-25.2c-1-1.3-3.2,0-2.2,1.3
			c5.7,7.8,12.6,14.2,21,19.1c10.9,6.3,28.4,9.1,33.1,22.4C696.7,303.1,699.1,302.4,698.6,300.8L698.6,300.8z"/>
	</g>
</g>
<g class="st3">
	<path class="st4" d="M828.4,507.8c-46.7-8.6-84.7,10.9-131.4,19.6c-31.9,5.9-64.3,13.1-91.7,30.3c-31.3,19.7-54.5,53.6-56.8,90.6
		c-2.3,36.9,18.7,75.4,52.9,89.5c17.4,7.2,36.8,8,55.6,8.2c48.2,0.5,97.6-2.3,142-21c44.4-18.7,83.5-55.8,93.3-103
		C902.2,574.8,875.1,519.6,828.4,507.8"/>
</g>
<g>
	<g>
		<path class="st5" d="M887,168.2c-5.8-4.1-12.7-4.4-19.6-3.8c-1,0.1-1,1.6,0,1.5c6.6-0.6,13.2-0.4,18.8,3.6
			C887,170.1,887.8,168.7,887,168.2L887,168.2z"/>
	</g>
</g>
<g>
	<g>
		<path class="st5" d="M843.6,164.6c-7.8-3-16.3-1.9-23,3.1c-0.8,0.6,0,1.9,0.8,1.3c6.4-4.8,14.3-5.9,21.8-3
			C844.1,166.5,844.5,165,843.6,164.6L843.6,164.6z"/>
	</g>
</g>
<g>
	<g>
		<path class="st5" d="M841.1,171.8c-5.6-3.1-12.5-2-16.8,2.7c-0.7,0.7,0.4,1.8,1.1,1.1c3.9-4.2,10-5.2,15-2.4
			C841.2,173.6,842,172.3,841.1,171.8L841.1,171.8z"/>
	</g>
</g>
<g>
	<g>
		<path class="st5" d="M881.8,172.3c-5-2.5-10.5-2.7-15.7-0.6c-0.9,0.4-0.5,1.9,0.4,1.5c4.8-2,9.8-1.9,14.5,0.4
			C881.9,174.1,882.7,172.7,881.8,172.3L881.8,172.3z"/>
	</g>
</g>
<g>
	<g>
		<path class="st5" d="M833,181.6c6.6,0,6.6-10.2,0-10.2C826.4,171.4,826.4,181.6,833,181.6L833,181.6z"/>
	</g>
</g>
<g>
	<g>
		<path class="st5" d="M874.4,181.1c6.6,0,6.6-10.2,0-10.2C867.8,170.9,867.7,181.1,874.4,181.1L874.4,181.1z"/>
	</g>
</g>
<rect x="709.9" y="234.7" class="st6" width="61.9" height="452.4"/>
<rect x="621.9" y="332.6" class="st6" width="61.9" height="355.8"/>
<rect x="537.9" y="404.3" class="st6" width="61.9" height="282.4"/>
<rect x="450.9" y="520.8" class="st6" width="61.9" height="167.7"/>
<g id="Layer_38">
	<path class="st0" d="M898.4,171.8c1.9,2.8,4,1.9,5.5,4.9c1.9,4.1,0.3,10.4-3.6,13.9c-3.5,3.1-7.6,3-8.9,2.9
		c-1.3,4.1-3.9,10.5-9.1,16.9c-3,3.7-12.7,15.1-28.9,16.4c-2.7,0.2-18.5,1.3-31.1-11.7c-9.6-9.8-11.5-21.7-12-25.5
		c-3.2,2.2-7.2,2.2-10.3,0c-3.3-2.3-4.8-6.5-4.2-10.1c0.8-5.1,5.5-9.1,11.2-8.9c-0.7-5.4-1.4-10.8-2.2-16.2c2-2.3,3.9-4.7,5.9-7
		c1.3,1.6,7.2,8.6,17.1,9.7c8.4,1,14.6-2.7,16.6-4c2.6-2.3,10-8,19.8-7.4c3.1,0.2,8.2,0.4,12.3,4.6c3.2,3.2,4.3,7.2,4.6,9.2
		c2.6-1.1,5.9-2.9,8.2-6.3c4.6-6.8,2.6-15.1,4.3-15.5c1.5-0.3,4.9,5.7,5.7,12.9C900.2,161,895,166.8,898.4,171.8z"/>
</g>
<g id="Layer_39">
	<path class="st0" d="M803.2,171.1c-2-4.6-4.7-12-5.5-21.5c-0.7-7.9-1.9-21.2,6-33.7c5.5-8.6,16-18,27.8-17.7
		c8.7,0.2,8.9,2,18.6,2.4c11.7,0.4,16.2-8.7,25.7-2.4c10.8,7.2,14.4,6,16,7.4c5.7,4.9,8.2,10.6,9.4,13.7c3.9,9.2,3.7,17.4,3.4,26.9
		c-0.2,6.6-1.2,16.1-4.5,27.3"/>
</g>
<g id="Layer_40">
	<path class="st0" d="M886.6,204.1c7.6,1.8,14,4.4,19.1,7.3c36.3,19.8,44.5,63.7,46.1,73.8c-10.3,2.1-20.6,4.2-30.9,6.3
		c-1.9-4.8-3.9-9.6-5.8-14.3"/>
	<path class="st0" d="M816.8,208.2c-4.7,0.1-12.9,0.8-21.6,5.4c-15.4,8-21.4,22.1-23,26.3"/>
	<path class="st0" d="M773.9,282.5c4.3,12.5,8.6,25,13,37.5c14-3.6,27.9-7.1,41.9-10.7c-3-9.1-6-18.2-9-27.3"/>
	<path class="st0" d="M872.2,219.9c-1.2,2.8-4.4,8.9-11.2,12.5c-8.3,4.3-20.5,4.2-26.4-2.7c-1.9-2.3-2.8-4.8-3.2-6.6"/>
</g>
<g id="Layer_41">
	<path class="st0" d="M828.8,309.3c8.1,0.3,16.8,0.9,26.1,2c14.8,1.8,28.1,4.6,39.8,7.7"/>
	<path class="st0" d="M794.2,318.2c1,5.2,3.4,12.9,9.8,17.7c7.9,6,17.6,4.7,35.5,2c19.6-3,36.2-5.8,49-8"/>
</g>
<g id="Layer_42">
	<path class="st0" d="M947.1,286.1c0.7,3.5,1.5,10.3-1.9,17.2c-5.2,10.7-12.3,17.3-26.8,16.1"/>
	<path class="st0" d="M920.9,291.5c-6.6,0.2-16.9,1.3-28.5,6c-10.9,4.5-18.8,10.4-23.6,14.7"/>
	<g>
		<g>
			<path class="st5" d="M894.4,319c2.4,0.9,4.2-4.9,4.8-6.3c0.8-1.8,1.7-3.8,2.8-5.5c0.5-1.2,1.5-1.5,2.9-0.9
				c0.1,0.7,0.1,1.5,0.1,2.2c0,1.5-0.2,2.9-0.6,4.3c-0.2,1,1.3,1.4,1.5,0.4c0.6-2.4,2-10.8-3.1-8.9c-1.8,0.7-2.8,2.9-3.6,4.4
				c-0.4,0.8-3.9,9.1-4.6,8.8C893.9,317.2,893.5,318.7,894.4,319L894.4,319z"/>
		</g>
	</g>
	<g>
		<g>
			<path class="st5" d="M906.3,313.1c2.3-1,3-4,3.9-6.1c0.6-1.4,1.1-2.7,1.6-4.1c0.3-0.9,1.4-5.7,2.3-5.8c1-0.2,0.6-1.6-0.4-1.5
				c-2,0.3-2.2,3.7-2.7,5.2c-0.7,2-1.5,4-2.3,6c-0.7,1.6-1.4,4.2-3.1,5C904.6,312.1,905.4,313.5,906.3,313.1L906.3,313.1z"/>
		</g>
	</g>
	<g>
		<g>
			<path class="st5" d="M914.4,296.9c0.2-0.2,0.4-0.3,0.6-0.5c-0.4,0-0.7,0-1.1,0c4.5,4.3-1.4,14.2-3.6,18.3
				c-0.5,0.9,0.9,1.6,1.3,0.8c2.6-4.8,8.6-15.2,3.4-20.1c-0.3-0.3-0.8-0.3-1.1,0c-0.2,0.2-0.4,0.3-0.6,0.5
				C912.6,296.5,913.7,297.6,914.4,296.9L914.4,296.9z"/>
		</g>
	</g>
	<g>
		<g>
			<path class="st5" d="M916.3,297.7c5.8,2.6,2.7,13.2,0.3,17.1c-0.5,0.8,0.8,1.6,1.3,0.8c2.8-4.6,5.7-16.2-0.9-19.2
				C916.2,296,915.4,297.3,916.3,297.7L916.3,297.7z"/>
		</g>
	</g>
	<g>
		<g>
			<path class="st5" d="M920.1,300.7c6.7,5.9,0,17.9-5.5,21.9c-0.8,0.6,0,1.9,0.8,1.3c6.3-4.6,13.2-17.7,5.8-24.3
				C920.5,299,919.4,300,920.1,300.7L920.1,300.7z"/>
		</g>
	</g>
	<g>
		<g>
			<path class="st5" d="M914.9,322.1c-4.5,4.1-10,6-16,6.4c-4.3,0.3-8.2-0.3-12.2,1.4c-0.9,0.4-0.5,1.9,0.4,1.5
				c5.3-2.2,11.6-0.8,17.2-2c4.4-1,8.3-3,11.7-6.1C916.7,322.5,915.6,321.4,914.9,322.1L914.9,322.1z"/>
		</g>
	</g>
</g>
<g id="Layer_43">
	<path class="st0" d="M927.7,319c2.1,22.1,4.3,44.2,6.4,66.3c-13.9,7-33.1,14.5-56.7,17.6c-25.9,3.3-47.8,0-63.1-3.9
		c-1.4-17.9-2.7-35.8-4.1-53.8"/>
</g>
<g id="Layer_44">
	<path class="st0" d="M934.1,385.3c14.6,60.8,25.2,105.4,30.7,125c1.2,4.1,4,14,1.6,25.9c-2.4,12-8.9,20.1-11.3,23.1
		c-12.6,15.9-38.6,52.5-73.7,102.1c-2.7,0.6-9.8,1.9-17.6-1.4c-4.4-1.9-7.5-4.6-9.2-6.5c17.5-43.1,35-86.1,52.6-129.2
		c-7.5-18.4-15-36.8-22.5-55.2"/>
	<path class="st0" d="M814.3,398.9c2.4,28.5,4.7,57,7.1,85.6"/>
</g>
<g id="Layer_45">
	<path class="st0" d="M821.2,481.7c1.3,27.6,5.5,61.5,15.8,99c6.5,23.4,14.2,44.1,22.1,61.9"/>
	<path class="st0" d="M884.7,469.2c2.6,28.2,4.7,56.8,6.3,85.8c0.1,2.8,0.3,5.6,0.4,8.4"/>
	<path class="st0" d="M878.1,662.1c-1.6,6.4-1.8,11.6-1.8,15.2c0.1,3.1,0.5,9.1,7.4,35.6c1.2,4.4,2.6,9.8,0.1,15
		c-1.4,3-3.7,5-5.3,6.2c-14.8-15.3-29.7-30.6-44.5-46c-0.5-1.2-2.1-6.1,0-11.6c2.6-6.8,8.9-9.2,9.9-9.5c3.6-4.5,7.2-8.9,10.8-13.4"
		/>
</g>
<path class="st0" d="M893.1,645.1c-0.9,6.5-0.6,14,3.7,20c2.3,3.2,5.5,5.8,26,14.3c15.5,6.4,20.3,7.7,21.9,12.6
	c1.9,5.7-1.3,13.9-1.4,14.3c-0.9,2.3-2,4.1-2.9,5.4c-19.7-4.8-39.4-9.5-59-14.3"/>
</svg>
