<svg xmlns="http://www.w3.org/2000/svg" viewBox="0 0 1131.6 643.27"><defs><style>.cls-1,.cls-2{fill:#fdeddf;}.cls-2{stroke:#fdeddf;}.cls-10,.cls-13,.cls-14,.cls-15,.cls-16,.cls-17,.cls-18,.cls-19,.cls-2,.cls-9{stroke-miterlimit:10;}.cls-3{fill:#8045dd;}.cls-4{fill:#f2a042;}.cls-10,.cls-13,.cls-15,.cls-16,.cls-19,.cls-5,.cls-9{fill:none;}.cls-6,.cls-7{fill:#f90;}.cls-6{opacity:0.72;}.cls-7{opacity:0.7;}.cls-8{fill:#fff;}.cls-9{stroke:#474747;}.cls-10,.cls-13,.cls-14,.cls-15,.cls-16,.cls-17,.cls-18,.cls-19{stroke:#214e8b;}.cls-11,.cls-14{fill:#214e8b;}.cls-12,.cls-17,.cls-18{fill:#00a38e;}.cls-13{stroke-width:2px;}.cls-15{stroke-width:0.75px;}.cls-16{stroke-width:9px;}.cls-18,.cls-19{stroke-width:1.3px;}</style></defs><title>Main Page</title><g id="Layer_14" data-name="Layer 14"><path class="cls-1" d="M1045.65,407.08c26.29,10,40.77,43.43,30.06,69.42-6.53,15.84-20.26,27.48-34.23,37.4-87,61.77-198.4,79.48-305.05,76.29s-211.77-25.34-318-35.63c-110.72-10.72-225.59-9.17-327.92-52.79-14.11-6-28.3-13.18-38.16-24.93S38,447.7,45,434.08s23.14-19.8,38.23-22.48c35.28-6.28,71.58.26,107.33-2.32,56.29-4,108.52-30.32,163.95-40.95,87-16.68,178.73,5.73,264.62-16,34.65-8.78,70.6-24.67,104.69-13.91a561.76,561.76,0,0,0,2.9,107.77c.74,5.95,1.84,12.41,6.31,16.4,3.76,3.35,9.09,4.17,14.1,4.77a447.34,447.34,0,0,0,68.36,2.84c16.46-.59,35.36-3.51,44-17.54,12.36-20.09-3.07-52.72,16-66.66,5.08-3.72,11.53-4.91,17.76-5.85a400.51,400.51,0,0,1,127.93,1.35c16.64,2.88,34.27,7.5,45.32,20.28,17.57,20.33,11.18,51.23,3.79,77.07"/><path class="cls-1" d="M1045,409.49c22.35,8.86,35.88,35.21,30.73,58.62-6.09,27.67-36,45.17-58.46,58.61-49.48,29.57-105.52,46.51-162.32,54.8-127.12,18.57-254.55-7-380.45-23.09-63.34-8.08-127-11.3-190.55-17.09C222,535.7,159.7,526.51,101.55,503.6c-24.71-9.74-60.34-25.61-57.31-58,2.95-31.59,47-33.87,70.6-34.28,32.37-.56,64.46,3.15,96.65-2,30.67-4.9,60.11-15.13,89.67-24.32,30.63-9.52,61.32-16.92,93.38-19.36s64.4-1.39,96.59-.85c31.63.53,63.39.6,94.8-3.62a329,329,0,0,0,46.48-9.87c15-4.3,30-9.14,45.41-11.92,15.15-2.73,30.51-3,45.36,1.44l-1.84-2.41a570.48,570.48,0,0,0-.41,71.26q1,17.79,3.19,35.5c.92,7.46,2.13,15.9,8.84,20.5,7.41,5.07,18.64,4.77,27.21,5.53q17.55,1.56,35.2,1.74c17.42.18,37.47,1.09,53.4-7.26,14.33-7.52,18.28-21.92,18.66-37.06.36-14.59-2.88-35.51,13.45-42.82,10.15-4.55,23-4.78,33.91-5.83q17.22-1.65,34.54-1.8a396.06,396.06,0,0,1,69.2,5.4c21.22,3.57,45.11,10,53.42,32.34,7.41,19.92,1.47,42.66-4.1,62.26-.88,3.11,3.94,4.43,4.82,1.33,4.88-17.19,9.37-35.49,6.88-53.47a49.08,49.08,0,0,0-28.75-38.72c-17.83-8.23-38.73-10.26-58-12.18a400.57,400.57,0,0,0-69.09-.9c-11,.8-22,2-32.81,3.76-8.27,1.37-16.39,3.87-21.73,10.73-9.18,11.76-6.14,28.79-6.78,42.63-.38,8-1.73,16.51-7.05,22.9-5.75,6.91-14.6,10.08-23.17,11.75-9.73,1.9-19.82,1.9-29.7,1.95q-17.62.1-35.22-1.18c-6.7-.49-13.39-1.09-20.05-1.92-5.87-.74-12-1.92-15.06-7.59-2.89-5.34-3-12.27-3.68-18.16q-1.06-9.62-1.8-19.27a570.25,570.25,0,0,1-.27-81.42,2.52,2.52,0,0,0-1.83-2.41c-30.75-9.28-62,1.42-91.62,10-32.8,9.46-66.15,13.3-100.22,14-66.54,1.26-133.46-6-198.78,10.49-31.35,7.92-61.66,19.41-93,27.53-15.91,4.13-32.09,7.39-48.49,8.71-17.54,1.42-35.15.56-52.71,0-17-.53-34-.76-50.92,1.57-12.63,1.75-25.75,4.93-36,12.92-22.32,17.4-14.1,48.38,5,64.67C68.68,495.1,81.91,501,95,506.34a442.88,442.88,0,0,0,45.5,15.73c30.51,8.78,61.79,14.56,93.24,18.75,65,8.65,130.56,10.56,195.7,17.35,69.79,7.28,139,19.21,208.71,27.07,64.44,7.27,129.55,11,194.2,4.11,58.69-6.23,117-20.83,169.51-48.31a354.93,354.93,0,0,0,38-23c11.26-7.83,22.37-16.36,30.6-27.47,14.58-19.71,14.58-46,.59-66.09a54.49,54.49,0,0,0-24.81-19.8c-3-1.19-4.29,3.64-1.33,4.82Z"/><path class="cls-2" d="M787,207.29a11.71,11.71,0,0,1,2.62,8.64,31.28,31.28,0,0,1-4,2.72,36.66,36.66,0,0,1-9.41,3.54,48.4,48.4,0,0,1-7.15,1.37c-3.14.36-4.3.18-5.35-.42a5.87,5.87,0,0,1-2.62-3.47,5.68,5.68,0,0,1,.67-4.13c1.16-1,2.86-2.4,4.91-4.18,4.42-3.85,5-4.59,6.35-5.32,2.06-1.14,5.56-2.09,11.5-.31"/><path class="cls-3" d="M820.6,132.36a97.05,97.05,0,0,1,8.68,4.79,84.72,84.72,0,0,1,10.11,7.28c4.45,3.76,5.87,5.81,6.32,6.48,1.46,2.17,2.74,4.08,3,6.83.46,4.91-2.68,8.67-3.78,10a18.38,18.38,0,0,1-5.55,4.4c-1.76.92-2.44.91-5,2a51.32,51.32,0,0,0-5.77,3.06c-2.21,1.27-5.41,3.06-9.59,5.16a4.39,4.39,0,0,1-3.21-.88,4.2,4.2,0,0,1-1.24-1.74,7.19,7.19,0,0,1-.13-3c0-1-.49-2.49-2.52-4.25,1.6-1.52,3.32-3.06,5.14-4.6,3.2-2.72,6.34-5.11,9.34-7.22a5.45,5.45,0,0,0-.16-2.78c-.49-1.45-1.43-2.05-2.13-3s-1.52-2.75-1.15-5.91c1.24,2.89,1.72,2.85,2,3.74.51,1.55.8,2.19,1.52,4.22.38,1.09-.09,3-.1,3.68-2.91,1.34-6.17,5.29-9.55,8.77a9.07,9.07,0,0,0-2.85,2.16c-.4.45-1.55-1.1-1.69-1.14s-.6-.45,0-8.27c.2-2.64.35-4-.59-5a4.34,4.34,0,0,0-2.4-1,11.67,11.67,0,0,0-5.11,0c4.82-6.88,6.38-10.61,6.86-12.76.12-.5.65-3,1.73-6.39.31-1,.58-1.75.76-2.24a26.93,26.93,0,0,1,3.34,0,25.61,25.61,0,0,1,4,.63Z"/><path class="cls-3" d="M783.26,133a25.84,25.84,0,0,0-6.17,2.33,16.77,16.77,0,0,0-5.24,3.72c-1.34,1.5-2.2,3.86-3.86,8.53-.9,2.51-.82,2.51-2.11,6.26-1.82,5.29-2.06,5.55-2.43,7.12a21.62,21.62,0,0,0-.41,8.87,12.51,12.51,0,0,0,2.37,6.24c.56.68,1.75,1.94,6.31,3.66,1.74.65,6.14,2.2,15.57,3.43,2,.27,3.72.44,4.79.54q1.42-4.29,2.84-8.6a44.11,44.11,0,0,0-10.64-4,43.15,43.15,0,0,0-7-1,15,15,0,0,0,.45-2.55,15.31,15.31,0,0,0,0-2.54,8.62,8.62,0,0,1-.3-8.23c-.17,2.11-2.5,4.34-2.14,5.39.7,2.11,1.66,2.25,1.56,3.94a11.7,11.7,0,0,0,.59,4.74c.52.82,4.66,0,5.18-.06,4.54-.8,5.76,3.39,12.33,4.34,1,.15,1.41-1.85,1.8-1.82V158.89a3,3,0,0,1,.76-1.87,3.27,3.27,0,0,1,2.93-.85,3.64,3.64,0,0,0,.72-1.79,4.38,4.38,0,0,0-2.28-4,15.77,15.77,0,0,0-.89-2.73c-1.32-3.08-3-4.28-4.28-6.26a13.51,13.51,0,0,1-2-7.21Z"/><path class="cls-4" d="M331,236a43.45,43.45,0,0,1,2.49,4.65A51.6,51.6,0,0,1,337,251.9c.78,3.42,2,8.44,3.65,15.1a20.48,20.48,0,0,0-4.47.76c-3.72,1.06-5.34,2.68-8.88,2.95a12.56,12.56,0,0,1-2.4,0,44.9,44.9,0,0,1,1.68,4.8,54.57,54.57,0,0,1,1.81,12.94,98.93,98.93,0,0,0,2,14.23,49.2,49.2,0,0,1-7.45,1.63,51.15,51.15,0,0,1-12.18.19,44.38,44.38,0,0,1-11.84-2.65,41.73,41.73,0,0,1-6.52-3.15c.13-1,.31-2.22.54-3.72.39-2.5,1.08-6.67,2.14-11.61.44-2,.43-1.82,3.19-12.76,1.1-4.36,1.9-7.53,3.16-12a64.34,64.34,0,0,1,2.58-7.87c2.75-6.59,5-8.05,6.12-8.63s1-.24,4.11-1c4.73-1.16,6-2.2,10.82-3.64C326.36,237.08,328.4,236.53,331,236Z"/></g><g id="Layer_12" data-name="Layer 12"><path class="cls-5" d="M760.65,220.63l1.73,2.11"/></g><g id="Layer_11" data-name="Layer 11"><path class="cls-6" d="M858.86,239.26l-.3-11.88a9.81,9.81,0,0,0-6.82-7L745.46,220a9.87,9.87,0,0,0-4.53,1.13,10,10,0,0,0-4,3.84,10.31,10.31,0,0,0-1.08,2.88c-.06,3.24-.12,6.49-.19,9.73v2.8Z"/><rect class="cls-6" x="740.01" y="251.53" width="52.65" height="46.61" rx="7.68"/><rect class="cls-2" x="799" y="250.92" width="52.65" height="46.61" rx="7.68"/><path class="cls-7" d="M858.86,406.69a55.68,55.68,0,0,1,0,10.66c-.52,5.33-1.49,6.95-2.3,7.94a10.13,10.13,0,0,1-5,3.18l-72.79.31-34.28,0a9.85,9.85,0,0,1-4.55-1.71,10.15,10.15,0,0,1-3.61-4.7c-.76-1.94-.65-3.46-.59-5.83s.11-5.66,0-9.84c3.13-.64,7.63-1,11.81,1.14,4.85,2.49,4.92,6.11,9.64,8.47,5.44,2.71,11.48,1,14.82,0,7.62-2.21,9.15-5.93,15.28-8.94,7.61-3.73,14.67-2.65,22.34-1.88C820.44,406.53,836,407.33,858.86,406.69Z"/><ellipse class="cls-6" cx="765.18" cy="409.57" rx="7.12" ry="6.7"/><text/><path class="cls-8" d="M772.49,219.48c-4.77,0-8.7.11-11.39.19a5.41,5.41,0,0,0,2.74,3.14c.67.29,1.23.31,3.4.33,2.54,0,3.81,0,4.26,0,4.34-.26,10.07-2.31,9.91-3.19"/><path class="cls-9" d="M768.53,409l-3.63-2.1a1.08,1.08,0,0,0-1.61.93V412a1.08,1.08,0,0,0,1.61.93l3.63-2.1A1.07,1.07,0,0,0,768.53,409Z"/><path class="cls-10" d="M772.08,275.58a8.93,8.93,0,0,0,3.67-9.17,8.58,8.58,0,0,0-16.69-.5c-1.44,4.82,2,8.66,2.17,8.84l.84,11,8.5-.17Q771.34,280.6,772.08,275.58Z"/><path class="cls-11" d="M768.59,285.07c.23-3.28.42-6.56.55-9.85,0-.8-1.22-.8-1.25,0-.13,3.29-.32,6.57-.55,9.85-.06.8,1.19.79,1.25,0Z"/><path class="cls-11" d="M768.87,275.19c1.92-2.3,4.17-6.41.51-8.39a3.18,3.18,0,0,0-4.51,3.86c.29.74,1.5.42,1.21-.34-.9-2.33,2.21-3.57,3.56-1.66s-.42,4.17-1.66,5.64c-.51.62.37,1.5.89.89Z"/><path class="cls-11" d="M765.08,270.89a1.51,1.51,0,0,0,2.5-.72,2.7,2.7,0,0,0-1.68-3.05c-1.43-.41-2.47.89-2.69,2.15a6.37,6.37,0,0,0,1.19,4.7c.46.65,1.55,0,1.08-.63a5.51,5.51,0,0,1-1.08-3,2.35,2.35,0,0,1,.41-1.78c.57-.39,1-.32,1.31.22A.8.8,0,0,1,766,270c-.6-.54-1.49.34-.89.88Z"/><path class="cls-11" d="M764.38,274.09c.68,1.77.32,4.08.31,5.93l0,5.78a.63.63,0,0,0,1.25,0l0-6.67c0-1.77.29-3.69-.35-5.37-.29-.74-1.5-.42-1.21.33Z"/><path class="cls-11" d="M818.81,262.15c6.65-2.89,15.86-1.64,19.73,5.21s.12,16.35-7.44,18.3c-7,1.81-15-.22-17.18-7.75-1.65-5.6-.25-12.54,4.89-15.76.68-.43.05-1.51-.63-1.08-6.22,3.9-7.65,12.77-4.76,19.25,3.3,7.39,12.77,8.69,19.75,6,7.16-2.77,10.14-12.06,6.78-18.9-3.93-8-14.24-9.61-21.77-6.34-.74.32-.1,1.39.63,1.08Z"/><path class="cls-11" d="M834.25,272.5c-3.87-1.75-7.08-4.61-11-6.32-.73-.32-1.37.76-.63,1.08,3.88,1.71,7.09,4.57,11,6.31.73.33,1.36-.74.63-1.07Z"/><path class="cls-11" d="M822.56,266.24c-1.4.88-1.09,2.84-1.17,4.29-.18,3.12-.29,6.24-.36,9.37a.63.63,0,0,0,1.25,0q.06-3,.19-5.92c0-1.08-.25-6.05.72-6.66.68-.43,0-1.52-.63-1.08Z"/><path class="cls-11" d="M833.32,273.25c-.12,1.37-4.26,2.86-5.4,3.43q-3.13,1.54-6.38,2.83c-.74.29-.42,1.5.33,1.2a90.39,90.39,0,0,0,8.27-3.76c1.63-.85,4.24-1.62,4.43-3.7.07-.8-1.18-.8-1.25,0Z"/><path class="cls-12" d="M958.57,267.39c1.46.21,3.77,2.13,5.73,4a58.28,58.28,0,0,1,9.28,10.46c1.14,1.77,3.31,6.93,6.43,19.06a118.83,118.83,0,0,1,3.67,28.22c.37,8.63-.22,14.56-3.5,18.81a13.15,13.15,0,0,1-6.3,4.77,11.72,11.72,0,0,1-5.72.44,12.12,12.12,0,0,1-8.85-7.29c-.61-1.63-.95-4-1.34-3.95-.18,0-.13.55-.49,1-.66.78-2.05.47-3.45.33-2.52-.24-2.06.38-7,.38-.63,0-1.73,0-3.15-.09-3.56-.22-4.65-.68-8.29-1.1a43.87,43.87,0,0,0-5.66-.36,27.79,27.79,0,0,0-6.89.53c-1.68.41-3,.95-4.76.56a7.06,7.06,0,0,1-2.1-.86l-1,9.6a19.52,19.52,0,0,1-4.32.74,20,20,0,0,1-3.87-.17,14.42,14.42,0,0,1-2.56-2.79c-4.82-6.91-2.46-17-1.32-21.89.55-2.38,1.06-3.77,1.61-7a60.76,60.76,0,0,0,.78-8.47,118.35,118.35,0,0,1,4-24.93c1.72-6.06,2.79-9.67,5.87-13.69a37.41,37.41,0,0,1,10.09-8.92c.22.67.14,2.72.52,3.92,1.91,6,3.07,9.43,3.75,11.56a43.27,43.27,0,0,0,5,10.42,34.94,34.94,0,0,1,3.66-6.6A48.69,48.69,0,0,1,947,275.2a73.22,73.22,0,0,1,11-7.81Z"/><path class="cls-4" d="M934.18,298a4.11,4.11,0,0,1,2,2.18,4.21,4.21,0,0,1-.38,3.51,4.75,4.75,0,0,1-2.19,1.95,5,5,0,0,1-5.88-1.27c-.16-.2-1.84-2.26-1-4.29a4.45,4.45,0,0,1,2.94-2.25A6.72,6.72,0,0,1,934.18,298Z"/></g><g id="Layer_2" data-name="Layer 2"><path class="cls-13" d="M759.39,208.33H736.57A11.66,11.66,0,0,0,725,220V451.05a11.66,11.66,0,0,0,11.62,11.63H856.51a11.66,11.66,0,0,0,11.63-11.63V220a11.66,11.66,0,0,0-11.63-11.63h-13"/><path class="cls-10" d="M761.1,219.67H745a9.79,9.79,0,0,0-9.77,9.76V418.68a9.8,9.8,0,0,0,9.77,9.77H848.66a9.8,9.8,0,0,0,9.77-9.77V229.43a9.79,9.79,0,0,0-9.77-9.76H783.5"/><circle class="cls-10" cx="797.92" cy="446.07" r="12.77"/><path class="cls-14" d="M516.92,318.24A94.86,94.86,0,0,0,452.5,239c-21.12-6.34-42.24-6.34-63.37,1.06-14.78,5.28-28.51,13.73-39.07,26.4-2.12,2.11-5.91,8.06-7.51,10.6l-15.46,56.24c.79,47.22,39.86,87.36,86.33,91.58,32.74,2.11,64.43-9.51,84.49-37C512.7,366.82,520.09,343.59,516.92,318.24ZM422,406.06a76.52,76.52,0,1,1,76.51-76.52A76.52,76.52,0,0,1,422,406.06Z"/><path class="cls-14" d="M589.79,75.76a90.09,90.09,0,1,0,90.09,90.09A90.1,90.1,0,0,0,589.79,75.76Zm0,162.54a72.45,72.45,0,1,1,72.45-72.45A72.45,72.45,0,0,1,589.79,238.3Z"/><path class="cls-10" d="M798.62,108.05a8.72,8.72,0,0,0-7.78.83"/><path class="cls-10" d="M816.42,108.49a7.48,7.48,0,0,0-3.64-1.28,7.67,7.67,0,0,0-3.8.72"/><path class="cls-10" d="M803.17,109.24a5.61,5.61,0,0,0,.39,3.53c.68,1.33,1.77,1.84,1.6,2.46-.09.37-.62.82-2.9,1"/><path class="cls-10" d="M797.75,110.4a6.93,6.93,0,0,0-3.86.06,6.64,6.64,0,0,0-1.87.91"/><path class="cls-10" d="M814.25,110.47a5.65,5.65,0,0,0-2.51-.58,5.73,5.73,0,0,0-3.16,1"/><path class="cls-11" d="M794.73,114.37l.08,0-.45-.45.33-1.2.63-.17h-.09l.88.37-.07-.09.32.55,0,.12-.17.63.06-.09-.45.44.09-.05-.63.17-.11,0-.56-.32.09.07-.32-1.21,0,.1.33-.55.27-.16h.67l-.11,0,.55.32.06.09.17.63-.1.32a1.25,1.25,0,0,0-.45-1.71,1.28,1.28,0,0,0-1.71.45,1.55,1.55,0,0,0,.66,2.25,1.57,1.57,0,0,0,2.11-1.06,1.24,1.24,0,0,0-.33-1.21,1.5,1.5,0,1,0-1.87,2.32,1.47,1.47,0,0,0,2-.64,1.57,1.57,0,0,0-.57-2.09,1.26,1.26,0,0,0-1.71.45,1.27,1.27,0,0,0,.44,1.71Z"/><path class="cls-11" d="M811.87,114.73l.08,0-1-.12.08,0-.45-.44,0,.07-.12-1,0,.08.57-.75-.07,0,1-.13h-.07l.55.32.06.07.17.63,0,.11-.87.87-.14,0-.63-.18-.1-.07-.2-1.52.06-.1.55-.32-.1,0,1.58,1.2,0-.42a1.25,1.25,0,1,0-2.5,0l0,.42a1.26,1.26,0,0,0,1.58,1.21,1.81,1.81,0,0,0,1-.77,1.27,1.27,0,0,0-.19-1.51,1.47,1.47,0,0,0-2.21,0,1.56,1.56,0,0,0,.45,2.25,1.4,1.4,0,0,0,2-.85,1.38,1.38,0,0,0-1.72-1.63,1.25,1.25,0,1,0,.66,2.41Z"/><path class="cls-15" d="M809,119a25,25,0,0,1-5.93,1c-4,.19-7-.64-7.19-.08s1.33,1.25,2.13,1.6a7,7,0,0,0,4.1.45"/><path class="cls-15" d="M812.27,172.08V158.89a2.72,2.72,0,0,0-2.72-2.72H799.44a2.72,2.72,0,0,0-2.72,2.72V175.1"/><path class="cls-15" d="M805.84,137.44a19.65,19.65,0,0,0-1.78,3.46,18.06,18.06,0,0,0-.45,11.49l-.14,3.73"/><circle class="cls-15" cx="806.58" cy="141.95" r="1.31"/><path class="cls-15" d="M840.49,209.59a24.53,24.53,0,0,0-3.87-5.63,26.44,26.44,0,0,0-16.27-8"/><path class="cls-15" d="M817,196.88a46.82,46.82,0,0,1,9.52,4.85,44.64,44.64,0,0,1,10,9.13"/><path class="cls-15" d="M797.82,135.73l5.26,8.85"/></g><g id="Layer_3" data-name="Layer 3"><path class="cls-3" d="M208.61,319.15A25.4,25.4,0,0,1,198,314.23c8.42-10.55,7.89-27.21-1.19-37.2s-25.62-12.09-36.92-4.7a35.45,35.45,0,0,0-12,14.06,18.36,18.36,0,0,0-2.34,8.75A19.24,19.24,0,0,0,148,303c4,7.8,10,14.8,17.85,18.73s17.61,4.45,25.27.19a11,11,0,0,1,3.22-1.47,11.38,11.38,0,0,1,3.44.13,21.69,21.69,0,0,0,12.9-2.59"/><path class="cls-13" d="M725,320.72c-50.57,22.34-105.23,44.46-163.85,65.52-51.38,18.45-92.81,32.19-140,45.86"/><path class="cls-13" d="M254.4,366.18C224.3,361,194.3,361,164.3,369c-22,6-40,18-60,31-21,15-39,29-60,44-12,8-23,14-34,21.22"/><path class="cls-13" d="M308.44,381a236.63,236.63,0,0,0-33.09-10.86"/><path class="cls-13" d="M488.27,465.21c-26-12.22-51-27.22-78-38.22-27-10-53.36-20.83-77.39-34.67"/><line class="cls-16" x1="444.03" y1="112.57" x2="431.47" y2="249.74"/><line class="cls-16" x1="595.08" y1="254.54" x2="603.88" y2="370.43"/><line class="cls-16" x1="447.55" y1="106.13" x2="409.92" y2="139.12"/><line class="cls-16" x1="560.21" y1="305.07" x2="639.57" y2="298.63"/><line class="cls-16" x1="441.6" y1="105.42" x2="473.41" y2="141.32"/><path class="cls-1" d="M91.7,292.52a12.55,12.55,0,0,1,13.82,16.6c-1.4,3.93-4.69,6.94-8.36,8.93-5.06,2.74-11.86,3.57-16.21-.2a15.16,15.16,0,0,1-3.79-5.76c-1.25-3-2-6.55-.73-9.58A13.29,13.29,0,0,1,78.87,299a22.4,22.4,0,0,1,7-5.57,10.84,10.84,0,0,1,8.72-.44"/><path class="cls-1" d="M91.7,295c6.91-.68,13.4,4.62,11.81,12.05-1.19,5.58-7.18,9.56-12.5,10.57C84,319,78.92,313.77,78.4,307c-.55-7.1,9-13.71,15.51-11.57,3.06,1,4.38-3.82,1.33-4.83-8.51-2.8-20,4.29-21.75,13.17-1.81,9.35,5.73,19.34,15.3,19.16,8.8-.17,18.54-6.81,19.77-15.91,1.36-9.94-7.16-17.92-16.86-17-3.18.32-3.21,5.32,0,5Z"/><path class="cls-1" d="M174.34,276.83a12.54,12.54,0,0,1,13.83,16.59c-1.4,3.94-4.7,6.95-8.37,8.94-5.05,2.73-11.86,3.56-16.2-.21a14.86,14.86,0,0,1-3.79-5.76c-1.26-3-2-6.55-.74-9.57a13.38,13.38,0,0,1,2.45-3.53,22.24,22.24,0,0,1,7-5.57,10.88,10.88,0,0,1,8.72-.44"/><path class="cls-1" d="M174.34,279.33c6.91-.69,13.41,4.61,11.82,12C185,297,179,300.93,173.65,302c-7,1.33-12.08-3.88-12.6-10.68-.55-7.11,9-13.71,15.51-11.58,3.06,1,4.37-3.82,1.33-4.82-8.52-2.8-20,4.29-21.75,13.16-1.81,9.35,5.72,19.34,15.29,19.16,8.81-.16,18.54-6.8,19.78-15.91,1.35-9.94-7.16-17.92-16.87-16.95-3.17.31-3.2,5.32,0,5Z"/><path class="cls-1" d="M148.47,324.52a12.56,12.56,0,0,1,13.83,16.6c-1.4,3.93-4.7,6.94-8.37,8.93-5.06,2.74-11.86,3.57-16.21-.2a15.16,15.16,0,0,1-3.79-5.76c-1.25-3-2-6.55-.73-9.58a13.1,13.1,0,0,1,2.45-3.52,22.24,22.24,0,0,1,7-5.57,10.84,10.84,0,0,1,8.72-.44"/><path class="cls-1" d="M148.47,327c6.91-.68,13.4,4.62,11.81,12.05-1.19,5.58-7.18,9.56-12.5,10.57-7,1.33-12.08-3.87-12.61-10.68-.54-7.1,9-13.71,15.51-11.57,3.07,1,4.38-3.82,1.33-4.83-8.51-2.8-20,4.29-21.75,13.17-1.81,9.35,5.73,19.34,15.3,19.16,8.81-.17,18.54-6.81,19.78-15.91,1.35-9.94-7.16-17.92-16.87-17-3.17.32-3.21,5.32,0,5Z"/><path class="cls-11" d="M84.29,302.64a13,13,0,0,1-1.76,4A12.09,12.09,0,0,1,81,308.43c-.52.52-1.16,1.51-1.82.89s-.21-.91.06-1.61a13.26,13.26,0,0,1,1.05-2.18,5.55,5.55,0,0,1,4.06-2.84c.47-.05.48-.81,0-.75a6.38,6.38,0,0,0-4.71,3.21c-.65,1.05-2.22,3.68-1.49,4.94.85,1.48,2.71-.47,3.38-1.13A13.1,13.1,0,0,0,85,302.84a.37.37,0,0,0-.72-.2Z"/><path class="cls-11" d="M84.78,302.93a2.83,2.83,0,0,1,1.38,1.22.38.38,0,0,0,.65-.38A3.75,3.75,0,0,0,85,302.2c-.45-.18-.64.55-.2.73Z"/><path class="cls-11" d="M85.92,304.05a19.66,19.66,0,0,1-5,7.39c-.35.33.18.86.53.53a20.52,20.52,0,0,0,5.2-7.72c.17-.45-.56-.64-.73-.2Z"/><path class="cls-11" d="M81,311.34a2.45,2.45,0,0,1-2.09-1.49c-.17-.45-.9-.25-.72.2a3.21,3.21,0,0,0,2.81,2c.48,0,.48-.71,0-.75Z"/><path class="cls-11" d="M97,311.74c1.65-2.68,7.51-10.29,4.48-13.48-3.47-3.67-6.9,4.07-7.94,6-1.2,2.24-7.35,10.67-4.11,13.29,3.45,2.79,6.66-4.41,7.69-6.36.23-.43-.42-.81-.64-.38-.56,1.05-1.12,2.12-1.76,3.12a11.12,11.12,0,0,1-1.21,1.75c-1,1.77-2.26,1.2-3.89-1.71,0-.92,1.7-3.81,2.19-4.78.66-1.31,1.34-2.61,2-3.9s1.19-2.95,2.1-3.87l.58-1q7-.51,3.74,3.81a68,68,0,0,1-3.91,7.16c-.25.41.4.78.65.37Z"/><path class="cls-11" d="M98.05,309a40.52,40.52,0,0,1-4.71-2.68c-.41-.27-.78.38-.38.64a38.48,38.48,0,0,0,4.72,2.68c.43.21.81-.43.37-.64Z"/><path class="cls-11" d="M173.54,299c3.18-3,7.56-7.56,6.38-12.45s-5.65-.85-7.4,1.15c-.53.6.35,1.49.89.88.71-.82,1.91-2.55,3-2.85,3.58-1,2.15,4.27,1.78,5.25-1.07,2.88-3.34,5.08-5.53,7.14-.58.55.3,1.43.89.88Z"/><path class="cls-11" d="M173.59,287.61c-.93-2-2.64-4.16-5.15-3.47a.62.62,0,0,0,.33,1.2c1.92-.52,3.07,1.44,3.75,2.9.33.73,1.41.1,1.07-.63Z"/><path class="cls-11" d="M168.27,284.12c-3.44,1.17-4.33,4.74-3.21,8a11.37,11.37,0,0,0,7.43,7c.77.24,1.09-1,.33-1.21a10.21,10.21,0,0,1-5.34-3.8c-1.86-2.61-2.87-7.35,1.12-8.7.76-.26.43-1.46-.33-1.21Z"/><path class="cls-11" d="M139.47,330c2.63-.83,5.48-.41,8.17-1a20.69,20.69,0,0,0,7-3.13c.4-.27,0-.92-.38-.65a19.65,19.65,0,0,1-8.21,3.31c-2.26.35-4.53.09-6.73.78-.45.15-.26.87.2.73Z"/><path class="cls-11" d="M153.85,325.78l1.94,14.57c.06.47.81.47.75,0l-1.94-14.57c-.07-.48-.82-.48-.75,0Z"/><path class="cls-11" d="M155.8,340.2c-4.8,2.52-10,2.06-15.11.86-.47-.11-.67.61-.2.72,5.32,1.25,10.7,1.69,15.69-.93.42-.23,0-.88-.38-.65Z"/><path class="cls-11" d="M139.4,329.56c-.58,7.31,1.12,14.44,1.46,21.71,0,.49.77.49.75,0-.34-7.26-2-14.4-1.46-21.71,0-.48-.71-.47-.75,0Z"/><path class="cls-11" d="M154.08,327.62a31.12,31.12,0,0,1-14.31,3.46.38.38,0,0,0,0,.75,32,32,0,0,0,14.68-3.56c.43-.22.05-.87-.37-.65Z"/><path class="cls-11" d="M154.41,330.12a26.1,26.1,0,0,1-14.64,3.77.38.38,0,0,0,0,.75,26.78,26.78,0,0,0,15-3.87c.42-.25,0-.9-.37-.65Z"/><path class="cls-11" d="M154.9,333.12a40.12,40.12,0,0,1-14.76,2.93.38.38,0,0,0,0,.75,40.61,40.61,0,0,0,15-3c.44-.18.25-.9-.2-.72Z"/><path class="cls-11" d="M155.34,335.7a55.38,55.38,0,0,1-15.2,2.05.38.38,0,0,0,0,.75,56,56,0,0,0,15.4-2.08.37.37,0,0,0-.2-.72Z"/><path class="cls-11" d="M155.37,338.09c-4.53,1.58-10.17,3-14.84,1.31-.46-.17-.65.56-.2.72,4.79,1.75,10.6.31,15.24-1.3.45-.16.26-.88-.2-.73Z"/><path class="cls-3" d="M65.66,377.79a22.84,22.84,0,0,0,9.46-7,3.14,3.14,0,0,0,.8-1.54,4,4,0,0,0-.73-2.27A18.64,18.64,0,0,1,74,353a26,26,0,0,1,7.84-11.86c4.22-3.76,9.71-6.44,15.36-6.1,7.89.46,14.73,7.23,16,15s-2.63,16-9.07,20.61-15,5.68-22.67,3.64A13,13,0,0,1,65,377.64"/><path class="cls-3" d="M66,378.33c3.52-1.52,7.34-3.83,9.58-7.07,1.58-2.3.59-3.47-.42-6C70.22,353,80.46,338.61,92.79,336c13-2.71,22.71,10.76,19.2,22.64-3.86,13.1-18,18-30.37,15.08a.63.63,0,0,0-.61.16,12.64,12.64,0,0,1-15.7,3.19c-.71-.37-1.34.71-.63,1.08,5.49,2.82,10.3,1.65,15.3-1.4,2.9-1.77,4.46-1,7.73-.85a28.25,28.25,0,0,0,11-1.69c11.28-4.2,19-17.53,13.52-29.09-5.77-12.16-19.87-13.28-29.7-5.42-5.07,4.06-9,9.89-9.86,16.43-.46,3.67.55,6.24,1.25,9.72s.28,5.44-2.39,7.68a24.06,24.06,0,0,1-6.23,3.69c-.73.32-.1,1.4.64,1.08Z"/><path class="cls-1" d="M94.62,343.71a11.16,11.16,0,0,1,7.19,2,8.64,8.64,0,0,1,3.6,6.4,9.59,9.59,0,0,1-3.91,7.75,18.07,18.07,0,0,1-8.31,3.27,13.08,13.08,0,0,1-4.91,0,6,6,0,0,1-3.93-2.74c-1.09-2-.54-4.5.18-6.67a19.89,19.89,0,0,1,3.84-7.31,8.91,8.91,0,0,1,7.36-3.14,11,11,0,0,1,4.69,2"/><path class="cls-1" d="M94.62,346.21c5,0,10.66,3.94,7.3,9.46-1.93,3.17-5.91,4.52-9.39,5s-6.93-.76-6-5a20.7,20.7,0,0,1,1.69-4.61c2.37-4.7,6.21-6.64,10.93-3.7,2.74,1.7,5.26-2.62,2.53-4.32-7.23-4.5-14.55-1.37-18.06,6.13-3.12,6.64-3.64,15.92,5.87,16.59,7.07.5,16-3.21,18-10.55,2.28-8.25-5.39-14.12-12.91-14.05-3.21,0-3.22,5,0,5Z"/><path class="cls-11" d="M92.42,352.25A3.64,3.64,0,0,1,93.8,347c2.71-1.55,5.13,1,3.83,3.71-1,2-1.84,3.29-1.4,5.59.09.47.81.27.72-.2-.42-2.22.58-3.42,1.45-5.27a4,4,0,0,0,.46-2.13,3.29,3.29,0,0,0-3-2.93,4.51,4.51,0,0,0-4.11,6.83c.27.4.92,0,.65-.38Z"/><path class="cls-11" d="M97.26,358.71l.21-.21c.35-.34-.18-.87-.53-.53l-.21.21c-.34.35.19.88.53.53Z"/></g><g id="gorl"><path class="cls-10" d="M946.26,225.48a54.34,54.34,0,0,1,4.42,12.37,54.9,54.9,0,0,1-.54,25.91l-1.29,3.12h23.47c-.92-7.2-3.54-24.91-9.91-39.68-2.34-5.42-5.23-10.55-11-13.17a19.18,19.18,0,0,0-8-1.65l-4.33.23a6.09,6.09,0,0,0-2.8-2.59c-4.2-1.76-9.81,2.57-12.46,4.61-12,9.26-19.25,35.59-20.88,41.76a98.78,98.78,0,0,0,10.55,3.68,108.73,108.73,0,0,0,15.68,3.73"/><path class="cls-10" d="M959.07,266.88a71.28,71.28,0,0,1,11.51,11.32c1.73,2.18,5.91,7.89,10.15,25.61,4.28,18,3.71,27.7,2.85,33.72-1.06,7.46-2.83,11.23-6.25,13.37a13.06,13.06,0,0,1-11.61.93c-6.23-2.72-7.55-10.67-8.87-18.6-1.39-8.38-.73-16.29.66-31.77.28-3.09.54-5.64.73-7.38"/><path class="cls-10" d="M929.22,263.8c-1.62.13-6.44,2.29-9,4.39-1.78,1.44-8.06,6.95-12.42,27.9-3.33,16,0,14.37-3.37,28.35-1.82,7.62-4.19,13.88-1.68,20.52a17.88,17.88,0,0,0,4.86,7"/><path class="cls-10" d="M919,284.07a20.68,20.68,0,0,0-6,10.4c-1.23,6,1.88,8,3.43,18.21.62,4,.59,9.06.52,19.1,0,5.52-2,8.21-.21,10,2,2,4.95,0,13-.22,8.29-.17,10.45,1.9,20.08,1.49,2.88-.13,7.45-.53,8.92-.75"/><path class="cls-10" d="M965.38,364.37c1,10.9,2.38,12.72,2.48,24.77a430.71,430.71,0,0,1-9,90.94l-27.06-1.33c2.07-26.62,3.07-54.74,2.59-84.21q-.2-12.15-.71-23.94"/><path class="cls-10" d="M916.72,341.77c-4.79,45.4-6.51,93.44-1.31,133.14.14,1.07.28,2.14.43,3.21l16,.63"/><path class="cls-10" d="M954.63,266.88c-3,1.52-10.93,6-14.81,9.92a39.88,39.88,0,0,0-5.33,6.73,143.92,143.92,0,0,1-4.12-13.93c-.62-2.73-1.1-5.47-1.1-5.47-.06-.38-.11-.69-.15-.89"/><path class="cls-10" d="M931.3,297.56a4.64,4.64,0,0,1,4.38,2,4.27,4.27,0,0,1-.83,5.19,5.14,5.14,0,0,1-6.87.15,4.22,4.22,0,0,1-.78-5.05A4.68,4.68,0,0,1,931.3,297.56Z"/><path class="cls-12" d="M1025.3,153.86c.64,1.49,1.54,3.68,2.5,6.37a120.16,120.16,0,0,1,5.18,20.14c1.22,6.57,3,15.64,5.79,28.11a57.72,57.72,0,0,0-.8,8.12,51.31,51.31,0,0,0,.28,7.46,47.34,47.34,0,0,0,1.9,9.05c1.07,3.32,1.91,4.5,4.71,10.37s3.18,6.74,3.77,8.26a50.2,50.2,0,0,1,2.57,8.12,47.11,47.11,0,0,1,1,8.42,89,89,0,0,1-.71,14c-.91,8.69-1.52,14.59-2.19,14.57-.45,0-.89-5.32-1.76-15.93-.28-3.47-.58-7.37-1.16-14a33.62,33.62,0,0,0-.3-3.55,28,28,0,0,0-2.68-7.8c-2.76-6.07-1.77-5.11-4.19-10.2a95.64,95.64,0,0,0-5.08-9.34c-2.17-3.5-3.5-4.16-5.13-7.44a43.62,43.62,0,0,1-2.3-6.09c-.72-2.19-1.69-5.15-2.76-9.38a140.44,140.44,0,0,1-3.15-16.8,142.17,142.17,0,0,1-.9-21.71c.12-5.9.39-4.07.85-12,.12-2.14.93-4.2,1.08-6.35a4.53,4.53,0,0,1,1.08-2.86,1.63,1.63,0,0,1,1.34-.67A1.53,1.53,0,0,1,1025.3,153.86Z"/><path class="cls-12" d="M1048,300.27c-.51-1.5-1.25-3.69-2.18-6.34-1.5-4.33-2.61-7.49-3.4-9.53a72,72,0,0,0-7.23-13.43,79,79,0,0,0-12.5-15.85c-1.49-1.42-1.15-1-11-9.72a57.58,57.58,0,0,1-6.37-6.32,46.59,46.59,0,0,1-5.23-7.63,31.78,31.78,0,0,1-4.32-3.55,35.23,35.23,0,0,1-7-9.86s-.17-.34-2.93-6.82a4.75,4.75,0,0,0-1.84,1.49c-1.14,1.62-.64,3.39-.41,6.48.32,4.14-.38,3.62,0,7.34a36.34,36.34,0,0,0,1.42,6.89,34.66,34.66,0,0,0,2.14,5.83h0l6.45,9.46a7.07,7.07,0,0,1,2-.75,8.53,8.53,0,0,1,5.05.7c4.49,1.75,6.7,2.7,9.68,4.79a53.43,53.43,0,0,1,8.2,7.32,112.42,112.42,0,0,1,8.19,9.68c1.44,1.83,4.18,5.32,6.89,9.24a146.31,146.31,0,0,1,12.19,21.48Z"/><path class="cls-17" d="M1045.92,263.8c-4.56-16.91-11.54-28.23-17.16-35.51-11.59-15-22.12-18.88-29.82-36.6-3.82-8.8-5.1-16.75-6.91-16.54-2.1.25-2.9,11.14-2.41,19.84.4,7.08,1.72,25.88,15,43.28,7.44,9.72,8.49,5.77,19.84,18.94,5.76,6.69,14.25,16.71,19.63,31.63,2.77,7.69,3.48,13.25,4.14,13.16S1049.06,294.94,1045.92,263.8Z"/><path class="cls-17" d="M1048.26,302c-.93,3.24,9-20.93,11.42-38.76,2.85-21.08-.58-26.1,1.06-49.83,2.1-30.6,8.76-46.18,4.69-47.95s-13.94,11.68-19,21.34c-2.76,5.24-9.7,18.79-8.24,36.19,1.33,15.83,8.28,19,12.83,36C1053.38,268,1052.07,283.3,1048.26,302Z"/><path class="cls-10" d="M1038.68,209c-1-8.11-4.45-23.95-7.76-37.12-2.31-9.15-4.9-19.46-7.11-19.29-2.91.23-4,17.38-4.06,27.41a134.4,134.4,0,0,0,6.09,39.92c1.11,3.54,2.16,6.42,2.92,8.36"/><path class="cls-17" d="M1045.57,300.29a242.51,242.51,0,0,0-15.9-25.7c-8.3-11.71-17.68-22.72-29.55-26.22-2.06-.61-4.53-1.09-6.29.17-3.92,2.82-2.58,12.69.87,19.41s8.6,9.65,21.68,16.78C1028.05,291.08,1038,296.34,1045.57,300.29Z"/><path class="cls-10" d="M1000.45,232.13c-2.23-1.9-6-4.91-8.74-9-4.64-6.91-5.59-12.69-6.46-12.55-1.85.3-3.92,13.62,1,26.42a39.24,39.24,0,0,0,7.59,11.94"/><path class="cls-10" d="M930.51,254.51a15.54,15.54,0,0,1,0,4.77,16.6,16.6,0,0,1-1.33,4.52"/><path class="cls-10" d="M929.12,263.24c-1.49,7-3.44,17.54-1.94,27.48.33,2.22,1.45,5.35,1.94,7.35"/><path class="cls-10" d="M949.26,267c-3.93,7-8.6,15.39-12.16,23.6-1.1,2.52-2.13,5-3.1,7.46"/><path class="cls-11" d="M960.84,129.19a7.49,7.49,0,0,1-6.27-6.56l-.92.71c2.26,1.66-5.66,7.79-6.62,8.43a.63.63,0,0,0,.48,1.15c4.16-1.13,5.76,3.29,6.66,6.26a.62.62,0,0,0,1.2-.33,7.81,7.81,0,0,1,4.45-8.35c.72-.35.09-1.43-.63-1.08a9.08,9.08,0,0,0-5,9.76l1.2-.33c-1.15-3.83-3.39-8.44-8.19-7.14l.48,1.14c2.06-1.37,10.49-7.74,6.62-10.59-.5-.37-1,.24-.92.71a8.64,8.64,0,0,0,7.14,7.42c.79.15,1.13-1.06.34-1.2Z"/></g><g id="gorl_2" data-name="gorl 2"><path class="cls-15" d="M915.85,235.3c-.86,3.37-1.66,6.94-2.36,10.71-.89,4.73-1.53,9.23-2,13.46"/><path class="cls-15" d="M920.58,240.85q-.86,6.77-1.39,14-.26,3.33-.4,6.56"/><path class="cls-15" d="M952.7,227.1a136.44,136.44,0,0,1,7.56,39.77"/><path class="cls-15" d="M963.41,238.74a119.27,119.27,0,0,1,3.06,13.09,121,121,0,0,1,1.67,15"/><path class="cls-10" d="M929.17,220.6a20.31,20.31,0,0,0-3.22,4.64,12.75,12.75,0,0,0-.63,8c.36,1.21.61,1.18.62,1.89,0,2.63-3.33,3.74-3,5.8.12.88.75.71,1.62,2.17,1,1.71.73,2.89,1.16,5.5s.69,4.13,1.46,4.85c3,2.81,11.46-.86,13.44-1.72a28.93,28.93,0,0,0,2.72-1.34"/><path class="cls-10" d="M939.41,230.45a7.38,7.38,0,0,0-2.06-1.88,9.29,9.29,0,0,0-7-.8"/><path class="cls-15" d="M930,232.74a6.13,6.13,0,0,1,3.66-.54,6,6,0,0,1,3.57,2.05"/><path class="cls-15" d="M924.81,246.36l4.88-.18h0c.75-.11,1,0,1.12.18.38.53-.8,2.06-2.06,2.94a6.58,6.58,0,0,1-2.72,1.07"/><path class="cls-10" d="M928.66,220.6c2.3,1.52,8.4,4,11.74,9.2,4.79,7.46,9.45,25.69,10.53,30.47"/><path class="cls-10" d="M916,350.9c-.94.67-.16.22-1.88.73a12.71,12.71,0,0,1-6.67.16"/><path class="cls-10" d="M976.64,351.17c-.12,2.11-.23,4.22-.35,6.33.38,1.83,1.07,4.18,1.46,6"/><path class="cls-10" d="M964.62,351.32a37.72,37.72,0,0,0-1,5.63c-.18,1.88-1,8.5.18,8.82.68.18,2-1.81,2.5-3.72a15,15,0,0,0,.25-2.38c.1,0,.15,1.74.37,3.72.37,3.44.85,4.23,1,7,.15,2.29-.53,3.49,0,3.78s1.78-.75,2.43-1.69a6.67,6.67,0,0,0,.88-4.17,12.34,12.34,0,0,0-.68-3.88"/><path class="cls-10" d="M969.11,373.87c.79-.4,3.06-.82,4-2.24,2.2-3.3.71-7.05.51-7.52"/><path class="cls-10" d="M972.56,372.25a7,7,0,0,0,3.21-2.66,28.68,28.68,0,0,0,.4-4.41,1.7,1.7,0,0,0-.28-1.17"/><path class="cls-10" d="M974.86,370.73c.47-.61,2.9-3.1,3-5.25a18.83,18.83,0,0,0-1.15-5.81"/><path class="cls-10" d="M910.68,352.16a29.42,29.42,0,0,0-.43,6.17,20.08,20.08,0,0,0,1.28,7.16,9.55,9.55,0,0,0,2.79,3.89"/><path class="cls-13" d="M868.14,275.39c7.26-3.47,17.7-5.68,31-8.14,7.07-1.31,23.14-2.92,28.7-3.14"/></g><g id="Layer_6" data-name="Layer 6"><path class="cls-10" d="M826.7,181.69c2.26-.59,18.08,4.82,19.8,6.11a13.72,13.72,0,0,1,4.49,5.58,9.67,9.67,0,0,1,.75,4.93c-.43,3.43-3,6.55-6.34,8.79A41.53,41.53,0,0,1,833.9,212c-12.28,3.6-31.63,5.32-44.69,4.54"/><path class="cls-10" d="M820.8,196.07c-9.63,1.19-26.35,6.85-34.16,11.45"/><path class="cls-10" d="M774.79,183.74c-4.41,1-13.65,4-16.74,6.73s-4.87,6.42-4,10a11.53,11.53,0,0,0,1.57,3.5,12.55,12.55,0,0,0,4.28,4.48c2.9,1.62,2.9,2.05,6.83,2.94"/><path class="cls-10" d="M799.65,201.83a31.7,31.7,0,0,0-9.22-3,37.08,37.08,0,0,0-5.38-.25"/><path class="cls-10" d="M789.6,216.33A43.81,43.81,0,0,1,768,223.41c-2.14.09-4.48-.09-6.11-1.87"/><path class="cls-10" d="M820.06,104.86a23.5,23.5,0,0,1-3.31,13.35c-1.49,2.44-4.2,6.86-9.7,8.45a16,16,0,0,1-12.18-1.76c-6-3.6-9.07-11.28-7.88-19.4"/><path class="cls-10" d="M786.44,109.23a3.33,3.33,0,0,0-2.23,1.4,3.19,3.19,0,0,0,.76,4.12,3.38,3.38,0,0,0,3,.36"/><path class="cls-10" d="M820.2,109a3.27,3.27,0,0,1,2.23,1.4,3.19,3.19,0,0,1-.75,4.11,3.42,3.42,0,0,1-3,.37"/><path class="cls-10" d="M786.74,109.06a35.74,35.74,0,0,1-4.6-4.94c-1.27-1.9-3.4-5.08-2.36-7.44.69-1.57,2-1.07,3.22-3.2.39-.69.31-.86,1.32-4,.52-1.59.78-2.39.86-2.54,1.59-2.86,5.41-3.76,6.46-4,1.68-.39,1.67,0,2.63-.46,2.55-1.09,2.12-3.28,4.4-4.61s4.9-.66,6.48-.33c1.83.39,1.81.81,3.66,1.14,2.69.48,3.11-.36,5.34.06.63.12,3.63.68,5.22,3,.69,1,.53,1.46,1.92,3.9a12,12,0,0,0,1.35,2c1.27,1.45,2,1.28,2.78,2.24a5.47,5.47,0,0,1,.44,5.11c-.62,1.52-1.52,1.56-2.83,3.66a12.66,12.66,0,0,0-1.32,2.88,6,6,0,0,1-3,3,5.75,5.75,0,0,1-5-.2c-1.29-.73-1.31-1.58-2.27-1.7-1.27-.16-1.61,1.29-3.49,1.95a6.06,6.06,0,0,1-5.64-1c-.92-.78-.93-1.48-1.68-1.62-1.15-.22-1.52,1.32-3.18,1.86-2,.66-3-1.2-6.07-.78a14,14,0,0,0-2.34.6c-1.26.41-1.41,1.94-2.14,2.32"/><path class="cls-15" d="M813,125.44a5.52,5.52,0,0,1,3.56,1.27c4.12,2.76,4.52,7.87,4.58,8.76a26.86,26.86,0,0,0-10.18-.39,9.71,9.71,0,0,0-4.34,1.73c-.57.45-.71.69-.82.63C805.15,137.07,808,125.93,813,125.44Z"/><path class="cls-15" d="M799,136.26a32.37,32.37,0,0,0-2.94-5.45c-2.06-3-3.82-5.66-5.88-5.52-1.33.09-2.4,1.45-4.52,4.16a34,34,0,0,0-2.44,3.59,33.65,33.65,0,0,1,4.52.14A35.32,35.32,0,0,1,799,136.26Z"/><path class="cls-10" d="M818.23,128.11c3.21.54,7.21,2.78,8.81,3.7,7.75,4.44,8.85,7.95,16.87,14a15.26,15.26,0,0,1,3.23,3.18,18,18,0,0,1,2.94,6.66c.46,2,1.41,6.19-.26,10.11-1.13,2.67-3.14,4.06-7.13,6.73-5.82,3.89-7,3-12.74,6.85-3.35,2.26-3.87,3.19-6.08,3.68-4,.88-8.75-.79-9.34-3.25-.25-1.06.45-1.47.09-3.06a8.15,8.15,0,0,0-2.06-3.53c-.27-.28-.51-.5-.68-.65.55-.65,1.4-1.61,2.48-2.69a49.65,49.65,0,0,1,9.25-7.14c1.12-.7,2.65-1.62,4.54-2.6"/><path class="cls-10" d="M826,161.4a6,6,0,0,0,.47-3.43c-.3-1.64-1.26-2.36-2-3.8a9.84,9.84,0,0,1-1-5.66"/><path class="cls-10" d="M778,155.85c-1.59,2.68-1.66,4.63-1.42,5.92.34,1.86,1.46,3.1,1.29,5.4-.11,1.39-1,1.82-.67,2.49.46,1,2.44.52,5.3,1,3.62.59,4,2,9.88,3.79,1.12.34,2,.58,2.59.71q-.61,2-1.14,4.23a61.7,61.7,0,0,0-1.17,6.58,17.43,17.43,0,0,1-3.88,1.16c-2.64.45-6.52.45-17.1-4.73-6.43-3.14-9.68-4.77-11.19-7.13-2.73-4.27-2.37-9.22-2.18-11.8.23-3.16,1-5.3,2.59-9.58,1.94-5.26,3.65-9.79,7.57-14.47,2-2.34,3.88-4.6,7.3-6.23a18.72,18.72,0,0,1,8.57-1.77"/><path class="cls-10" d="M812.24,96.87a8.93,8.93,0,0,0,2.28-2.77,9,9,0,0,0,1-4.45"/><path class="cls-10" d="M810.68,90a6.54,6.54,0,0,1-.19,3.63,6.8,6.8,0,0,1-3.63,3.82"/><path class="cls-15" d="M792.08,183.74c-2.28-.69-5.22-.26-9.63-1.12-8.32-1.64-15.54-4-17.43-7.05a19.32,19.32,0,0,1-2.25-9.33c.78-9.69,3-11.14,4.22-15.05,1.13-3.47,2.26-11.27,7.55-14.52a53,53,0,0,1,8.72-3.63"/><path class="cls-15" d="M820.36,131.66c1.45,1,4.8,2.65,7.45,4.48,4.77,3.3,6,4.06,7.87,5.48,4.09,3,6.13,4.58,8,6.77,2.4,2.84,5.16,6.09,5.1,10.58-.06,4.23-2.59,7.25-3.85,8.76-3.35,4-7.63,5.44-10.58,6.44-2.79.94-13.62,8.06-15.36,8.22"/><path class="cls-18" d="M163.78,136.5c-10-13.75-3.16-23.48-9-38.82C147.22,77.93,131.81,83.2,114,55.16c-4.18-6.58-13.59-23-13.59-23S86.35,39,79.76,48.66C72.77,58.9,72.07,75.4,79,86c5.67,8.61,12.48,7.29,14.9,14.67,3.28,10-8.32,15.4-7.68,27.76.77,15,18.89,27,31.89,31.3,11.31,3.77,21,2.53,26.57,1.77a70.06,70.06,0,0,0,32.14-13.32A42.09,42.09,0,0,1,163.78,136.5Z"/><path class="cls-18" d="M264.14,209.13c7.81-12.87,16.38-31.47,18-53.63,1.25-16.92-2.44-23.76-3.6-25.74-6-10.21-14-9.51-18.14-18.71-5.62-12.49,6.06-20.71,1.28-29.84-6.4-12.22-30.15-3-51.34-17.36C200.24,57,194.59,47.38,191.33,40c-10.48,13.82-12.53,26.33-13,32.37-2.34,27.7,16.78,49,22.22,55.08,12.73,14.19,18,10.9,27.06,24.64,8.43,12.84,7,20.57,15.94,34.78A83.7,83.7,0,0,0,264.14,209.13Z"/><path class="cls-18" d="M288.39,192a109.34,109.34,0,0,0,37-11c26.72-13.56,40.52-34.75,45.66-42.85,11.84-18.67,5.5-19.81,19.81-43,7.31-11.84,13.89-19.54,11.11-27.54C399,59.14,387.76,56.28,386.51,56c-2.88-.69-10.18-1.9-24.21,5.12-8.82,4.41-26.57,13.28-36.18,33-9.19,18.9-.08,25.43-10.49,42.94-7.14,12-13.55,12.52-21.88,26.15a78.93,78.93,0,0,0-10.63,30.43Z"/><path class="cls-19" d="M264.16,208.43c-1.38,19.52-6.65,50.34-13.76,76.18-10.06,36.58,7.66,58.13-4.93,79.32"/><path class="cls-19" d="M176.17,148.24c10.79,4.44,35,16,53.59,38.33,18.9,22.66,26.16,52.3,28.53,63.75"/><path class="cls-19" d="M283.12,193.66c-2.56,4.49-6.67,11.46-9.1,16.69-6.06,13-12.8,27.74-15.46,38.58"/><path class="cls-19" d="M170.88,152.6c-4.36-.69-31.1-5.39-47.89-30.67-16-24.15-11.2-49.26-10.23-53.82"/><path class="cls-19" d="M283.12,193a125.48,125.48,0,0,0,38.75-32.29A127.09,127.09,0,0,0,348.24,97.2"/><path class="cls-19" d="M262.4,205.9c1-16.51-2.18-28.82-5.92-37.67-11-26.09-31-31.72-49.51-60.27a132.63,132.63,0,0,1-16.69-37.67"/><path class="cls-15" d="M785.27,198.33c-1.94-.25-10.08-1.11-17.62,2.93a20.21,20.21,0,0,0-7.8,7.16"/><path class="cls-15" d="M789.38,198.81c-2-.09-10.19-.29-17.43,4.33a20.25,20.25,0,0,0-7.25,7.72"/></g><g id="Layer_7" data-name="Layer 7"><path class="cls-11" d="M795.48,176.09a15.21,15.21,0,0,0,4-4.36c.28-.41.54-.87.86-1.25s.16-.5.32,0a3.2,3.2,0,0,1,.08.93,5.92,5.92,0,0,1-1.28,3.66c-.49.62.39,1.51.88.88a7.31,7.31,0,0,0,1.61-3.8c.09-.91.19-2.88-.89-3.29s-2.15,1.52-2.66,2.27a13.89,13.89,0,0,1-3.53,3.91c-.66.45,0,1.53.63,1.08Z"/><path class="cls-11" d="M800.71,176.09c2-2.22,4.26-4.24,6.4-6.36a3.45,3.45,0,0,0,.63-.69,3.38,3.38,0,0,1-.51,1.69,15,15,0,0,1-1.25,1.82,34.27,34.27,0,0,1-3.25,3.66.62.62,0,0,0,.88.88,31.5,31.5,0,0,0,4.26-5c.56-.84,1.89-3.17.75-4.07s-2.8,1.23-3.47,1.85c-1.85,1.72-3.61,3.52-5.32,5.38-.54.59.34,1.48.88.88Z"/><path class="cls-11" d="M808.12,170c2.88,1.29-2.45,7.44-3.55,8.4-.61.53.27,1.41.88.89,1.79-1.55,7.39-8.54,3.3-10.37-.73-.33-1.36.75-.63,1.08Z"/><path class="cls-11" d="M809.11,173c1,3.63-1.06,6.78-3.87,8.91-.63.48,0,1.56.63,1.07,3.27-2.47,5.57-6.1,4.44-10.31a.62.62,0,0,0-1.2.33Z"/><path class="cls-11" d="M808.92,178.26c-.43,7.33-11.07,7.59-16.19,7.3-.8-.05-.8,1.2,0,1.25,6,.34,17-.45,17.44-8.55.05-.81-1.2-.8-1.25,0Z"/><path class="cls-11" d="M815.23,181.88c-2.67,2.63-6.31,2.75-9.79,2-.78-.17-1.12,1-.33,1.2,3.93.85,8,.64,11-2.32a.62.62,0,0,0-.88-.88Z"/><path class="cls-11" d="M811.22,172.82l-1.32,1.24c-.59.55.3,1.43.89.88l1.32-1.24c.58-.55-.3-1.43-.89-.88Z"/><path class="cls-10" d="M787,207.29a20.64,20.64,0,0,0-4.13-2.33,17.18,17.18,0,0,0-7.2-1.19q-4.68,4-9.58,8.06l-4.05,3.3a5.4,5.4,0,0,0-1.09,2.66,5.69,5.69,0,0,0,1.24,4.1"/><path class="cls-10" d="M789.6,216.33a12.61,12.61,0,0,0-.06-3.39,12.75,12.75,0,0,0-2.27-5.49"/><path class="cls-10" d="M779.34,217.27a5.05,5.05,0,0,0,.69-3.44,5.19,5.19,0,0,0-2.19-3.39"/><path class="cls-10" d="M775.2,217.53a3.35,3.35,0,0,0,.5-2.45,3.47,3.47,0,0,0-1.94-2.38"/><path class="cls-10" d="M956.23,484.44a55.26,55.26,0,0,1-8.61,1,43.27,43.27,0,0,1-6.07-.3l.15,4.25c-1.46,0-6.88,0-10.38,3.65a12.9,12.9,0,0,0-3.09,6.89,15.14,15.14,0,0,0-.1,4.56l.37,3a109.53,109.53,0,0,0,13-1.21c2.71-.42,12.06-1.73,14.45-2.27"/><path class="cls-10" d="M956.15,480.2c.16,2.39.37,5.73.42,8.26a126.39,126.39,0,0,1-.61,16"/><path class="cls-10" d="M931.6,483.91a63.51,63.51,0,0,1-8.12.15q-3.19-.15-6.09-.56"/></g><g id="Layer_8" data-name="Layer 8"><path class="cls-10" d="M941.51,485v-5.86"/><path class="cls-10" d="M931.14,479.1c.29,4.44.49,8.87.46,13.31"/><path class="cls-10" d="M917.9,478.43a39.75,39.75,0,0,0-.51,5.42,6.46,6.46,0,0,1-.86,4c-.95,1.44-2.56,1.79-4.17,2.38a22.73,22.73,0,0,0-7.87,5.34c-1.12,1.24-3.16,4.06-3.09,9.53l0,1.73a6.29,6.29,0,0,0,.87.73c3.09,2.09,7.37.62,7.69.55l10.08-2.36,7.92-2.35"/><path class="cls-10" d="M912.12,492.23a9.61,9.61,0,0,1,4.49,1,8.93,8.93,0,0,1,3.38,2.89"/><path class="cls-10" d="M908.05,495.25a7.3,7.3,0,0,1,3.61.73,6.82,6.82,0,0,1,3.23,3.54"/><path class="cls-10" d="M935.61,492.42A18,18,0,0,1,941,494a17.1,17.1,0,0,1,3.43,2.11"/><path class="cls-10" d="M933.61,495.16a8,8,0,0,1,3.77,1.18,7.39,7.39,0,0,1,2.14,2"/><path class="cls-15" d="M959.67,266.88a64.92,64.92,0,0,0-16.14,11.34,46.8,46.8,0,0,0-8.69,12,61.16,61.16,0,0,1-6.69-14.89,68.43,68.43,0,0,1-2.44-10.82"/><path class="cls-10" d="M948.09,250a14.89,14.89,0,0,0,.25,9.27,13.8,13.8,0,0,0,2,3.61"/></g><g id="Layer_13" data-name="Layer 13"><path class="cls-8" d="M338.88,269.43q3.22,12,6.44,24.09a49.48,49.48,0,0,1-1.78,6.5,53.18,53.18,0,0,1-5.73,11.34c-4.16,6.31-10.07,11.56-14.19,14.81C328.36,307.46,334.13,288.14,338.88,269.43Z"/></g><g id="Layer_9" data-name="Layer 9"><path class="cls-10" d="M318.9,196.08a9,9,0,0,0-4.85,3,15.07,15.07,0,0,0-2.66,6.81,4.2,4.2,0,0,1-.43,1.77c-1,1.82-3.42,1.62-3.73,2.74-.21.78.95,1.07,1.74,2.54,1.1,2.07-.07,3.52.34,6.69a9.76,9.76,0,0,0,1.5,4.39c2.08,2.56,7.72,2.22,13.86-.35"/><path class="cls-10" d="M318.13,195.53a21.9,21.9,0,0,1,9.54-2.13,17.83,17.83,0,0,1,8.37,3.37,24.73,24.73,0,0,1,3.94,3"/><path class="cls-10" d="M329.52,212.36c1.64-.24,3.09.43,3.46,1.39.46,1.2-.62,3.29-3,3.81"/><path class="cls-10" d="M328,222.4a24.68,24.68,0,0,0,6-2.54c2.33-1.38,5-3,6.56-5.88,2.38-4.44.83-9.29.35-10.63"/><path class="cls-10" d="M339.56,199.61a7.64,7.64,0,0,1,2.66-5.49,8,8,0,0,1,5.82-1.61c4.12.61,6.07,5.33,6.86,7.18,3.33,7.81-.53,15.91-1.61,18"/><path class="cls-10" d="M341.5,203.09a17.1,17.1,0,0,1,2.72,3.31c5.82,9.2,1,21.06-.06,23.5"/><path class="cls-10" d="M339.72,198.44a6.7,6.7,0,0,0,.49,3.87,3.64,3.64,0,0,0,1.32,1.48"/><path class="cls-15" d="M337.78,198.13a15.66,15.66,0,0,0-11.24-2.93,14,14,0,0,0-4.86,1.72"/><path class="cls-15" d="M339.54,200.38a12.68,12.68,0,0,0-12.39.9"/><path class="cls-15" d="M340,201.25a12.29,12.29,0,0,1-4,4.43,13.21,13.21,0,0,1-4.43,1.94"/><path class="cls-15" d="M339.85,204.73a21.65,21.65,0,0,1-.93,6.55,22.69,22.69,0,0,1-4.88,8.58"/><path class="cls-10" d="M331,221.52c-.24,1.25-.49,2.51-.74,3.77q-.54,2.72-1.1,5.38"/><path class="cls-10" d="M316.22,225.77,315,234"/><path class="cls-10" d="M329.09,230.26a13.16,13.16,0,0,1,2,5.75"/><path class="cls-10" d="M315,233.48c-1.06,1.67-2.14,3.47-3.18,5.4-.6,1.09-1.15,2.16-1.66,3.21"/><path class="cls-10" d="M331.44,235.87q-6.29,1.71-12.77,3.64c-3.06.91-6.09,1.84-9.06,2.78"/><path class="cls-10" d="M331,236a45.12,45.12,0,0,1,3.14,6.1c1.79,4.26,2.3,7.27,3.74,13.54.63,2.71,1.56,6.6,2.8,11.32a22.46,22.46,0,0,0-8.16,2.11,22.49,22.49,0,0,1-5.19,1.6,3.79,3.79,0,0,1-2.4,0c-.91-.35-1-1.18-2-1.81a4,4,0,0,0-2.21-.62"/><path class="cls-10" d="M337.76,267.1c2.51,9.13,5.24,18.95,7.75,28.08-.13.6-.26,1.2-.42,1.81-1.66,6.56-5.85,16-17.36,25.46l-1.23,2.4"/><path class="cls-10" d="M324.8,270.29c3.05,7.65,6.24,15.71,9.29,23.36l-9.29,24.12a9.82,9.82,0,0,0-2.86,4.15,9.58,9.58,0,0,0,.41,7.18c1.15,2.38,3.93,4,4.76,4.47"/><path class="cls-10" d="M329.09,230.27a22.09,22.09,0,0,1-12,3.69,20.12,20.12,0,0,1-2.1-.12"/><path class="cls-10" d="M309.61,242.29c-3.17,4.55-6.05,8.31-6.91,11.47-6.19,23-9.66,37.14-9.74,40.32-.06,2.76-.66,3.11-.58,4.58a41.91,41.91,0,0,0,15.85,5.52c9.55,1.28,18.46-.11,22.14-1.54-1.11-8.39-2.88-20.35-4-28.74"/><path class="cls-10" d="M327.72,344.43,334,413.94a29.75,29.75,0,0,1,.9,14.65,52.24,52.24,0,0,1-13.84,4.57,45.68,45.68,0,0,1-5.83.43c-.74,0-1.36,0-1.8,0q-.9-5.78-1.81-11.53c-.6-9.54-1.49-19.55-2.75-30a567.46,567.46,0,0,0-10.48-58.49"/><path class="cls-10" d="M299.57,338.87c-4.72,5.15-2.91,3.2-7.68,8.54q-8.28,9.27-16.22,18.45c0,2.74,0,5.62-.17,8.63a130,130,0,0,1-2.45,19.14,17.33,17.33,0,0,1-1,10.65A15.86,15.86,0,0,1,261.41,409a14.66,14.66,0,0,1-7-1.7c-.29-4.16-.49-8.48-.57-13a244.37,244.37,0,0,1,1.81-34.07c.83-1.31,1.67-2.61,2.51-3.92q16.1-25.24,30.77-50.55a6.31,6.31,0,0,0,2.61-3.31,16.82,16.82,0,0,0,.79-3.78"/><path class="cls-10" d="M268.25,407.12l-.49,9.18"/><path class="cls-10" d="M257.36,408.4l-.52,7.76"/><path class="cls-10" d="M330.28,435.18a11.44,11.44,0,0,1,3,3.51,14.69,14.69,0,0,1,1.68,8.17l.22,4.72-29.34,3.8a27,27,0,0,1,5.07-6.81c3.95-3.8,5-4.57,5-4.57,1.31-1,2.56-1.75,3-3.38a5.31,5.31,0,0,0-.13-2.94"/><path class="cls-10" d="M267.3,415.36a14,14,0,0,1,3.39,4.71,16.82,16.82,0,0,1,.18,12l-29.82-1.67a37.53,37.53,0,0,1,5.07-6.65,39.89,39.89,0,0,1,11.07-8.33"/><path class="cls-10" d="M329.41,431.12c.17.88.35,1.78.55,2.7.11.46.21.91.32,1.36"/><path class="cls-10" d="M317.19,433.54l1.91,5"/><path class="cls-10" d="M267.3,415.36a22,22,0,0,1-5.65,3.17,21.2,21.2,0,0,1-10.93,1.07"/><path class="cls-10" d="M330.17,434.69a17.37,17.37,0,0,1-3.69,4.52,14.43,14.43,0,0,1-8.93,3.51"/><path class="cls-10" d="M353.29,217a16.61,16.61,0,0,1,1,2.22s.33.89.56,1.82c.39,1.59-2.18,9.15-7.85,18.44"/><path class="cls-10" d="M344.29,229.6a10.47,10.47,0,0,0-.05,4.81,10.65,10.65,0,0,0,2.81,5.1"/><path class="cls-10" d="M272.92,393.67a17.46,17.46,0,0,1-7.22,4.24,16.39,16.39,0,0,1-6.2.56"/><path class="cls-10" d="M333,402.47a20.81,20.81,0,0,1-15.09,5.63"/><path class="cls-13" d="M961.91,465.1q66.74.09,133.49.11h24.35c-7.56-100.84-49.79-147.51-75.35-164.49C1019.81,284.39,985,270,985,270c-5.26-2.17-9.65-3.85-12.63-5"/><path class="cls-13" d="M0,465.31q457.37-.19,914.27,0"/><path class="cls-10" d="M315,203.23a8,8,0,0,1,3.89.09,7.19,7.19,0,0,1,2.45,1.23"/><path class="cls-11" d="M320.22,208.65c-.52-2.28-3.74-3.42-5.49-1.86-.61.53.28,1.41.88.88,1.07-.95,3.11,0,3.4,1.31.18.79,1.39.46,1.21-.33Z"/><path class="cls-11" d="M315,206.44c-1.65.35-2.12,3.55-.27,3.94a1.77,1.77,0,0,0,2-1,1.94,1.94,0,0,0-.75-2.42c-.66-.46-1.29.62-.63,1.08a.68.68,0,0,1,.24.85c-.08.17-.38.44-.61.3s-.13-.62-.09-.84.15-.59.48-.66c.79-.17.45-1.38-.33-1.21Z"/><path class="cls-11" d="M315,202.74a6.53,6.53,0,0,0-1,.64l.53.53a.67.67,0,0,1,.63-.27l-.1-.74a3.13,3.13,0,0,0-.7.37c-.32.23-.14.83.29.69l.68-.23c.45-.15.26-.88-.2-.72l-.68.22.29.69a2,2,0,0,1,.52-.29.38.38,0,0,0-.1-.74,1.36,1.36,0,0,0-1.16.49.37.37,0,0,0,.53.53,5.22,5.22,0,0,1,.85-.52c.43-.22.05-.87-.38-.65Z"/><path class="cls-11" d="M310,217.17a6.11,6.11,0,0,1,1.86,0,5.11,5.11,0,0,1,.75.18,3.93,3.93,0,0,1,.54.2l-.15.2a5.44,5.44,0,0,1-1.08,1.32,16.57,16.57,0,0,1-1.21,1.16c-.37.31.16.84.53.53a14.37,14.37,0,0,0,1.88-1.94c.32-.39,1-1,.73-1.56s-1.08-.66-1.54-.76a6.83,6.83,0,0,0-2.51,0c-.47.08-.27.8.2.72Z"/><path class="cls-11" d="M334.17,47.27c-1.29-1.71-1.76-3.82-2.54-5.78a.63.63,0,0,0-1.14-.15c-1.4,2.07-3.11,4.24-5.48,5.22-.4.17-.68.71-.28,1a9.52,9.52,0,0,1,3.4,8.19.63.63,0,0,0,1.23.16,12.55,12.55,0,0,1,4.73-7.63c.64-.49-.25-1.37-.88-.88a13.41,13.41,0,0,0-5,8.18l1.22.17a10.6,10.6,0,0,0-3.77-9.07l-.27,1c2.72-1.12,4.61-3.41,6.23-5.8l-1.14-.15c.81,2.06,1.31,4.29,2.66,6.08.48.63,1.57,0,1.08-.63Z"/><path class="cls-11" d="M734.16,84a11.69,11.69,0,0,1-4.59-10.63c.06-.73-1-.8-1.23-.16A25.5,25.5,0,0,1,721,84.22a.63.63,0,0,0,.12,1,10.41,10.41,0,0,1,4.56,8.15.63.63,0,0,0,1.25,0,9.72,9.72,0,0,1,6.39-8.46c.75-.29.42-1.5-.33-1.21a11.06,11.06,0,0,0-7.31,9.67h1.25a12.25,12.25,0,0,0-1.16-4.76c-.43-.85-3-3.47-3-4.06,0-.82,3.15-3.74,3.78-4.69a27.21,27.21,0,0,0,3-6.35l-1.23-.17a12.8,12.8,0,0,0,4.95,11.52c.63.49,1.52-.39.89-.89Z"/><path class="cls-15" d="M341.5,203.06a7.62,7.62,0,0,1,4.62.62c3.08,1.57,3.93,5.22,4.73,8.94a31.84,31.84,0,0,1-5.24,25.4"/></g><g id="Layer_10" data-name="Layer 10"><path class="cls-13" d="M234.77,363.71c.81-48.86.75-83.44,1.56-132.3.1-.49,1.46-7.27-3.26-12.32a12.57,12.57,0,0,0-13.18-3.33L38.81,253.93c-1,.37-7.32,2.88-9.58,9.71a16.2,16.2,0,0,0-.5,7.73C30.12,279.6,31.4,331.44,32.6,407c.17,1.66,1.07,8.69,6.64,12.91,3.75,2.85,8,3.19,10.49,3.39a26.93,26.93,0,0,0,7.59-.55c6.61-1.27,22.36-8.24,28.86-9.57"/><polyline class="cls-10" points="222.3 241.51 52.41 277.25 54.81 399.04 221.76 352.29 221.76 241.51"/><path class="cls-11" d="M314.83,240.61c-6.22,20.17-9.33,41-12.34,61.87-.12.79,1.09,1.13,1.2.34,3-20.85,6.12-41.71,12.35-61.88a.63.63,0,0,0-1.21-.33Z"/><path class="cls-11" d="M322.27,238.79q-4,32.72-5.06,65.68c0,.81,1.22.81,1.25,0q1-32.94,5.06-65.68c.1-.79-1.15-.79-1.25,0Z"/><path class="cls-11" d="M328.11,237.45a183.36,183.36,0,0,1,5.21,30.61c.07.8,1.32.81,1.25,0a185.42,185.42,0,0,0-5.26-30.94.62.62,0,0,0-1.2.33Z"/><path class="cls-11" d="M334.47,244c-4.24.15-7.88,2.73-11.75,4.21-6,2.28-12.09,3.2-18.29,1.25-.77-.24-1.1,1-.33,1.21a25.42,25.42,0,0,0,13.76.38c5.44-1.29,11.1-5.61,16.61-5.8a.63.63,0,0,0,0-1.25Z"/><path class="cls-11" d="M337.57,256.19c-5.63,2.43-11.23,5.21-17,7.21-6.79,2.34-13.46,1.53-20.35.08-.78-.16-1.12,1-.33,1.21,6.46,1.35,13,2.31,19.46.41s12.7-5.16,18.88-7.83c.74-.32.1-1.4-.63-1.08Z"/><path class="cls-11" d="M297.88,275c3-.29,5.63,1.21,8.36,2.22a78.56,78.56,0,0,0,8.64,2.56,20,20,0,0,0,12.68-.45c.75-.27.43-1.48-.33-1.21-6,2.12-11.33.85-17.24-1-3.95-1.21-7.88-3.82-12.11-3.41-.79.08-.8,1.33,0,1.25Z"/><path class="cls-11" d="M328.11,290a40.34,40.34,0,0,1-18.27,3.28c-5.57-.37-10.84-2.1-16.45-1.45-.79.09-.8,1.35,0,1.25,6.16-.72,12.1,1.43,18.25,1.52a42,42,0,0,0,16.8-3.4c.73-.3.41-1.51-.33-1.2Z"/><path class="cls-11" d="M801.88,155.06a19,19,0,0,0-3.71-8.15c-3.06-4-5.22-7.78-5.93-12.89-.11-.79-1.32-.45-1.21.34a24,24,0,0,0,3.72,10.18c2.43,3.64,5.06,6.37,5.93,10.86.15.79,1.36.45,1.2-.34Z"/><path class="cls-11" d="M804.63,155.87c4.07-6.3,8-12.66,9.39-20.14.14-.78-1.06-1.12-1.21-.33-1.37,7.38-5.24,13.63-9.26,19.84-.43.67.65,1.3,1.08.63Z"/></g></svg>