<svg xmlns="http://www.w3.org/2000/svg" viewBox="0 0 841.89 595.28"><defs><style>.cls-1{fill:#fce9e0;}.cls-2{fill:#00a38e;}.cls-3,.cls-7{fill:none;}.cls-3,.cls-7,.cls-8{stroke:#214e8b;}.cls-3,.cls-4,.cls-7,.cls-8{stroke-miterlimit:10;}.cls-4{fill:#f2a042;stroke:#26528e;}.cls-5{fill:#8045dd;}.cls-6,.cls-8{fill:#214e8b;}.cls-7{stroke-width:2px;}</style></defs><title>What and why</title><g id="Layer_4" data-name="Layer 4"><path class="cls-1" d="M666.9,448.82c-37.82-19.05-76-8.2-118.94-5.92-29,1.54-58.1,4.63-86.81,2.54a249.69,249.69,0,0,1-117.77-40.23c-18.18-11.95-34.06-25.71-53.48-36.63-33.28-18.72-82.12-27.85-119.8-12-37,15.59-51,51.25-40.15,80.22s41.56,51.77,75.76,68.75C270.45,537.7,350,552.89,429.82,556.25c71.59,3,148.38-4.22,206.59-35.85C655.6,510,673,496.09,677.3,479.32S674.82,446.6,651.52,444"/></g><g id="Layer_1" data-name="Layer 1"><path class="cls-2" d="M303.66,200a16,16,0,0,0,3.87,5.14,15.26,15.26,0,0,0,8.61,3.77,15.73,15.73,0,0,0,12.18-4.59c2.37-2.45,3.87-7.18,3.87-7.18l.91-.87a38.14,38.14,0,0,1,9.32,4.9,29.21,29.21,0,0,1,5.39,4.67,22,22,0,0,1,6,15.23,57.4,57.4,0,0,1-1.5,14.84c-1.74,7.83-2.7,12.35-5.07,21.28-1,3.6-1.75,6.4-4.09,9.32a20,20,0,0,1-7,5.44l1.37-2.35a2.27,2.27,0,0,0,1.65-.48,1.51,1.51,0,0,0,.65-1.12,1.56,1.56,0,0,0-.7-1.24,3.78,3.78,0,0,0,.59-1.3,3.48,3.48,0,0,0-.12-2.08,3.29,3.29,0,0,0-1.3-1.53,1.19,1.19,0,0,0,1.18-.54,1.59,1.59,0,0,0-.06-1.36,5.15,5.15,0,0,0-1-1.71c-.94-1-5.25-2.72-11.37-4.19a5.35,5.35,0,0,0,3.8-.9c.55-.4,1.51-.94,1.48-1.72s-1.1-1.34-1.24-1.41a3.8,3.8,0,0,0-2.3-.22c-2.29.32-1.84-.2-4.84.1a26.6,26.6,0,0,0-9.9,2.54,23.16,23.16,0,0,0-5.36,3.68,18.67,18.67,0,0,1,2,2.58,9.75,9.75,0,0,1,1.49,3,9.1,9.1,0,0,1,.14,3.13,26.16,26.16,0,0,1-.83,4.9,32.2,32.2,0,0,1-3,1.54A31.6,31.6,0,0,1,296,274a24.84,24.84,0,0,1-10.26-1.78,22.87,22.87,0,0,1-6-3.71,24.07,24.07,0,0,1-5.59-7.15,33.49,33.49,0,0,1-3.26-9.61,50.1,50.1,0,0,1-.33-16.9,58.24,58.24,0,0,1,4.31-15.67c1.68-3.85,3.31-7.5,6.85-11.28a25.1,25.1,0,0,1,8.5-6.32A23.94,23.94,0,0,1,303.66,200Z"/><path class="cls-3" d="M426.27,183.66a20.46,20.46,0,0,0,2.78,4.51,20.21,20.21,0,0,0,1.81,1.93,2,2,0,0,1,.16,2.1,2.08,2.08,0,0,1-1.8,1.12"/><path class="cls-3" d="M402.05,169.63a18.09,18.09,0,0,0-2,7.82,18.7,18.7,0,0,0,.33,3.74"/><path class="cls-3" d="M403.89,177.41a12.56,12.56,0,0,0-.51,4.48A12,12,0,0,0,404,185"/><path class="cls-3" d="M332,140.45a7.09,7.09,0,0,1,4.36,3.34,7.38,7.38,0,0,1,0,6.6"/><path class="cls-3" d="M328.11,143.08a5.8,5.8,0,0,1,1.93,2.64,6,6,0,0,1-.3,4.47"/><path class="cls-3" d="M439.17,240.49H426.26a33.32,33.32,0,0,0,1,14.33l4.63,3.64,6.08-4.55c.13-1.6.26-3.2.4-4.81Q438.77,244.77,439.17,240.49Z"/><path class="cls-3" d="M419.24,223.53q0,6.74-.1,13.46"/><path class="cls-2" d="M346.11,261.18,352.22,298a73.21,73.21,0,0,1-6.79,2.93c-15.25,5.69-28.64,4.85-35.9,4.33a101.7,101.7,0,0,1-23.23-4.47q-.3-14.28-.59-28.58a20.89,20.89,0,0,0,7.16,2c7.74.7,15.88-3.14,18.21-4.23a15.08,15.08,0,0,1,3.52-1.27,17.09,17.09,0,0,1,7.91.42,22.9,22.9,0,0,1,6.49,2.16,7.73,7.73,0,0,0,3.1,1.07,7,7,0,0,0,2.16-.12,3.94,3.94,0,0,0,1.9-.83,3.15,3.15,0,0,0,.82-1.14l.09-.6a3,3,0,0,0,1.49-.28,3.12,3.12,0,0,0,1.21-1"/><path class="cls-4" d="M389,315.24a134.55,134.55,0,0,0,45,1.91,127.24,127.24,0,0,0,14.55-2.81q.26,18.82.86,38.2.51,16,1.23,31.67a40,40,0,0,1-4.42,1.63,41.31,41.31,0,0,1-20.15,1,40.3,40.3,0,0,1-8.52-2.77,31.56,31.56,0,0,1-5.2,1.55,36.92,36.92,0,0,1-10.78.36,47.75,47.75,0,0,1-16.2-3.72"/><path class="cls-5" d="M494.58,201.29a12.81,12.81,0,0,0,4.06,6,12.13,12.13,0,0,0,16.11-.47,13,13,0,0,0,4-7.16,38.38,38.38,0,0,1,10.94,1,34.16,34.16,0,0,1,11.15,4.69,33.58,33.58,0,0,1,8.89,8.92c7.5,10.26,13.93,20.46,17.44,26.17L548.9,253.44l-6.41-9.38,2.76,27.45-11.64,2.82a20.87,20.87,0,0,0-5.53-4.44,22.23,22.23,0,0,0-9.58-2.58c-4.34-.38-6,.46-6.67.86a7.86,7.86,0,0,0-2.06,1.82,2.44,2.44,0,0,0-1.68.92,3.29,3.29,0,0,0-.57,1.56,3.06,3.06,0,0,0,.24,1.25,5.87,5.87,0,0,0,2.73,2.66,3.11,3.11,0,0,0,.56,1.61c.62.86,1.58,1.12,3.41,1.59,3.5.89,3.67.92,3.67.92,6.73,1.22,5.43,1.07,7.22,1.34a126.86,126.86,0,0,0,13.56,1.24c2.15.09,4.93.14,8.18.07q1,5.21,2,10.41-2.93,1-6,1.82a149.65,149.65,0,0,1-22.75,4.49l-11.85.93-21.69-.74-3.25-47.15h-9.73c-.14-5.79-.11-10.63-.05-14.12.22-12.83,1-16.84,2.11-20.34,1-3.29,1.89-6,4.16-8.9C484.75,203.56,491.61,201.84,494.58,201.29Z"/><path class="cls-3" d="M339.78,152.11a28,28,0,0,1,2.44,6,27.53,27.53,0,0,1,1,6.94"/><path class="cls-3" d="M344.45,178.26a24.6,24.6,0,0,1-1.56,6.81,19.7,19.7,0,0,1-6,9,18.58,18.58,0,0,1-9.33,3.78,19.55,19.55,0,0,1-13.28-3.52,19.92,19.92,0,0,1-5.38-5.67"/><path class="cls-3" d="M304.73,171.34c-.58.12-.91.29-1.82,1.3a5.65,5.65,0,0,0,.52,7.6,5.21,5.21,0,0,0,3.32,1.17"/><path class="cls-3" d="M301.41,182.89c.49,1.61.94,3.37,1.32,5.26a54.69,54.69,0,0,1,1,12.37"/><path class="cls-3" d="M303.66,200a24.38,24.38,0,0,0-12.12,1c-16.45,5.87-20.33,29.47-20.92,33a43.06,43.06,0,0,0-.71,7.52c0,4.14.06,21.06,12.36,28.87,12.66,8,28.25,0,28.9-.33A12.1,12.1,0,0,0,307.38,255l-12.86-2.49"/><path class="cls-3" d="M332.42,196.7A31.44,31.44,0,0,1,344.74,203a29.66,29.66,0,0,1,5.76,6.38c5,7.85,3.52,17.18,1.29,29.87a133.42,133.42,0,0,1-5.28,20.32"/><path class="cls-3" d="M302.88,189c-.69-.42-15.44-9.75-15.17-27,0-1.6.4-16.81,12.6-24.35,4.17-2.57,8.06-3.05,13.85-3.77,4.8-.61,12.77-1.5,20.68,2.48,1.2.6,8.32,4.19,8,8-.13,1.26-1,1.88-3.13,6.64-.94,2.13-.75,2-1,2.29-3.26,4.66-16.78-1.25-20.21,5.37-1.57,3-5.89-.08-6.49,5.67-.13,1.2-1.68,7-3.65,8.76-1.34,1.17-3.38-2-4.14-1.35"/><path class="cls-3" d="M349.14,166a11.45,11.45,0,0,0-5.07-.71,10.83,10.83,0,0,0-3,.71c-.08,2.58-.15,4.53-.21,5.74a8,8,0,0,0,.4,4,4.37,4.37,0,0,0,2.08,2.41c1.85.78,3.91-.64,4.21-.85C350.05,175.48,350.62,171,349.14,166Z"/><path class="cls-3" d="M336.47,165.75a15.1,15.1,0,0,0-4.33-.92,15.61,15.61,0,0,0-8,1.7,13.13,13.13,0,0,0-.32,7.43c.2.78,1.74,6.76,5.62,7.21,3.33.39,6-3.54,7-5.62A12.43,12.43,0,0,0,336.47,165.75Z"/><path class="cls-3" d="M332.28,196.76A15.16,15.16,0,0,1,315,208.81c-7.82-1.3-11.07-8.22-11.32-8.77"/><path class="cls-3" d="M285.71,272.2q.3,14.3.59,28.58a96.88,96.88,0,0,0,66-2.33q-2.82-17.49-5.65-35"/><path class="cls-3" d="M323.91,167.12l-19.73,4"/><path class="cls-3" d="M352.3,298.45q4.29,68.67,4.89,141,.07,11.68.05,23.26a32.65,32.65,0,0,1-19,4,32,32,0,0,1-12.88-4.23q-3.57-60-7.15-120L313.68,415l-4.29,46.95a63.07,63.07,0,0,1-26.6.75,807,807,0,0,1-.69-117.83c1-15.23,2.46-29.92,4.2-44.06"/><path class="cls-3" d="M349.61,465.56a11.35,11.35,0,0,0,2.72,5.19c1.9,2,3.45,2,7.76,4.41,3.18,1.81,4.77,2.72,5.86,4.31.75,1.09,2.26,3.87,1.13,9a32.77,32.77,0,0,1-22.12,1.1,31,31,0,0,1-10.66-6q-.49-9-1-18.08"/><path class="cls-3" d="M289.1,463.27a11.37,11.37,0,0,1-2.47,5.31c-1.8,2.08-3.36,2.12-7.55,4.77-3.08,2-4.63,2.94-5.65,4.58-.69,1.12-2.07,4-.7,9.09a32.75,32.75,0,0,0,22.14.06,31,31,0,0,0,10.37-6.5l.15-18.1"/><path class="cls-3" d="M434.18,170.28a70.86,70.86,0,0,1,5.05,14.62c1.18,5.21,1.83,8.23.93,12.14-.51,2.24-1.78,7.76-6.88,10.6-6.56,3.66-14.06-.13-15.18-.72a21.27,21.27,0,0,1-7.22-6.87"/><path class="cls-3" d="M406.79,192a4.54,4.54,0,0,0-2.58,2.84c-.48,2.19,1.49,4.3,3.46,5a5.52,5.52,0,0,0,3.75-.14"/><path class="cls-3" d="M420.34,182a7.79,7.79,0,0,0-7.9,2.55"/><path class="cls-3" d="M434.8,175.83a6.15,6.15,0,0,0-7.29,2.16"/><path class="cls-3" d="M420.87,185a5.3,5.3,0,0,0-3.63-.29,6.11,6.11,0,0,0-3.38,2.57"/><path class="cls-6" d="M419.44,188a1.88,1.88,0,0,0,0-3.75,1.88,1.88,0,0,0,0,3.75Z"/><path class="cls-3" d="M436,179.72a5.39,5.39,0,0,0-3.64-.29,6.11,6.11,0,0,0-3.37,2.57"/><path class="cls-6" d="M434,182.66a1.88,1.88,0,0,0,0-3.75,1.88,1.88,0,0,0,0,3.75Z"/><path class="cls-3" d="M435.5,209.31c7.81.22,11.84,3.58,13.61,5.23,6.15,5.78,8.64,15.24,9,16.48a50.17,50.17,0,0,0,3,9.94,37.47,37.47,0,0,0,3.51,6.28c-1.08,1.72-2.07,2.81-7.18,5.69s-10.6,3.34-12.4,3.08"/><path class="cls-3" d="M389,317.34c-.26-15.45,3.8-45.69,3.54-61.13"/><path class="cls-3" d="M444.42,248.33c.67,21,3.37,45,4,66a129.47,129.47,0,0,1-31,4A142.5,142.5,0,0,1,389,315.24"/><path class="cls-3" d="M409.21,200.36c.05,2.17-.18,6.59-2,9.31-3.66,5.57-10.44,3.5-16.34,6.57C383,220.36,379.19,231.3,378.53,239c-.06.7,0,2.49,0,6,.09,8.05-.1.18.06,4.46"/><path class="cls-3" d="M448.46,314.34c.27,19,.79,39.14,1.59,58.6.16,3.77.33,7.52.5,11.27a41.12,41.12,0,0,1-19.78,3.29A40.45,40.45,0,0,1,417.46,384q-.7-15.26-1.43-30.51"/><path class="cls-3" d="M389,317.34c-1.23,21.17-2.46,43.72-3.69,64.89a47.42,47.42,0,0,0,14.7,3.62A48,48,0,0,0,417.46,384"/><path class="cls-3" d="M446.13,385.84c-.65,10.56-1.85,43.09-2.27,54.05q-.53,13.65-.77,26.88"/><path class="cls-3" d="M422.77,386c.78,10.75,3.57,44.47,4.86,55.89q1.42,12.45,3.14,24.31"/><path class="cls-3" d="M414.47,384.82c-.89,18-5.11,69.05-6,87.09"/><path class="cls-3" d="M391.38,384.34c1.39,17.92,3.42,58.06,4.38,76.27.06,1.25.13,2.49.19,3.74"/><path class="cls-3" d="M443.09,466.77c-.53,3.57.26,5.71,1.11,7,1.1,1.69,2.19,1.82,6.31,5.05,2.54,2,3.83,3,4.5,4.32,1.38,2.67.75,5.64.18,7.39-.95.41-11.17,4.57-19.1-1.08a16.38,16.38,0,0,1-4.87-5.59l-.45-17.66"/><path class="cls-3" d="M408.47,471.62c.64,2.3,1.14,4.28,1.52,5.84a66.8,66.8,0,0,1,1.6,8.45c.4,3.44.21,4.62-.4,5.75a7.63,7.63,0,0,1-3,2.87c-2.61,1.49-6.55,2-9.36.36-1.26-.72-2.76-2.12-3.78-6.47-.76-3.24-1.58-9.49,1.48-17.87q-.35-3.92-.71-7.83"/><path class="cls-3" d="M392.51,257.07a36.86,36.86,0,0,1-7.15,0,36.41,36.41,0,0,1-6.67-1.31c0-2.91-.09-5.83-.14-8.74"/><path class="cls-3" d="M435.5,209.31A16.82,16.82,0,0,1,420.6,222"/><path class="cls-3" d="M457.41,252.93q1.72,17.32,3.08,35.45,1.44,19.47,2.28,38.07"/><path class="cls-3" d="M378.69,255.76l-.52,61.53"/><path class="cls-3" d="M483.38,144.16a16.72,16.72,0,0,0-4.25,5.36,22.52,22.52,0,0,0-2.36,14.39l-5.52,5.25a5.09,5.09,0,0,0,4.12,4.26,29.65,29.65,0,0,0,.1,9.82c.55,3.07,1.19,6.6,3.18,8.47,3.71,3.47,12.67,1.69,21.76-4.61"/><path class="cls-3" d="M507.4,163.18c.44-.06,2.94-.35,4.19,1.1,1.49,1.72,1,5.61-2.42,8.38"/><path class="cls-3" d="M434.36,170.67c-.77-1.34-.52-4.14-2.13-6.47a17,17,0,0,0-7.66-5.94c-4.77-2-9.06-1.46-12.17-1.07s-6.14.78-9.53,2.84c-6.92,4.21-8.66,11.6-9,13.35-.11.53-1.57,8.12,1.33,11.54.32.38,1.18,1.28,2.34,2.82,1.28,1.71,1.46,2.25,2.27,3.17a16.88,16.88,0,0,0,4.66,3.2"/><path class="cls-3" d="M433.45,167.08a6.28,6.28,0,0,1-2.23,3.21c-2,1.56-3.64,1-8.17,2.22-2.9.78-4.78,1.31-6.32,2.93a8.67,8.67,0,0,0-2.15,4.41,7.52,7.52,0,0,1-2.44,1.84,7.66,7.66,0,0,1-2.37.68,10.32,10.32,0,0,1-.53,5.59,10.59,10.59,0,0,1-3.36,4.53"/><path class="cls-3" d="M494.72,190.48c0,3.6-.09,7.21-.14,10.81"/><path class="cls-3" d="M482.28,142.07c1.42-1.31,10.45-9.36,23.38-8A29.2,29.2,0,0,1,530,152.15"/><path class="cls-3" d="M518.18,182.94l.54,16.76c5.45-.16,14.73.45,23,6.34,1.61,1.15,4.44,3.39,11.18,12.49a210.32,210.32,0,0,1,14.22,22L548.9,253.44l-12-17.79"/><path class="cls-3" d="M494.58,201.29c-3.58.81-11.32,3.12-15.87,10.06-1.69,2.59-2.24,4.74-3.29,8.88-1.33,5.24-1.5,9.19-1.77,25.09,0,2.09-.08,4.66-.13,7.59h10"/><path class="cls-3" d="M482.46,235q1.07,27.5,3.53,56.09c.26,3,.53,6,.81,8.94a150,150,0,0,0,62.32-6.5l-1.32-7.43"/><path class="cls-3" d="M482.54,141.84c.4,1.82,4.27,10.93,11.58,16.19s12.45,5.3,14.26,5.09"/><path class="cls-3" d="M528.77,152.64c7-3.1,11.28-1.29,12.23-.84,8.45,4,9.21,19.79,5.2,30.28a31.33,31.33,0,0,1-6.29,10,34,34,0,0,1-12.35-34.9"/><path class="cls-3" d="M548.9,253.44l9.33,15-24.36,6.09"/><path class="cls-3" d="M563.08,243.39l13.29,22.86a15,15,0,0,1-1.5,9.28c-5.08,9.12-42,9.81-62,3.57"/><path class="cls-3" d="M547.8,286.13l-.39-1.77"/><path class="cls-3" d="M486.8,300.06,488,362.44A136.42,136.42,0,0,0,551.08,365a103.89,103.89,0,0,0-3.33-71"/><path class="cls-3" d="M518.7,199.11a12.34,12.34,0,0,1-24.12,2.18"/><path class="cls-3" d="M545.25,271.51l-3-27.09"/><path class="cls-3" d="M540.36,367c-3.66,16.23-3.42,31.65-7.09,47.89.43,4.16.7,8.57.75,13.21A146.49,146.49,0,0,1,528,471.25"/><path class="cls-3" d="M512.48,367q-.53,22.63-.06,47c.43,20.17,1.4,39.5,2.78,57.91"/><path class="cls-3" d="M489.56,362.88c.8,17,2.12,35,4.11,53.8s4.5,36.74,7.31,53.62"/><path class="cls-6" d="M331.45,174.14a1.88,1.88,0,0,0,0-3.75,1.88,1.88,0,0,0,0,3.75Z"/><path class="cls-3" d="M528,471.25A39.84,39.84,0,0,1,533.42,491l-35.23,2.17a15.84,15.84,0,0,1,1.37-8.46c3.62-7.62,12.27-9.11,13.19-9.25l2.45-3.64Z"/><path class="cls-3" d="M475.12,252.91q1.59,22.5,3.93,45.89,1.23,12.26,2.62,24.23"/><path class="cls-3" d="M515.2,471.86l-13.64.4c-.24-.9-.47-1.81-.71-2.72"/><path class="cls-3" d="M526.63,165a18.26,18.26,0,0,1-.7,8.11,18.92,18.92,0,0,1-7.75,9.87"/><path class="cls-3" d="M511,170.71a13.37,13.37,0,0,0,1,5.68c1.51,3.62,5.09,5.85,6.19,6.55"/><path class="cls-3" d="M443.54,472.76a8.62,8.62,0,0,0-5.51-2.11,9.19,9.19,0,0,0-7.06,3.79"/><path class="cls-3" d="M408.7,472.47a10.72,10.72,0,0,0-4.8-2.38,11.12,11.12,0,0,0-7.63,1.23"/><path class="cls-3" d="M477.31,178c2.61-.61,4.63.58,4.85,1.84.18,1.07-1,2.18-1.32,2.44a5.21,5.21,0,0,1-3.61,1.24"/><path class="cls-3" d="M479.76,155.56a7.29,7.29,0,0,1,5.07.22,7.07,7.07,0,0,1,2.82,2.26"/><path class="cls-3" d="M480.21,159.61a9.37,9.37,0,0,1,6.76,1,7,7,0,0,1,.9.67"/><path class="cls-6" d="M482.24,163.74a1.88,1.88,0,0,0,0-3.75,1.88,1.88,0,0,0,0,3.75Z"/><path class="cls-3" d="M501.56,472.26,499,476.43A17.62,17.62,0,0,0,488.3,480c-6.26,4.85-6.65,12.3-6.69,13.39l16.58-.18"/><path class="cls-3" d="M341,167.61l-3.93.08"/><path class="cls-3" d="M343.1,165.44q.39,2.56.69,5.28c.3,2.64.51,5.19.65,7.64"/><path class="cls-3" d="M338,186.74q-9.07-.7-9.61,1.1c-.21.71.56,1.72,2.32,3"/><path class="cls-3" d="M326.63,169.32a14.13,14.13,0,0,1,5-1.47,15.14,15.14,0,0,1,2.7,0"/><path class="cls-3" d="M434.79,195.46a12.68,12.68,0,0,0-4.41,2.24,12.14,12.14,0,0,0-2.86,3.16"/><path class="cls-3" d="M387,325.85c-.27,2.61.12,5.71.9,7.13"/><path class="cls-3" d="M387.8,335.35a3.24,3.24,0,0,1-3.1-1.46,8.28,8.28,0,0,1-1.17-3.36c-.25-1.42-.45-2.85-.59-4.28"/><path class="cls-3" d="M385,334.34a2.85,2.85,0,0,1-2.7-.48,6,6,0,0,1-1.69-2.27,14.9,14.9,0,0,1-1.46-7.46"/><path class="cls-3" d="M378.11,317.22a33.54,33.54,0,0,0-.94,8.17,12.33,12.33,0,0,0,1.23,6,5.74,5.74,0,0,0,5,3.13"/><path class="cls-3" d="M448.75,330.61a2.32,2.32,0,0,0,1.73-.56,4.43,4.43,0,0,0,1.12-1.48,14.79,14.79,0,0,0,1.19-7.05"/><path class="cls-3" d="M452.78,321.52c.09,5.27-1.55,10.47-3.88,12.28"/><path class="cls-3" d="M456,324.7a16.46,16.46,0,0,1-1.46,8.12,6.5,6.5,0,0,1-.9,1.48c-1.24,1.44-3.12,1.59-4.84,1.66"/><path class="cls-3" d="M459.33,326.14a9.27,9.27,0,0,1-2.28,7.05,8.23,8.23,0,0,1-5.24,2.31"/><path class="cls-3" d="M462.77,326.59a9.32,9.32,0,0,1-1.5,4.54,5.54,5.54,0,0,1-4.22,2.06"/><path class="cls-3" d="M435.5,209.31,434,207.68"/><path class="cls-3" d="M308.72,256.16a29.27,29.27,0,0,1,8.25-4.63,29.78,29.78,0,0,1,14.41-1.43c.77.51.85,1,.86,1.14.09.91-1.08,2.06-3.05,2.39l-2.39.38c1.68.46,3.47,1,5.35,1.72,2.51.93,3.89,1.57,4.39,1.81a6.69,6.69,0,0,1,2,1c.59.53,1.46,1.64,1.15,2.39s-1.78.83-2.77.86a15.42,15.42,0,0,1-7.25-1.72"/><path class="cls-3" d="M337.6,261.81a3.15,3.15,0,0,1,1.66,1.32,2.71,2.71,0,0,1,.31,2.61c-.71,1.07-2.94.7-5.53.27-1.56-.26-2.18-.53-5.71-1.25l-1.34-.27"/><path class="cls-3" d="M338.6,266.33c.23.19,1.36,1.13,1.15,2s-1.8,1.18-2.68,1.33c-1.59.28-5,.48-10.53-2"/><path class="cls-3" d="M337.36,269.79a5.07,5.07,0,0,1-1.6,2c-4,2.83-9.7-3.7-18.21-3.4a17.17,17.17,0,0,0-6.38,1.49"/><path class="cls-3" d="M346.55,258.75A18.53,18.53,0,0,1,339.73,270a15.87,15.87,0,0,1-4.15,2.2"/><path class="cls-3" d="M481.57,322.89A23.61,23.61,0,0,0,487.23,337"/><path class="cls-3" d="M485.87,330.18l1.49,3.35"/><path class="cls-3" d="M533.61,274.33a20.76,20.76,0,0,0-17-7"/><path class="cls-3" d="M510.21,270.46c4.39-.1,8.86-.2,13.07,1"/><path class="cls-3" d="M516.53,267.43a9.08,9.08,0,0,0-5.82,1.34,2.55,2.55,0,0,0-.77.69,1,1,0,0,0-.08,1"/><path class="cls-3" d="M510.12,270.38a3.51,3.51,0,0,0-1.57.25,1.8,1.8,0,0,0-1,1.15,1.23,1.23,0,0,0,.54,1.38"/><path class="cls-3" d="M520.17,273.49c-2.74,0-5.48,0-8.2-.19-1.4-.07-2.81-.17-4.21-.12"/><path class="cls-3" d="M508.16,273.15c-.25,0-.39.31-.4.57a2.19,2.19,0,0,0,1,1.56,8.75,8.75,0,0,0,5.23,1.93"/><path class="cls-3" d="M510,276.41a2.26,2.26,0,0,0,.31.71,4.59,4.59,0,0,0,3.34,2.17"/><path class="cls-3" d="M529.75,151.82a5.82,5.82,0,0,0-2.76,3,3.74,3.74,0,0,0,.33,3"/><path class="cls-3" d="M530.38,151.82a6.58,6.58,0,0,0-2,2.24,9.44,9.44,0,0,0-1,4.14"/><path class="cls-3" d="M530.91,156.81a41.12,41.12,0,0,0,.21,8.68,41.66,41.66,0,0,0,5.25,15.32"/><path class="cls-3" d="M532.39,153.64a12.87,12.87,0,0,1,5.5,2.61c4.61,3.76,6.21,10.74,4.49,17.95"/><g id="Clock"><circle id="Clock_Frame" data-name="Clock Frame" class="cls-7" cx="685.24" cy="71.41" r="42.07"/><circle id="Time" class="cls-3" cx="685.24" cy="38.08" r="2.38"/><circle id="Time-2" class="cls-3" cx="651.9" cy="71.41" r="2.38"/><circle id="Time-3" class="cls-3" cx="718.57" cy="71.41" r="2.38"/><circle id="Time-4" class="cls-3" cx="685.24" cy="104.75" r="2.38"/><path id="Hand" class="cls-3" d="M685.24,42.84l1.58,27.78h-3.17Z"/><path id="Hand-2" class="cls-3" d="M699.28,85.46,684.69,73.11l2.25-2.24Z"/><circle id="Time-5" class="cls-8" cx="685.24" cy="71.41" r="3.17"/></g><path class="cls-4" d="M617.46,182.48a14.46,14.46,0,0,1,.81-5.15A10.54,10.54,0,0,1,621,173.4q2.82-2.73,5.2-4.74t4.08-3.79a19.24,19.24,0,0,0,2.67-3.33,6.15,6.15,0,0,0,1-3.28,6.62,6.62,0,0,0-2.07-5.19,7.46,7.46,0,0,0-5.19-1.87c-3.16,0-5.57.88-7.21,2.63a10.16,10.16,0,0,0-2.78,6.35l-15.53-1q1.11-10.69,7.86-16.29t17.36-5.6a29.41,29.41,0,0,1,8.72,1.26,21.46,21.46,0,0,1,7.22,3.78,18.21,18.21,0,0,1,4.94,6.26,19.38,19.38,0,0,1,1.82,8.57,21.56,21.56,0,0,1-.61,5.3,16.11,16.11,0,0,1-2.07,4.69,27,27,0,0,1-3.83,4.69,64.63,64.63,0,0,1-6,5.2,10.46,10.46,0,0,0-3.13,3.53,8,8,0,0,0-.81,3.43v2.93H617.46Zm-1.72,19.37a9.52,9.52,0,0,1,.71-3.64,9,9,0,0,1,4.94-4.94,9.66,9.66,0,0,1,7.27,0,9,9,0,0,1,4.94,4.94,9.66,9.66,0,0,1,0,7.27,9,9,0,0,1-2,3,8.86,8.86,0,0,1-3,2,9.66,9.66,0,0,1-7.27,0,8.86,8.86,0,0,1-3-2,9,9,0,0,1-2-3A9.51,9.51,0,0,1,615.74,201.85Z"/><path class="cls-4" d="M202.5,137.75a24,24,0,0,1,1.35-8.55,17.84,17.84,0,0,1,4.52-6.54q4.69-4.51,8.64-7.88t6.79-6.28a32.72,32.72,0,0,0,4.44-5.53,10.31,10.31,0,0,0,1.59-5.45q0-5.53-3.44-8.64a12.43,12.43,0,0,0-8.63-3.1q-7.87,0-12,4.36a17,17,0,0,0-4.61,10.56L175.35,99Q177.2,81.26,188.42,72t28.84-9.3a49.16,49.16,0,0,1,14.5,2.09,35.77,35.77,0,0,1,12,6.29A30.06,30.06,0,0,1,252,81.42a32.24,32.24,0,0,1,3,14.25,35.53,35.53,0,0,1-1,8.8,27.26,27.26,0,0,1-3.44,7.8,45.44,45.44,0,0,1-6.37,7.8,108.64,108.64,0,0,1-10,8.63,17.42,17.42,0,0,0-5.2,5.87,13.34,13.34,0,0,0-1.34,5.7v4.86H202.5Zm-2.84,32.19a15.62,15.62,0,0,1,1.17-6A15,15,0,0,1,204.1,159a14.8,14.8,0,0,1,4.94-3.27,16.15,16.15,0,0,1,12.07,0,14.94,14.94,0,0,1,4.95,3.27,15.32,15.32,0,0,1,3.27,4.94,16.15,16.15,0,0,1,0,12.07,15.15,15.15,0,0,1-3.27,4.95,14.94,14.94,0,0,1-4.95,3.27,16.15,16.15,0,0,1-12.07,0,14.84,14.84,0,0,1-8.21-8.22A15.5,15.5,0,0,1,199.66,169.94Z"/></g><g id="Layer_2" data-name="Layer 2"><path class="cls-3" d="M506.56,477.63a6.86,6.86,0,0,1,4.29.29,6.72,6.72,0,0,1,2.67,2"/><path class="cls-3" d="M503.41,479.78a6.35,6.35,0,0,1,4.59.62,6.24,6.24,0,0,1,2.36,2.49"/><path class="cls-3" d="M490,478.73a6.79,6.79,0,0,1,4.3.28"/><path class="cls-3" d="M486.86,480.87a6.32,6.32,0,0,1,4.59.63,6.17,6.17,0,0,1,2.36,2.48"/><path class="cls-3" d="M533.22,487.42l-35,2.16"/><path class="cls-3" d="M498.2,489.58c-11.7.06-4.53-.05-16.23,0"/><path class="cls-3" d="M339.18,171.09q1.33,3.75,2.66,7.48a1.67,1.67,0,0,1-.61,1.12,1.84,1.84,0,0,1-2.25-.2"/><path class="cls-3" d="M409.6,454.92a11.2,11.2,0,0,0-14.15.56"/><path class="cls-3" d="M443.6,455.92a11.2,11.2,0,0,0-14.15.56"/><path class="cls-3" d="M407.24,209.67a11.51,11.51,0,0,0,1.6,6,13.39,13.39,0,0,0,8.34,5.87,2,2,0,0,0,2,2.42,2.77,2.77,0,0,0,2-2.5"/><path class="cls-3" d="M431.16,481.52a19.52,19.52,0,0,0,4.87,5.05,18.55,18.55,0,0,0,5,2.52,26.89,26.89,0,0,0,14.71-1.25"/><path class="cls-3" d="M411.72,487.24a10.07,10.07,0,0,1-4.06,3.87,10,10,0,0,1-8,.47,9.81,9.81,0,0,1-4.81-4.19"/><path class="cls-3" d="M404.7,475.28a5,5,0,0,0-2.86-.78,4.94,4.94,0,0,0-2.78.95"/><path class="cls-3" d="M404.44,478.14a3.36,3.36,0,0,0-4.78.44"/><path class="cls-3" d="M404.44,480.83a3.82,3.82,0,0,0-2.17-.43,3.76,3.76,0,0,0-1.82.69"/><path class="cls-3" d="M446.55,475.73a5,5,0,0,0-2.7,1.24,5.09,5.09,0,0,0-1.52,2.51"/><path class="cls-3" d="M448.94,477.78a3.49,3.49,0,0,0-2.43,1,3.45,3.45,0,0,0-.95,2.38"/><path class="cls-3" d="M451.36,479.8a3.81,3.81,0,0,0-1.94,1.06,3.9,3.9,0,0,0-.95,1.7"/><path class="cls-6" d="M304.46,466.84a8.35,8.35,0,0,0-5,3.81.63.63,0,0,0,1.08.63,7,7,0,0,1,4.24-3.23.63.63,0,0,0-.33-1.21Z"/><path class="cls-6" d="M300.28,470.52c-1.62-4.88-7.62-5.82-12-5.19-.79.11-.46,1.32.33,1.2,3.71-.53,9.13.15,10.52,4.32.25.76,1.46.44,1.2-.33Z"/><path class="cls-6" d="M333.84,469.76c.89-.3,2,.64,2.73,1.13a16.76,16.76,0,0,1,2.08,1.77.63.63,0,0,0,.88-.89,17.61,17.61,0,0,0-2.93-2.36c-.93-.59-2-1.24-3.09-.85-.75.26-.43,1.47.33,1.2Z"/><path class="cls-6" d="M351.22,469c-3.68-2.09-10.22-1.38-12.41,2.64-.38.71.7,1.34,1.08.63,1.84-3.38,7.62-3.94,10.7-2.19a.63.63,0,0,0,.63-1.08Z"/><path class="cls-6" d="M304.35,476.41c-8.2,7.22-21,10.36-31.45,6.65-.76-.27-1.09.94-.34,1.21,10.94,3.87,24.14.54,32.67-7,.61-.53-.28-1.41-.88-.88Z"/><path class="cls-6" d="M366.77,485.09c-11,3-22.6,2-31.79-5.21-.63-.49-1.52.39-.89.88,9.58,7.48,21.5,8.71,33,5.53a.62.62,0,0,0-.33-1.2Z"/></g><g id="Layer_3" data-name="Layer 3"><path class="cls-3" d="M302.47,479v4.16"/><path class="cls-3" d="M299.68,480.48v4.16"/><path class="cls-3" d="M278.23,484.64v4.16"/><path class="cls-3" d="M293.49,483.17v4.17"/><path class="cls-3" d="M290.6,484.17v4.17"/><path class="cls-3" d="M287.28,484.64v4.16"/><path class="cls-3" d="M284.2,484.83V489"/><path class="cls-3" d="M281.35,485.11v4.17"/><path class="cls-3" d="M296.86,481.64v4.16"/><path class="cls-3" d="M275.32,484.17V488"/><path class="cls-3" d="M337.13,481.79V486"/><path class="cls-3" d="M340.65,483.87V488"/><path class="cls-3" d="M344.16,485.14v4.16"/><path class="cls-3" d="M347.78,486.48v4.17"/><path class="cls-3" d="M351.76,486.8V491"/><path class="cls-3" d="M355.42,487.22v4.16"/><path class="cls-3" d="M359.45,486.8V491"/><path class="cls-3" d="M363.62,486v4.16"/><path class="cls-6" d="M335.4,198.15c-1,9.49-9.79,19.31-20,18.65-8.64-.56-15.16-8.39-16.9-16.32-.18-.78-1.38-.45-1.21.33,2,8.93,9.9,17.75,19.72,17.23,10.35-.55,18.63-10.06,19.66-19.89.08-.8-1.17-.8-1.25,0Z"/><path class="cls-6" d="M331.49,200.14a13.35,13.35,0,0,1,3.33,2.39c.57.56,1.46-.32.88-.89a14.65,14.65,0,0,0-3.57-2.58c-.72-.36-1.35.72-.64,1.08Z"/><path class="cls-6" d="M329.7,203.67a14.33,14.33,0,0,1,2.47,3.42c.37.71,1.45.08,1.08-.63a15.5,15.5,0,0,0-2.66-3.67c-.57-.58-1.45.31-.89.88Z"/><path class="cls-6" d="M326.47,206.32a30.09,30.09,0,0,1,1.77,5.39c.18.79,1.38.45,1.2-.33a30.88,30.88,0,0,0-1.89-5.69c-.32-.74-1.4-.1-1.08.63Z"/><path class="cls-6" d="M323.11,208.45a44.06,44.06,0,0,1,.6,6.28.63.63,0,0,0,1.25,0,44.44,44.44,0,0,0-.65-6.61c-.13-.79-1.34-.46-1.2.33Z"/><path class="cls-6" d="M317.27,209.09q.23,3.78.23,7.59a.63.63,0,0,0,1.25,0q0-3.81-.23-7.59c0-.8-1.3-.81-1.25,0Z"/><path class="cls-6" d="M313.32,209c-.9,2.26-1.69,4.56-2.39,6.89a.63.63,0,0,0,1.21.33c.69-2.33,1.48-4.63,2.39-6.89.29-.74-.92-1.07-1.21-.33Z"/><path class="cls-6" d="M309.5,207.09a17.15,17.15,0,0,0-2,2.87c-.56,1.12-1,2.26-1.65,3.33-.42.68.66,1.31,1.08.63a29.29,29.29,0,0,0,1.46-2.91,14.88,14.88,0,0,1,2-3c.5-.62-.38-1.51-.88-.88Z"/><path class="cls-6" d="M304.88,203c-1.33,1.62-2.59,3.28-3.8,5-.47.66.62,1.29,1.08.64,1.14-1.62,2.35-3.2,3.61-4.73.5-.62-.38-1.51-.89-.89Z"/><path class="cls-6" d="M295.59,251.82a76.94,76.94,0,0,1-.19-16.27c.08-.8-1.17-.79-1.25,0a76.94,76.94,0,0,0,.19,16.27c.1.79,1.35.8,1.25,0Z"/><path class="cls-6" d="M328.28,249.22a64.3,64.3,0,0,0,3.79-11.45c.17-.78-1-1.12-1.21-.33a61.65,61.65,0,0,1-3.66,11.15c-.32.73.75,1.37,1.08.63Z"/></g></svg>