<svg xmlns="http://www.w3.org/2000/svg" viewBox="0 0 1215.77 720.8"><defs><style>.cls-1{fill:#8045dd;}.cls-10,.cls-2,.cls-3{fill:none;}.cls-2,.cls-3{stroke:#214e8b;}.cls-10,.cls-2,.cls-3,.cls-8{stroke-miterlimit:10;}.cls-3{stroke-width:0.75px;}.cls-4{fill:#214e8b;}.cls-5,.cls-8{opacity:0.57;}.cls-6,.cls-8{fill:#f4d2c4;}.cls-7{fill:#f2a042;}.cls-8{stroke:#f4d2c4;}.cls-9{fill:#00a38e;}.cls-10{stroke:#696f8e;stroke-width:1.3px;}</style></defs><title>@About</title><g id="Layer_34" data-name="Layer 34"><path class="cls-1" d="M761.59,179.92v0a54.31,54.31,0,0,0-2.46,13.84,66.23,66.23,0,0,0,1.79,19c2.13,8.21,5.1,12,8.93,19.31a127.93,127.93,0,0,1,10.76,28.32,43,43,0,0,0-8.88-2.92,44.48,44.48,0,0,0-14.52-.59,36.75,36.75,0,0,0-17.87,6.89c-4.45,3.31-6.73,6.21-10.13,12.08a59.63,59.63,0,0,0-7.45,20.58,35.54,35.54,0,0,0-.23,11.36,25.86,25.86,0,0,0,3.93,10.36,25,25,0,0,0,6,6.26,105.78,105.78,0,0,0-11.11,1.41c-3.49.64-6.28,1.33-10.19,2.3-3.29.81-6,1.54-7.9,2.07,1-3.44,2.23-8.31,3.32-14.23a95.33,95.33,0,0,0,.66-38.14c-.22-1.14-.69-3.11-1.64-7.05a13.84,13.84,0,0,0-.65-2.26c-1-2.34-2.7-2.86-4.69-4.95a21.12,21.12,0,0,1-2.64-3.73,34.59,34.59,0,0,1-4.66-13.31,23.15,23.15,0,0,1,1.43-11.62c.3-.71.59-1.28.8-1.68-.62-1.42-1.51-3.52-2.43-6.13a119,119,0,0,1-3.3-11.68c-.68-2.77-1.55-6.46-2.47-10.85a7,7,0,0,0,4.73-2.54c.68-1,.87-2.07,1.24-2s.51,1.7.85,3.57a27,27,0,0,0,2.3,6.93,29.36,29.36,0,0,0,3.52,5.71,23.8,23.8,0,0,0,5.82,6c2.78,1.88,5.38,2.52,9,3.4a26.17,26.17,0,0,0,5.93,1,23.58,23.58,0,0,0,9.67-1.86A19.73,19.73,0,0,0,740.77,213a31.88,31.88,0,0,0,2.44-12.74,26.37,26.37,0,0,0,5.93-3.42c2.06-1.58,3.64-2.79,4.58-5a11.7,11.7,0,0,0,.67-5.21c0-3.4-.9-4.92-.65-8.75,0-.76.13-1.39.19-1.81"/><path class="cls-2" d="M591.44,227.32a11.53,11.53,0,0,0-8-2.32,11.08,11.08,0,0,0-5.39,2.11"/><path class="cls-2" d="M605,229.37a16.93,16.93,0,0,1,6.07-.81"/><path class="cls-2" d="M591.44,233.84c-.79-.69-2.65-2.89-5.63-3.34-2.52-.38-4.65.86-5.63,1.21"/><path class="cls-2" d="M613.78,235.78c-.75-.43-2.29-1.86-4.4-1.94s-3.62,1.2-4.39,1.56"/><path class="cls-2" d="M716.61,173.42a12.46,12.46,0,0,0-13.5,1.13"/><path class="cls-2" d="M691.92,174.59a6.81,6.81,0,0,0-4.8-.63,6.54,6.54,0,0,0-2.65,1.38"/><path class="cls-2" d="M715,177.93a9.33,9.33,0,0,0-10.52.54"/><path class="cls-3" d="M693.84,178.5a6.87,6.87,0,0,0-4.8-.63,8.89,8.89,0,0,0-3.09,1.67"/><path class="cls-4" d="M708.57,180.22c-.53,0-.55-.83-.18-1.06a.43.43,0,0,1,.52,0,.4.4,0,0,1,.28.14l0,.06c0-.15-.05-.2,0-.13s-.22.51-.53.46a.37.37,0,0,1-.32-.39c0-.25.58-.39.78-.24s0,.49-.11.65c.11-.16.13.12-.27,0a.42.42,0,0,1-.16-.11c-.2-.23,0-.64.31-.69h.66c.05,0,.09.13,0,0s-.09-.06,0,.14a.5.5,0,0,1,0,.49,1.26,1.26,0,0,0-.45-1.71,1.28,1.28,0,0,0-1.71.45c-.79,1.11.14,2.67,1.32,3,1.34.41,2.37-.94,2.21-2.16a2.1,2.1,0,0,0-2.46-1.85,2.14,2.14,0,0,0-1.74,2.39,2.07,2.07,0,1,0,3.81-1.33,2.12,2.12,0,0,0-2.88-.86,2.26,2.26,0,0,0-.64,3.11,1.93,1.93,0,0,0,3.32,0,2,2,0,0,0-1.78-2.91,1.25,1.25,0,0,0,0,2.5Z"/><path class="cls-4" d="M689.79,180.28a.54.54,0,0,1-.57-.86c.2-.26.4-.34.66-.08l.32.55c0,.13,0,.14,0,0,0-.46-.34-.28-1,.57l-.55-.33.06.08a1.25,1.25,0,1,0,1.77-1.77,1.61,1.61,0,0,0-2.72.88,1.83,1.83,0,0,0,1.78,2.33,1.94,1.94,0,1,0-.38-3.8,1.25,1.25,0,0,0-.87,1.54,1.27,1.27,0,0,0,1.53.87Z"/></g><g id="Layer_33" data-name="Layer 33"><g class="cls-5"><path class="cls-6" d="M695.09,377.67c-23.2,10.74-55.58,33-57.52,59-1.34,18.13,3.88,36.14.35,54.11-3.13,16-12.83,30.13-18.18,45.6-8.1,23.43-3.63,52.72,16.94,64.11,16.13,8.93,37.47,4.83,54,13,18.84,9.3,26.68,31.69,41.27,46.71,17.09,17.58,44.48,24.24,69,16.77,22.39-6.83,41.56-24.16,64.4-28.51,18.39-3.51,36.93,1.89,55.41-.73,25-3.55,48-23,56.1-47.38,7-21.09,3.92-45.31,16.69-63.74,7-10.17,17.9-16.89,27.18-25.09,10.93-9.66,20.07-22.06,23.41-36.08s.08-29.65-10.29-38.62c-18.71-16.18-55.48-9.11-64.54-32.48-4.36-11.25-.05-26.45-8.55-34.77-7.72-7.56-21.17-4.25-31,1.6s-19.06,14-30.14,15.49c-12.89,1.73-25.47-6.12-38.14-2.71-14.21,3.84-21.94,19.72-34,28.65-14.7,10.92-36.53,9.58-48.37-2.95-10.88-11.52-13.92-30.7-28.2-37.67-21.74-10.62-42-2.69-69.88,12.91"/><path class="cls-6" d="M693.83,375.51c-17.8,8.33-35.61,19.74-47.8,35.42-5.3,6.81-9.49,14.62-10.68,23.27-1.83,13.18,1,26.62,1.28,39.83.33,14.54-3.76,27-9.88,40.06-4.7,10-9.8,20-11.93,31-3.45,17.74-.8,38.89,12.9,51.9,17,16.2,42,9,61.72,18.68C708.51,625,716,647.38,730.2,662c15,15.41,37.41,22.48,58.59,20,22.82-2.63,40.8-17.17,61.29-26.06,12.65-5.5,25.46-6.67,39.13-5.92,12.64.69,25.39,2,37.85-1,19.7-4.69,37.15-18.55,47-36.15,11.19-20.07,8.22-43.55,16.2-64.54,4.46-11.73,13.32-19.73,22.9-27.37,8.92-7.13,17.35-14.49,23.87-24,11.44-16.61,16.14-40.67,2.72-57.67-10.87-13.77-29.92-15.24-45.61-19.72-7.66-2.18-15.82-5.27-20.39-12.22-5.49-8.34-3.58-19-5.5-28.32-1.78-8.67-7.64-15.32-16.72-16.3-10.13-1.08-19.67,3.91-27.85,9.27-11.15,7.3-21.11,14-35,11.66-10.85-1.79-21.59-5.47-32.2-.58-8.78,4-14.87,12-21.28,18.9-7.83,8.46-16.76,14.85-28.68,15.38-11.19.5-21.85-4-28.49-13.16-5.56-7.64-8.79-16.7-14.36-24.33-11.82-16.22-33.77-17.86-51.63-12.2-11.29,3.58-21.84,9.24-32.15,15-2.82,1.57-.3,5.89,2.52,4.32,18.62-10.35,40.76-22.65,62.54-14.94,19.65,6.95,20.66,29.9,35.49,42.06,14,11.51,35.46,10.67,49.54-.27,7.74-6,13.27-14.25,20.57-20.73,3.63-3.22,7.73-5.91,12.52-7,6.45-1.47,13,.13,19.31,1.44,10.93,2.25,20.48,2.38,30.59-2.89,9.58-5,17.69-12.79,28.24-15.84,4.86-1.4,10.62-2,15.24.51,5.26,2.89,6.88,8.84,7.53,14.4,1,8.39.43,17.18,4.67,24.81,7.44,13.41,24.56,16,38.08,19.34,8.05,2,16.44,4.12,23.29,9,8.6,6.1,12.69,16.44,13,26.74.62,24.29-17.88,41.35-35.22,55.34-8.32,6.72-16,14-20.53,23.88-4.38,9.56-6,19.94-7.42,30.26-1.52,10.85-2.9,22-7.41,32a70.44,70.44,0,0,1-18.39,24.43,67.66,67.66,0,0,1-27.52,14.46c-12.52,3.15-25.44,1.56-38.16.91-12-.61-23.62.11-35,4.31-10,3.73-19.32,9.14-28.7,14.26-9.87,5.38-20,10.52-31.12,12.71a68.5,68.5,0,0,1-32.8-1.69,62.77,62.77,0,0,1-27.44-16.66c-7-7.38-12.28-16.2-18.16-24.47C709.8,626,704,618.82,696.25,613.79c-8.58-5.62-18.68-7.31-28.68-8.55-11-1.36-22.92-2.14-32.38-8.62-7.84-5.38-12.69-14-15-23.06a62.91,62.91,0,0,1-.26-28.53c2.54-11.77,8.48-22.34,13.37-33.23,4.64-10.33,8-20.78,8.33-32.19.43-13.1-2.14-26.1-1.74-39.2.63-20.72,16.82-36.07,32.87-47.13a164.27,164.27,0,0,1,23.61-13.45c2.91-1.36.37-5.67-2.53-4.32Z"/></g><path class="cls-7" d="M558,226.39a73.81,73.81,0,0,0-12.27-.46,79.22,79.22,0,0,0-28.43,7c-13.67,6.17-21.8,14.41-31.07,23.79A137.26,137.26,0,0,0,467.71,280a131.53,131.53,0,0,0-7.55,13.74,31.07,31.07,0,0,0,5.51,6.37,31.72,31.72,0,0,0,11.21,6.31,33.79,33.79,0,0,0,13.73,1.29,40,40,0,0,0,9.35-1.92l6.4-10.54s1.16-1.9,1.17-1.93l1.8-3a99.38,99.38,0,0,0-3.21,13.16c-.53,3.07-.7,4.94-1.62,12-.57,4.42-1.07,8-1.4,10.37q8.86,5,17.77,10,7.77,4.41,15.48,8.84l22.23-.5,53-1.18a17.3,17.3,0,0,1,.07-7c.93-4.26,3.31-7,5.75-9.89a39.15,39.15,0,0,1,6.42-6c0-.05.71-7.24.71-7.3s1.18-12.15,1.2-12.3c4.12,1.19,6.78.58,8.33-.05,6.13-2.5,6.37-9.92,14.23-19.23a48.38,48.38,0,0,1,5.55-5.6c-1.16-1.57-2.78-3.78-4.66-6.48-3.07-4.43-4.6-6.64-6.28-9.55-2.19-3.8-2.23-4.55-4.67-8.47a28.29,28.29,0,0,0-4.25-5.71,27.19,27.19,0,0,0-5.24-4,21.65,21.65,0,0,0-6.68-3.15,17.6,17.6,0,0,0-4.76-.51,15.56,15.56,0,0,1-.61,2.94,18.76,18.76,0,0,1-1.12,2.63,31.87,31.87,0,0,1-2.71,4.95c-1,1.42-1.22,1.44-1.57,2.32-.54,1.31-.29,2-.75,3.25a8.49,8.49,0,0,1-1.76,2.69c-2.51,3.14-1.91,3.31-3.62,5.19a17.64,17.64,0,0,1-5,3.85,20,20,0,0,1-4.51,1.61,38.58,38.58,0,0,1-9.32,1.6,25.58,25.58,0,0,1-12.52-2.77c-2-1-7.73-4-10.49-10.63-.77-1.85-2.7-6.48-1.28-11.21.52-1.71,1.38-3.1,1.4-5.69a9.79,9.79,0,0,0-1.16-5.22c-.81-1.38-1.49-1.57-2.22-3a8.25,8.25,0,0,1-.82-3.85"/><path class="cls-7" d="M653.36,275.72l5.46,6.43a18.12,18.12,0,0,1-1.2,3.49,20.65,20.65,0,0,1-3.8,5.35c-.93,1-2.14,2.12-4.56,4.28-.69.62-1.8,1.62-3.33,2.91-2.73,2.33-4.21,3.59-5.73,4.66a31.13,31.13,0,0,1-8.26,4.07q-3.11-3.2-6.2-6.38"/><g class="cls-5"><path class="cls-6" d="M460.64,126.08c24.84,12,42.67,35.37,46.36,60.81,3.88,26.73-7,54-2.64,80.61,3.94,24.19,19.83,45.09,31.31,67.19S554,384,540.11,404.92c-7.26,10.94-19.32,18.66-26.64,29.56-4.52,6.74-7.22,14.66-13.36,20.23-8.84,8-23.23,9.17-34.9,5.2s-21-12.21-28.77-21.08c-6.45-7.36-12.42-15.58-21.55-20-7.74-3.74-16.79-4.23-25.27-6.23-19.74-4.66-36.7-18.24-44.35-35.51-8.71-19.68-5.62-42.64-15.5-61.85C314,284.59,270.83,273,252.2,243.68c-13-20.46-11.64-46.14-4.89-69,5.77-19.48,15.73-38.73,33-51.28,15.79-11.46,36.21-16.25,56.26-18.21A237.93,237.93,0,0,1,460.27,126.5"/><path class="cls-6" d="M459.38,128.24A84.5,84.5,0,0,1,494.54,160c9.1,15,11.7,31.55,10.46,48.89-1.36,18.93-5.93,37.8-3.41,56.83,2.22,16.76,10.14,31.95,18.44,46.43,16.26,28.37,40,67.3,13.46,97.27-5.49,6.21-12,11.47-17.42,17.72-5.14,5.88-8.24,12.75-12.38,19.28-10.22,16.1-31.05,16-46.26,7.25-7.62-4.38-14-10.57-19.73-17.16-5.07-5.82-9.85-12-16.17-16.53-7-5.05-15.18-6.72-23.51-8.2s-16.42-3.62-24-7.73a60.18,60.18,0,0,1-29.7-37.1c-4.51-16.44-3.95-34.06-10.95-49.84-11.51-25.95-39.67-38.17-60.61-55.08-12.06-9.73-21.85-21.42-25.79-36.72-4.35-16.89-1.88-34.91,3.18-51.37,4.85-15.8,12.53-31.13,24.63-42.63,12.74-12.11,29.58-18.25,46.6-21.43,36.6-6.85,75.74-3.15,111,8.29A230.35,230.35,0,0,1,459,128.66c2.9,1.36,5.44-3,2.52-4.32a241,241,0,0,0-114.19-22.42c-17.86.9-36.11,3.48-52.64,10.6a81.11,81.11,0,0,0-37.76,33.34c-16.58,27.72-25.24,68.47-7.76,97.68,15.68,26.21,46.72,36.78,67.41,58a59.64,59.64,0,0,1,13.18,19.78c3.39,8.64,4.68,17.9,6,27,2.53,17.2,6.22,33.46,18.39,46.55,11.38,12.24,26.29,18.76,42.51,21.65,10,1.79,19,4.08,26.56,11.3,6.49,6.18,11.65,13.6,18.15,19.78,11.73,11.17,27.15,19.07,43.72,16.47a31.38,31.38,0,0,0,19.88-11c5.34-6.57,8.16-14.74,13.57-21.28,11.14-13.45,25.83-22.71,30.23-40.67,4-16.38-.21-33.72-6.75-48.86-7.53-17.41-18.8-32.88-26.92-50-4.25-9-7.62-18.52-8.77-28.44-1.19-10.36-.24-20.82,1-31.13,2.21-18.7,5.37-37.8-.05-56.27a84.33,84.33,0,0,0-25.38-39.22,91.67,91.67,0,0,0-20-13.31c-2.87-1.42-5.41,2.89-2.52,4.31Z"/></g><path class="cls-2" d="M264.94,482.52a54.76,54.76,0,0,0,2.58,18.86c5.45,16.87,17.72,26.23,22.63,29.58"/></g><g id="Layer_36" data-name="Layer 36"><path class="cls-8" d="M730,346.56a52,52,0,0,1,1.14,11.6,24.09,24.09,0,0,0,.48,6.36,21.77,21.77,0,0,0,.63,2.36l-36.51-15.05q2.5-7.62,5-15.24"/><path class="cls-4" d="M640.62,166.18a5.67,5.67,0,0,0,5,6.21l-.17-1.23c-2.85,1-3.16,3.88-3.08,6.56l1.23-.17a6.23,6.23,0,0,0-5.3-4.83l.28,1.05a9.5,9.5,0,0,0,3.25-7.59c-.06-.8-1.31-.81-1.25,0a8.35,8.35,0,0,1-2.89,6.71.63.63,0,0,0,.28,1,5,5,0,0,1,4.43,3.95.62.62,0,0,0,1.22-.16c-.06-2-.13-4.53,2.17-5.35a.63.63,0,0,0-.17-1.23,4.41,4.41,0,0,1-3.79-5c.08-.8-1.17-.8-1.25,0Z"/><path class="cls-4" d="M581.48,118.66a5.66,5.66,0,0,0,3.69,7.1v-1.2c-2.91.44-3.74,3.23-4.15,5.77l1.22.17a6.27,6.27,0,0,0-4.38-5.85l.15,1.14a9.24,9.24,0,0,0,4.24-7c.08-.8-1.17-.79-1.25,0a7.92,7.92,0,0,1-3.62,5.95.63.63,0,0,0,.14,1.14A5,5,0,0,1,581,130.5c0,.66,1.11.89,1.23.16.34-2.06.8-4.52,3.28-4.9.66-.1.53-1,0-1.2a4.4,4.4,0,0,1-2.82-5.57c.24-.77-1-1.1-1.2-.33Z"/><path class="cls-4" d="M825.63,257a5.67,5.67,0,0,0,3.7,7.1v-1.2c-2.92.44-3.74,3.23-4.16,5.77l1.23.17A6.28,6.28,0,0,0,822,263l.15,1.14a9.28,9.28,0,0,0,4.25-7c.08-.79-1.17-.79-1.25,0a7.9,7.9,0,0,1-3.63,6,.63.63,0,0,0,.15,1.14,5,5,0,0,1,3.47,4.65c0,.66,1.11.89,1.23.16.34-2.06.8-4.52,3.28-4.9.66-.1.53-1,0-1.2a4.39,4.39,0,0,1-2.82-5.57c.24-.77-1-1.1-1.21-.33Z"/><path class="cls-3" d="M679.61,162a58.57,58.57,0,0,0,.65,18,57.79,57.79,0,0,0,3.56,11.67"/></g><g id="Layer_35" data-name="Layer 35"><path class="cls-9" d="M815.79,329.19c1.25-.34,3.33.71,8,7.93a99.64,99.64,0,0,1,8.4,15.91l-11.63,4.19L807.31,362c-17.18,6.34-22.07,10-38.94,15.71-2.42.82-4.38,1.44-5.48,1.79l-31-13.21q-1-9.87-1.93-19.74a79.58,79.58,0,0,1-25.46,5.6q-1.75-5.39-3.53-10.76a20.58,20.58,0,0,1,.09-7.46,21.31,21.31,0,0,1,1.12-3.75,132.54,132.54,0,0,1,20.19-4.73c3.12-.47,6.13-.82,9-1a9.69,9.69,0,0,0,4.3,2.5c3.32.85,5.5-.75,7.14.65,1,.83.52,1.64,1.63,4.06a16.9,16.9,0,0,0,2.92,4.22,14.49,14.49,0,0,0,9.45,4.19,18,18,0,0,0,7.76-.94,23.9,23.9,0,0,0,7.71-3.41,21,21,0,0,0,5.41-5.64l8.31,2.88a76,76,0,0,0,8.12,2.6,28,28,0,0,0,9.58,1c3-.28,6.58-.62,9.09-3.24C814.76,331.25,814.48,329.54,815.79,329.19Z"/><path class="cls-9" d="M811.16,384.5q.5,7.69,1,15.4L783.4,388.76c.43-.66.85-1.32,1.27-2l8.13.38"/><path class="cls-2" d="M750.27,303.1a11.68,11.68,0,0,0-6.84-1.25,11.2,11.2,0,0,0-4.54,1.62"/><path class="cls-2" d="M779.5,302.65a12.93,12.93,0,0,0-13,.93"/><path class="cls-3" d="M748.77,308.91a7,7,0,0,0-9-.45"/><path class="cls-3" d="M778.12,308.07a9.84,9.84,0,0,0-5.79-1.2,9.62,9.62,0,0,0-4.44,1.66"/><path class="cls-4" d="M742.23,312.07c3.22,0,3.22-5,0-5s-3.22,5,0,5Z"/><path class="cls-4" d="M770.6,312.33c3.22,0,3.23-5,0-5s-3.22,5,0,5Z"/><path class="cls-4" d="M609.28,239.49c3.22,0,3.22-5,0-5s-3.22,5,0,5Z"/><path class="cls-4" d="M586.54,236.64c3.22,0,3.23-5,0-5s-3.22,5,0,5Z"/></g><g id="Layer_28" data-name="Layer 28"><line class="cls-2" x1="395.24" y1="347.89" x2="596.49" y2="431.16"/><line class="cls-2" x1="695.47" y1="351.72" x2="762.89" y2="379.51"/><line class="cls-2" x1="395.24" y1="347.89" x2="611.59" y2="343.06"/><line class="cls-2" x1="594.19" y1="430.53" x2="870.61" y2="424.36"/><line class="cls-2" x1="395.24" y1="347.89" x2="397.12" y2="378.57"/><line class="cls-2" x1="596.25" y1="430.52" x2="598.13" y2="461.2"/><line class="cls-2" x1="870.35" y1="423.9" x2="872.27" y2="455.24"/><line class="cls-2" x1="397.13" y1="378.2" x2="598.13" y2="461.2"/><line class="cls-2" x1="596.86" y1="461.22" x2="873.27" y2="455.05"/><line class="cls-2" x1="402.84" y1="380.34" x2="413.32" y2="551.37"/><line class="cls-2" x1="414.26" y1="385.4" x2="424.74" y2="556.44"/><path class="cls-2" d="M412.64,551.41l8.9,3.7,3.2,1.33"/><line class="cls-2" x1="430.52" y1="391.11" x2="441" y2="556.07"/><line class="cls-2" x1="423.99" y1="556.45" x2="441" y2="556.07"/><line class="cls-2" x1="569.36" y1="449.46" x2="580.24" y2="627.05"/><line class="cls-2" x1="580.76" y1="454.18" x2="591.66" y2="632.11"/><line class="cls-2" x1="597.04" y1="460.42" x2="607.92" y2="631.75"/><path class="cls-2" d="M579.2,626.78l8.9,3.69,3.2,1.33"/><line class="cls-2" x1="590.55" y1="631.82" x2="607.56" y2="631.44"/><line class="cls-2" x1="871.2" y1="455.36" x2="881.69" y2="626.57"/><line class="cls-2" x1="847.87" y1="305.15" x2="855.03" y2="418"/><line class="cls-2" x1="842.97" y1="455.73" x2="853.19" y2="622.5"/><line class="cls-2" x1="854.04" y1="455.04" x2="864.66" y2="626.78"/><line class="cls-2" x1="842.97" y1="455.73" x2="852.7" y2="615.13"/><path class="cls-2" d="M852.79,622.08l8.86,3.4,3.19,1.23"/><line class="cls-2" x1="864.66" y1="626.78" x2="882.21" y2="626.39"/><line class="cls-2" x1="682.36" y1="459.16" x2="688" y2="551.09"/><line class="cls-2" x1="698.4" y1="458.95" x2="704.99" y2="562.64"/><line class="cls-2" x1="698.78" y1="563.12" x2="705.72" y2="562.97"/><path class="cls-2" d="M371.2,409.11c-16.58-.39-82.47.32-99.05-.08A96.44,96.44,0,0,0,252,461.52c-2.21,33.15,13.2,65.89,39.52,85.8,7.38-.45,23,.59,30.38.14"/><path class="cls-10" d="M370.24,408.65a97.3,97.3,0,0,1,20,52.66c2.19,33.26-13.09,66.11-39.2,86.09-7.32-.45-22.81.59-30.13.14"/><path class="cls-4" d="M324.41,409.1c.2-10-4.81-19.13-8.88-28.2a166.66,166.66,0,0,1-8.7-111c1.66-6.07,3.67-12.21,3.34-18.49a30.32,30.32,0,0,0-14.92,21.08c-.47,2.74-.56,5.55-1.44,8.18-1.07,3.21-3.24,5.92-5.34,8.58-6.43,8.14-12.84,17.43-12.42,27.8.15,3.79,1.23,7.49,1.63,11.26,1.5,13.94-6.19,27.43-5.9,41.44.12,5.81,2,12.12,7,15.18,7.06,4.37,18.27,1,22.94,7.89,1.8,2.65,2.05,6.29,4.43,8.44,2.62,2.36,6.6,1.92,10.11,2.3s9.11,2.11,8.19,5.52"/><path class="cls-4" d="M325.25,409c12.17-31.21-6.22-69.33,5.81-100.59,2.26-5.86,5.52-11.29,7.81-17.14a55.9,55.9,0,0,0,3.79-22,1.51,1.51,0,0,1,.15-.89c.33-.51,1.1-.43,1.67-.23,5.1,1.78,7.16,8,7,13.41s-1.86,10.75-1.27,16.12c.86,7.86,6.52,15.29,4.64,23-1.33,5.39-6.1,9.31-7.94,14.55-2.48,7.08.84,14.74,1.35,22.22.55,8.17-2.3,16.14-3.64,24.22-1,6.16-1.23,12.64-4.11,18.19s-8.89,11.32-14.61,8.81"/><path class="cls-4" d="M333.43,409.16c18.51-5.06,21.25-21.65,25.33-36.37a286,286,0,0,0,10.42-61.43c8.78,13.76,4.81,31.84,8.48,47.75,1.19,5.12,3.15,10.68.85,15.41-1.6,3.29-4.93,5.33-7.28,8.14-5.48,6.57-5.81,17.42-13.39,21.37a21.74,21.74,0,0,1-7.22,1.82c-6.54.87-10.65,2.44-17.19,3.31"/><path class="cls-2" d="M618.42,229.29a33.71,33.71,0,0,1-5.26,19.07c-1.53,2.36-10.42,15.34-24.92,14.57-11.13-.59-21.19-9.05-24.75-21.1-.12-5.59.56-1.42-1-8.16"/><path class="cls-2" d="M625,223c-1.39,3.61-5.66,6.46-9.22,6.77-5.64.49-6.91-5.62-15.77-10.43-1.52-.82-14.11-7.65-22.83-2.26-5.15,3.19-6.69,9.25-7.2,12.12a28.52,28.52,0,0,0-6.33-8.73c-4.42-4.11-7.73-4.45-9.05-7.46-1.81-4.12.69-9.93,4.36-12.9,3.09-2.5,5-1.33,8.43-3.6,5.16-3.39,4.1-8.11,7.49-12.4,5.93-7.53,20.45-7.35,29.67-4.51a36.26,36.26,0,0,1,19,14.37,13.34,13.34,0,0,0,4.32,5.08,19.87,19.87,0,0,1,3.34,2.33,9.66,9.66,0,0,1,2.42,3.3,8.54,8.54,0,0,1-1.15,8.18c-2,2.55-4.26,1.64-6,4.22C625,219.22,626,220.56,625,223Z"/><path class="cls-2" d="M600,230.43c.23,3.4.46,7.39.65,11.88.09,2.15.14,4-1.08,5-1.52,1.2-4,.29-4.75,0"/><path class="cls-2" d="M595.37,253.58s-.1,0-.51-.16h0c-.78-.26-1.62-.51-1.62-.51l-11.57-3.6a6.29,6.29,0,0,0,.45,4.05c1.62,3.19,6.2,4,9.25,3.07A7.54,7.54,0,0,0,595.37,253.58Z"/><path class="cls-2" d="M559.22,226.56c-6.8-1-14.22-1.38-26.5,1.28-29.82,6.47-46.89,28.36-62.24,48,0,0-10.26,13.16-19.56,40.61a10.87,10.87,0,0,0-.6,4.15c.19,3.18,1.88,5.85,4.45,8.6a67,67,0,0,0,20.75,15.12c1.82.77,3.34,1.31,4.3,1.64"/><path class="cls-2" d="M492.31,319.34c3.12,1.71,21.63,12.71,44,25.4"/><path class="cls-2" d="M511,288.43c-6.76,8.67-11.94,22.55-18.71,31.22"/><path class="cls-2" d="M496.83,306.49c-2.57.73-14.33,3.78-25.78-2.61a31.58,31.58,0,0,1-10.89-10.19"/><path class="cls-2" d="M617.48,238.23a25.39,25.39,0,0,1,22,15.34c4.76,9.29,11,17.66,23.4,34.4,7.26,9.78,10.52,12.71,13.53,20.58,3.74,9.79,2.42,15,1.64,17.25a21.31,21.31,0,0,1-7.52,9.75c-6.5,5-16.7,6.06-19.36,6.05"/><path class="cls-2" d="M659.27,283.12a51.18,51.18,0,0,1-6.84,9.73,53.26,53.26,0,0,1-20.49,14.06l-12.49-13.35"/><path class="cls-2" d="M631.94,306.91l10,10.66"/><path class="cls-2" d="M645.91,318.23a25.78,25.78,0,0,0-19.27.49c-7.18,3.25-10.42,9-12.29,12.28a24.14,24.14,0,0,0-2.74,9.88c-.11,2.36.25,3.51,1.09,4.08a3.62,3.62,0,0,0,3.13,0c.71-.27,1.89-.92,3.7-4.24a57.29,57.29,0,0,0,3.13-7.59c.61-1.62,1.12-2.92,1.45-3.74"/><path class="cls-2" d="M619.53,340.76a4,4,0,0,0,.6,4.09,4.22,4.22,0,0,0,5.78,0,26,26,0,0,0,3.25-6.26c.64-1.8,1.26-4.21,1.93-6.87.16-.6.28-1.1.36-1.44"/><path class="cls-2" d="M626.61,343.8a4.33,4.33,0,0,0,3.4,2.93,4.47,4.47,0,0,0,4.74-3.47,45.85,45.85,0,0,0,2.32-6.54,45.35,45.35,0,0,0,1.16-5.58"/><path class="cls-2" d="M633.5,345.47a8.16,8.16,0,0,0,5.32-.43c2-.94,3-2.56,4-4.35a20.12,20.12,0,0,0,2.64-8.39"/><line class="cls-2" x1="641.85" y1="342.32" x2="665.22" y2="341.69"/><line class="cls-2" x1="625.74" y1="300.63" x2="623.83" y2="320.23"/><path class="cls-2" d="M507.56,292.8q-2.24,16.53-4.46,33.06"/><path class="cls-2" d="M671.55,459.16c1.22,6.31,2.3,13,3.18,20,3.3,26.11,5.31,49.66,3.53,69.27a129.34,129.34,0,0,1-38.36,2.08q-2.86-.3-5.63-.73"/><path class="cls-2" d="M678.09,547.59c1.76,0,9.13.47,16.62,9,.46.52,8.56,10.07,6.19,21.69a21.74,21.74,0,0,1-1.53,4.72c-19.1.3-23.49.67-48.58,1.06"/><path class="cls-2" d="M626.51,548.65c1.75.05,14.12,1.47,21.62,10a27.08,27.08,0,0,1,4.19,20.69,22.38,22.38,0,0,1-1.53,4.71c-22,.34-23.87,0-45.87.4"/><path class="cls-2" d="M546.88,440a158.47,158.47,0,0,0,2.61,34.16c2.89,15.5,21,56.84,25.31,66.21"/><path class="cls-2" d="M633,550a432.59,432.59,0,0,0-6.58-62.35c-1.74-9.68-3.74-18.18-5.91-26.92"/><path class="cls-2" d="M603,554.42c5.15-2,15.7-6.65,24.06-5.73,1.37.15,2.68.37,3.92.63"/><path class="cls-2" d="M732.38,302.45a41.89,41.89,0,0,0,6.48,15.69c2.95,4.33,8,11.74,17.19,14.06,13.78,3.49,25.46-7.4,27-8.88,4.26-4.1,5.1-8.07,6.27-10.93"/><path class="cls-2" d="M710.07,192.32s-.08,0-.42.16h0c-.64.22-1.3.48-1.3.48l-9.29,3.45a5.06,5.06,0,0,0,2.31,2.39c2.65,1.26,6-.49,7.53-2.63A6.23,6.23,0,0,0,710.07,192.32Z"/><path class="cls-2" d="M756.18,305.89c-.66,2.71-1.4,5.88-2.18,9.46-.38,1.72-.68,3.19.17,4.14,1.05,1.18,3.19.8,3.82.67"/><path class="cls-2" d="M765.21,323.35s-.07,0-.42.07h0c-.65.09-1.34.21-1.34.21-.35.06-2.5.42-9.53,1.55a5.1,5.1,0,0,0,1.76,2.73c2.3,1.69,5.86.66,7.69-1.11A5.92,5.92,0,0,0,765.21,323.35Z"/><line class="cls-2" x1="783.4" y1="388.76" x2="870.61" y2="424.36"/><line class="cls-2" x1="809" y1="295.54" x2="834.8" y2="306.06"/><line class="cls-2" x1="834.8" y1="306.06" x2="841.06" y2="411.6"/><line class="cls-2" x1="834.13" y1="305.9" x2="847.93" y2="305.59"/><line class="cls-2" x1="808.43" y1="288.74" x2="848.78" y2="305.56"/><line class="cls-2" x1="814.8" y1="311.75" x2="836.54" y2="320.82"/><line class="cls-2" x1="778.06" y1="466.89" x2="843.66" y2="465.43"/><path class="cls-2" d="M778.3,457.17c-.37,4.61-.6,9.6-.58,14.92a175,175,0,0,0,1,18.15c.32,1.68.6,3.45.82,5.3a72.59,72.59,0,0,1-.19,18.3,134.52,134.52,0,0,1-16.72,2.48,150.37,150.37,0,0,1-30.32-.78c-5-.56-9.16-1.23-12-1.73a19.43,19.43,0,0,1,2.36-8.82c6.47-11.73,23.22-11.41,23.95-11.39l4-4.5L745,457.92"/><path class="cls-2" d="M741.41,458a197.69,197.69,0,0,0-5.92,34.11q-.13,1.51-.24,3"/><path class="cls-2" d="M711.86,458.65a213.67,213.67,0,0,0,.93,26.19q.32,3.33.74,6.54"/><path class="cls-2" d="M713.48,491a16.46,16.46,0,0,0-5.93,1.3,17.68,17.68,0,0,0-6.71,5.1"/><path class="cls-2" d="M750.52,488.37a31.07,31.07,0,0,0,17.78,3.28,30.18,30.18,0,0,0,10.29-3.2"/><path class="cls-2" d="M712.66,488.37a94.21,94.21,0,0,0,14.87.7,86,86,0,0,0,8.62-.68"/><path class="cls-2" d="M720.35,513.84a40.09,40.09,0,0,1-7.68,1.21,41.08,41.08,0,0,1-11.33-.89"/><line class="cls-2" x1="835.85" y1="465.64" x2="840.3" y2="560.12"/><line class="cls-2" x1="839.75" y1="559.79" x2="848.25" y2="559.56"/><line class="cls-2" x1="776.57" y1="514.41" x2="778.89" y2="563.71"/><line class="cls-2" x1="779.48" y1="563.41" x2="765.95" y2="563.71"/><line class="cls-2" x1="764.03" y1="516.19" x2="765.95" y2="563.58"/><line class="cls-2" x1="589.44" y1="349.47" x2="633.11" y2="367.54"/><line class="cls-2" x1="640.96" y1="343.04" x2="653.7" y2="348.31"/><path class="cls-2" d="M806.48,466.26c5.93,27.09,1.65,34.73-1.11,52.52"/><path class="cls-2" d="M777.76,474.75,787,517.27"/><path class="cls-2" d="M806.19,517.08a17.4,17.4,0,0,1-7.24,2.85A17.83,17.83,0,0,1,787,517.27"/><path class="cls-2" d="M805.79,518.11a38.77,38.77,0,0,1,4.26,11.37c.51,2.52,2.72,16.15,2.78,18.12a90.85,90.85,0,0,1-34.12,15.24,8.81,8.81,0,0,1-1,.2"/><path class="cls-2" d="M786.55,517.27c-.77,2,0,16-2,18.73a30.93,30.93,0,0,1-6.25,6.45"/><path class="cls-2" d="M496.83,306.49l4.06-1"/><path class="cls-2" d="M378.14,420.66c-3.9,7.21-7.85,9.39-10.88,9.95-6.33,1.17-8.7-4.73-19.69-6.56-3.41-.57-11.38-1.9-17.81,2.34-3.73,2.46-3.28,4.38-7,6.1a16,16,0,0,1-15.47-1.41c-3.32-2.43-2.32-4.23-5.63-6.56a15.59,15.59,0,0,0-14.53-1.41c-4.45,1.93-3.71,4.61-8.91,7-1.68.78-6.48,3-11.25.94a11.85,11.85,0,0,1-5.41-5.05"/><path class="cls-2" d="M384.27,433.84c-4.3,7.15-8.63,9.3-11.95,9.84-6.93,1.12-9.49-4.76-21.49-6.65-3.73-.58-12.44-1.95-19.49,2.23-4.09,2.43-3.61,4.34-7.72,6-5.13,2.1-12.17,1.71-16.91-1.49-3.61-2.44-2.52-4.23-6.12-6.56a18.51,18.51,0,0,0-15.88-1.49c-4.88,1.9-4.08,4.57-9.78,6.95-1.84.77-7.09,3-12.31.87a12.48,12.48,0,0,1-5.88-5.06"/><path class="cls-2" d="M788.22,302.76a5.26,5.26,0,0,1,4.27,3.34,5.45,5.45,0,0,1-3.12,6.48"/><path class="cls-2" d="M779.85,509.23a147.43,147.43,0,0,1-58.54.17"/><path class="cls-2" d="M721.07,509a48.22,48.22,0,0,1-12.39,1.26,49.17,49.17,0,0,1-7-.72"/><path class="cls-3" d="M736.61,496.34a8.94,8.94,0,0,1,3.47,1.39,9.18,9.18,0,0,1,3.34,4.17"/><path class="cls-3" d="M734.05,498.46a10.74,10.74,0,0,1,3.23,2.28,10.37,10.37,0,0,1,1.88,2.76"/><path class="cls-3" d="M707.16,493.73a7.94,7.94,0,0,1,5.47,4"/><path class="cls-3" d="M703.59,496a6.32,6.32,0,0,1,4.5,4.26"/><path class="cls-2" d="M652.74,576.73l-47.87.41"/><path class="cls-2" d="M701.7,575.62l-49,1.28"/><path class="cls-3" d="M693.93,575.84l.12,7.26"/><path class="cls-3" d="M687.9,575.84l.12,7.26"/><path class="cls-3" d="M682.12,576.26l.12,7.26"/><path class="cls-3" d="M675.58,576.26l.12,7.26"/><path class="cls-3" d="M669.37,576.26l.12,7.26"/><path class="cls-3" d="M663.06,576.73l.11,7.27"/><path class="cls-3" d="M656.72,576.73l.12,7.27"/><path class="cls-3" d="M645,576.49l.12,7.27"/><path class="cls-3" d="M638.42,576.49l.12,7.27"/><path class="cls-3" d="M632.21,576.49l.12,7.27"/><path class="cls-3" d="M625.9,577l.12,7.26"/><path class="cls-3" d="M619.56,577l.12,7.26"/><path class="cls-3" d="M614.22,577l.12,7.26"/><path class="cls-3" d="M607.89,577l.11,7.26"/></g><g id="Layer_31" data-name="Layer 31"><path class="cls-2" d="M736.14,266.2a57.19,57.19,0,0,0-9.71,15.19c-2.09,4.82-9.74,22.47-1.56,35.84,1.14,1.86,4.38,7.15,10.91,9.35a19.33,19.33,0,0,0,10.51.41"/><path class="cls-2" d="M736.14,266.2a41.44,41.44,0,0,1,17.46-8.73c2-.45,21.45-4.5,36.21,9.11,5.35,4.94,10.29,14,12.12,23.34.92,4.73,1,9.45,4.76,14.06,3.1,3.79,5.17,3.18,8,7.14.42.59,5.36,7.79,2.67,15.2a16.56,16.56,0,0,1-5.2,6.75c-7.42,5.62-21.52,3.45-35.82-4.58"/><path class="cls-2" d="M738.11,277.9a25.07,25.07,0,0,0,3,12.32,26.25,26.25,0,0,0,15.08,12.06"/><path class="cls-2" d="M748.78,277.38a25.12,25.12,0,0,0,3,12.31,26.27,26.27,0,0,0,15.08,12.07"/><path class="cls-2" d="M762.15,277.9a22.42,22.42,0,0,0,3.18,11.83c5,8.27,13.77,11,15.88,11.59"/><path class="cls-2" d="M815.79,329.19a48.69,48.69,0,0,1,13.87,17.18,48.11,48.11,0,0,1,2.56,6.66l-24.91,9a55.4,55.4,0,0,1-11-13.08,54,54,0,0,1-3.85-7.69"/><path class="cls-2" d="M829.2,354.12a18,18,0,0,1,2,7.22c.39,6.79-3.59,11.78-5.61,14.32-6.67,8.43-22.49,12.8-41.25,10.81"/><path class="cls-2" d="M807.31,362c-9.3,3.74-16.63,6.7-21.71,8.76-17.12,6.92-17,6.9-17.23,7a17.38,17.38,0,0,0-7.36,2.95c-.18.13-1.45,1.36-4,3.83a10.1,10.1,0,0,0-2.71,3.84c-.43,1.16-.29,1.56-.16,1.75.45.73,2,.8,3.83.16"/><path class="cls-4" d="M762.89,384.27c-2.81,2.69-6.62,5.71-7,9.9-.24,2.72,1.69,5.43,4.55,4.14.73-.32.1-1.4-.63-1.08q-3.51-.56-2.58-3.58a7.32,7.32,0,0,1,.74-2,13,13,0,0,1,1.74-2.44c1.25-1.44,2.68-2.72,4-4,.59-.56-.3-1.44-.88-.88Z"/><path class="cls-4" d="M764,388.21c-2,2-4.83,5.28-5.06,8.29-.22,2.83,3.53,2.65,5.22,1.75.71-.38.08-1.46-.63-1.08-1.28.69-3.56.65-3.09-1.47a9.84,9.84,0,0,1,1.24-2.52,20.47,20.47,0,0,1,3.21-4.09c.57-.56-.31-1.45-.89-.88Z"/><path class="cls-4" d="M766.75,391.34A22,22,0,0,0,764,396a2.72,2.72,0,0,0,.14,2.93c1.88,2,5.28-1.37,6.44-2.7.52-.6-.36-1.49-.89-.88a12.48,12.48,0,0,1-2.2,2c-.7.49-2.65,1.76-2.52-.36a7,7,0,0,1,1.2-2.5,28.44,28.44,0,0,1,1.68-2.53c.48-.65-.61-1.27-1.08-.63Z"/><path class="cls-4" d="M784.13,386.46a12.5,12.5,0,0,1-10.68,6.65c-.8,0-.8,1.28,0,1.25a13.76,13.76,0,0,0,11.76-7.27c.38-.71-.69-1.34-1.08-.63Z"/><path class="cls-4" d="M760.15,380.56c-2,0-4.65-.54-6,1.41a2.32,2.32,0,0,0,1.2,3.57c.78.19,1.12-1,.34-1.21a1,1,0,0,1-.67-1.27,1.83,1.83,0,0,1,1.32-1.16,12.6,12.6,0,0,1,3.78-.09.63.63,0,0,0,0-1.25Z"/><path class="cls-4" d="M773,393.26a27.27,27.27,0,0,0-4.27,3.11c-.59.55.3,1.43.89.88a25.65,25.65,0,0,1,4-2.91c.68-.43,0-1.51-.63-1.08Z"/><path class="cls-2" d="M683,159.11a55.81,55.81,0,0,0,16,6.31,56.75,56.75,0,0,0,24.83-.07,6.2,6.2,0,0,1,3.41-3.76c2.93-1.07,6.26.95,7.44,3.44,1.53,3.2-.73,6.65-1.7,8.14a12.58,12.58,0,0,1-3.12,3.26c-.17,1.5-.39,3.74-.47,6.46-.28,9.9-.43,15.28,2.73,17.75,5.84,4.56,18.77-4.17,20.48-6.8l1.7-2.65a76.46,76.46,0,0,0-4-27.91c-3.26-9.49-9.17-26.65-26.09-34.52-4.79-2.23-19.1-7.73-33.81-.59-12.36,6-17.3,17.25-18.43,20-4,9.64-3,18.6-1.32,32.69.09.79.94,4.77,2.63,12.73.82,3.85,1.27,5.82,2.89,7.69.47.53,3.52,4.05,8.08,3.64a9.63,9.63,0,0,0,6.59-3.87,10.36,10.36,0,0,0,2-5.13"/><path class="cls-2" d="M683,159.11c.13,5.37.5,9.91.88,13.36,1.39,12.81,3.4,16.82,5.43,19.58a24.56,24.56,0,0,0,3.56,3.84c2.14,1.93,10.08,9.12,19.07,8.05,7.82-.94,14.75-7.93,17.41-17.33"/><path class="cls-2" d="M753.93,176.12a68.44,68.44,0,0,1,18.23,11.29c8.9,7.72,16.1,18.15,23.89,41.69,5,15.2,11.74,49,13.79,77.76"/><path class="cls-2" d="M676.18,202.35c-1.79,28,4.31,49,11.62,64.18q.8,1.65,1.62,3.24l-4.77,68"/><path class="cls-2" d="M761.59,179.92a61,61,0,0,0,.29,36.12,58,58,0,0,0,7.61,15.1l11.11,29.25"/><path class="cls-2" d="M743.14,199.23c.19,2.37.66,11.68-5.39,19.14-7.38,9.1-20.06,10-29.19,5.92S693.09,210.87,691.92,200"/><path class="cls-2" d="M685.45,204.93q4.11,14.53,8.23,29.07a28.28,28.28,0,0,0-1.88,9.55c-.22,13.41,9.56,22.68,12.11,25a91.71,91.71,0,0,1,3.26,15.58c1.81,15.06-.61,27.08-2.12,34.27-1.09,5.19-2.32,9.42-3.23,12.29"/><path class="cls-4" d="M701.62,330,695,352.18a.63.63,0,0,0,1.21.33l6.64-22.15a.63.63,0,0,0-1.21-.33Z"/><path class="cls-4" d="M694.86,352.46c-2,5.71-9.37,7-14.44,8.83-.75.26-.43,1.47.33,1.2,5.59-2,13.08-3.42,15.32-9.69.27-.76-.94-1.09-1.21-.34Z"/><path class="cls-4" d="M680.11,361.32a2.21,2.21,0,0,1-2.72-.87c-.43-.68-1.51-.05-1.08.63a3.48,3.48,0,0,0,4.43,1.32c.74-.33.1-1.41-.63-1.08Z"/><path class="cls-4" d="M677.24,360.63a1.87,1.87,0,0,1,.31-2.55c.63-.48,0-1.56-.63-1.08a3.14,3.14,0,0,0-.56,4.52c.5.62,1.38-.27.88-.89Z"/><path class="cls-4" d="M682.3,352.81A121,121,0,0,1,661.67,363c-.74.29-.42,1.5.34,1.21a123.55,123.55,0,0,0,20.92-10.32.63.63,0,0,0-.63-1.08Z"/><path class="cls-4" d="M661.28,363q-2.89-1.55-1-2.73a16.79,16.79,0,0,1,2-1.39c1.08-.67,2.23-1.23,3.37-1.79,2.34-1.15,4.71-2.25,7.06-3.37.73-.35.1-1.42-.63-1.08-2.68,1.28-5.39,2.51-8,3.86-2,1-4.47,2.22-5.8,4.13-2,2.84.89,4.05,3.42,3.58.79-.15.46-1.36-.33-1.21Z"/><path class="cls-4" d="M672.27,354l.65-.39a.63.63,0,0,0-.63-1.08l-.65.39a.63.63,0,0,0,.63,1.08Z"/><path class="cls-4" d="M658,360.53c-1.74,1.19-7.2,1.11-6.1-2.21.25-.77-1-1.1-1.21-.34-1.47,4.45,5.26,5.47,7.94,3.63.66-.45,0-1.53-.63-1.08Z"/><path class="cls-4" d="M651.61,358.55c4.46-4.75,11.67-7.81,17.6-10.23.74-.3.42-1.51-.33-1.2-6.21,2.53-13.48,5.57-18.15,10.55-.55.59.33,1.47.88.88Z"/><path class="cls-4" d="M653,355.58c-2.49-4.19,16.22-10.25,18.51-11,.76-.25.44-1.46-.33-1.2A94.06,94.06,0,0,0,655.55,350c-2.44,1.33-5.47,3.09-3.63,6.18a.63.63,0,0,0,1.08-.64Z"/><path class="cls-4" d="M684.52,336.92a105.8,105.8,0,0,0-23.09,5.49c-4.59,1.71-8.72,4.16-9.56,9.33-.13.79,1.07,1.13,1.2.33,1.08-6.63,8.39-8.51,13.9-10.18a109.36,109.36,0,0,1,17.55-3.72c.79-.1.8-1.36,0-1.25Z"/><path class="cls-2" d="M731.42,324.41a113.89,113.89,0,0,0-22.67,4.09c-2.33.67-4.57,1.39-6.7,2.15"/><path class="cls-2" d="M730,346.56a79.75,79.75,0,0,1-17.34,4.76,78.37,78.37,0,0,1-8.12.84,29.9,29.9,0,0,1-2.59-6.25,30.36,30.36,0,0,1-1.08-11.19"/><path class="cls-2" d="M730,346.56c0,2.07.11,4.22.27,6.45a117.23,117.23,0,0,0,1.66,13.29"/><path class="cls-2" d="M778.12,329.47a22.48,22.48,0,0,1-12.28,9.46c-1.68.5-11.14,3.06-18.05-3a17.15,17.15,0,0,1-5.14-8.46"/><path class="cls-2" d="M696.86,177.67c-2.55,7.06-1.85,12.82.87,14.27.55.29,1.73.7,3.87-.05"/><path class="cls-2" d="M611,343.89A36.58,36.58,0,0,0,592,348a31.18,31.18,0,0,0-2.68,1.62,89.61,89.61,0,0,0-17.11-2.12,90.91,90.91,0,0,0-33,5.37l57,24.83a59.34,59.34,0,0,1,19.16-8.56c9.84-2.44,12.81-2.38,17.81-1.63"/><path class="cls-2" d="M657.18,361.75a103.85,103.85,0,0,0-24.07,5.79"/><path class="cls-2" d="M548.85,357.13q-3,.84-5.88,1.89l43.55,19c3.59,1.56,8.59,3.56,12.59,5.56,12-6,24-11,37.82-9.89"/><path class="cls-2" d="M811.75,384.31q.21,8.1.43,16.2"/><path class="cls-2" d="M791.14,286.13c1.61,15.34,6.18,20.77,10.25,22.79,2.3,1.14,6.1,2,8.74,5.7a12.38,12.38,0,0,1,2.47,7.78c-.07,1.57-.15,4.73-2.66,7a9,9,0,0,1-6.84,2.09"/></g><g id="Layer_32" data-name="Layer 32"><path class="cls-3" d="M739.22,153.93a60.46,60.46,0,0,1,8.86,23.15,59.7,59.7,0,0,1,.54,13.93"/><path class="cls-3" d="M737.23,160.08a51.22,51.22,0,0,1,6.69,34"/><path class="cls-2" d="M564.05,220.84a5.21,5.21,0,0,0-3.68,1.57,5.72,5.72,0,0,0-1.15,4.27,10.78,10.78,0,0,0,3.27,7"/><path class="cls-2" d="M608,219.21a14.19,14.19,0,0,0,11-3.84,13.66,13.66,0,0,0,3.84-8"/><path class="cls-2" d="M597.79,213.73a14.18,14.18,0,0,0,7-1.1c5.88-2.6,7.74-8.51,8-9.5"/><path class="cls-2" d="M612.06,250c-.75,2.45-3.91,11.8-12.94,16.31-12.26,6.13-30,1.77-35.54-10.09-3.37-7.18-1.16-14.68-.16-17.52"/><path class="cls-2" d="M636.93,373.66a61.94,61.94,0,0,1,13.52-5.93,62.87,62.87,0,0,1,24.4-2.34,16.25,16.25,0,0,0-3.29-2.48c-.69-.37-1.49-.69-1.49-.69l-3.15-1"/><path class="cls-2" d="M633.11,367.54q1.9,3.06,3.82,6.12"/><path class="cls-2" d="M724.31,514.47q-1,14.44-2.08,28.88a11,11,0,0,1,1.29,2c.69,1.38,1.13,3,1.05,7.34s-.14,6.62-1.35,7.64a5,5,0,0,1-3.73.91l-14.57,2.1"/><path class="cls-2" d="M721.85,542.94a24.8,24.8,0,0,1-18.11.76"/></g></svg>