<svg xmlns="http://www.w3.org/2000/svg" viewBox="0 0 1214.22 692.43"><defs><style>.cls-1{fill:#214e8b;}.cls-2{opacity:0.62;}.cls-3{fill:#f7ebdf;}.cls-4,.cls-8{fill:none;stroke:#214e8b;stroke-miterlimit:10;}.cls-4{stroke-width:1.4px;}.cls-5{fill:#00a38e;}.cls-6{fill:#eebdb6;}.cls-7{fill:#f9e5dd;}.cls-8{stroke-width:3px;}.cls-9{opacity:0.76;}.cls-10{fill:#616caa;}.cls-11{opacity:0.75;}.cls-12{fill:#f2a042;}.cls-13{opacity:0.79;}.cls-14{fill:#8045dd;}.cls-15{fill:#fff;}</style></defs><title>What, why</title><g id="Layer_52" data-name="Layer 52"><path class="cls-1" d="M815.71,278.07c-1.17,2.95-3.45,9.15-7,9.79l.33,1.2c5.18-1.39,5.08,7.83,5.11,10.53h1.25c-.13-5.11,2.78-8.89,7.6-10.46a.63.63,0,0,0-.17-1.23c-4.76-.29-6.19-5.88-5.92-9.67.06-.8-1.19-.8-1.25,0-.33,4.66,1.81,10.59,7.17,10.92l-.17-1.23c-5.46,1.79-8.65,5.84-8.51,11.67a.63.63,0,0,0,1.25,0c0-3.85-.48-13.4-6.69-11.73-.79.21-.45,1.34.33,1.2,4.18-.76,6.5-7.28,7.85-10.66.3-.75-.91-1.07-1.21-.33Z"/><path class="cls-1" d="M429.77,384.55a10.36,10.36,0,0,1-6,9.76.63.63,0,0,0,.49,1.14c6.26-2.17,7.24,5.77,7.21,9.79,0,.81,1.18.79,1.25,0,.31-4,1.53-10,6.84-9.28.7.09.85-1.07.17-1.22-4.85-1.1-8.87-5-8.75-10.19a.63.63,0,0,0-1.25,0c-.13,5.72,4.28,10.17,9.67,11.39l.16-1.23c-6.18-.81-7.72,5.72-8.09,10.53h1.25c0-5.05-1.83-13.4-8.8-11l.48,1.15A11.67,11.67,0,0,0,431,384.55a.63.63,0,0,0-1.25,0Z"/></g><g id="Layer_55" data-name="Layer 55"><g class="cls-2"><path class="cls-3" d="M1214.22,691.84v-148q-1.6-1.44-3.3-2.82c-35.27-34.32-97-31.64-148.56-22.18-125.09,22.94-244.51,69.6-347.76,135.88-17.59,11.28-34.94,23.38-50,37.15Z"/></g><path class="cls-3" d="M723.69,644.42a12.31,12.31,0,0,0,.28,6.92l5,3.91Z"/><path class="cls-3" d="M754.63,692.78A51.25,51.25,0,0,0,742,672.31c-6.59-6.55-15.59-13.3-18-21-69.11-54-140.23-108.47-225.08-140.3-114.29-42.87-241.87-40.5-364-33C89.65,480.82,44.29,484.24,0,491.77v201Z"/></g><g id="Layer_56" data-name="Layer 56"><path class="cls-4" d="M1058.37,649.84c.51-.68,5.38-7,13.64-6.82a17.13,17.13,0,0,1,12.4,6c.33.63,4.67,8.32,13.32,9a17.11,17.11,0,0,0,16.59-10c.23-.36,5.5-8.16,14.56-7.61,7.34.44,11.51,6,12.09,6.82a12.32,12.32,0,0,0,23.87-.8"/><path class="cls-4" d="M1058.37,661.65c.51-.68,5.38-7,13.64-6.82a17.16,17.16,0,0,1,12.4,6c.33.62,4.67,8.32,13.32,9a17.14,17.14,0,0,0,16.59-10c.23-.36,5.5-8.17,14.56-7.62,7.34.45,11.51,6,12.09,6.82a12.32,12.32,0,0,0,23.87-.79"/></g><g id="Layer_57" data-name="Layer 57"><path class="cls-4" d="M1052.85,622.61H1172q-4.9,34.75-9.8,69.52H1061.1Z"/><path class="cls-1" d="M1129.83,621.61c-2.32-30.79,6.4-61.17,17-88.93s23.28-54.53,29.84-84.29c3.86,9.48,2.92,20.95,1.06,31.37s-4.53,20.9-3.83,31.55c.47,7.21,2.47,14.51,1,21.5-2.21,10.82-11.7,16.75-14.87,27.16-2.16,7.09-1.18,15.65-4.56,21.9-3.24,6-9.73,8.25-12.42,14.67-1.26,3-1.5,6.53-2.53,9.68-1.89,5.83-6.19,9.66-10.27,13.17"/><path class="cls-1" d="M1131.08,621.61c-4.22-62,33.62-114.43,46.79-172.88h-2.41c6.11,16.23-.17,33.15-2.26,49.5-1.13,8.82.2,16.95.84,25.71.62,8.47-2,14.72-6.84,21.41-3.61,4.95-7.25,9.78-8.76,15.83-2,7.83-.56,16.75-6.28,23.21-4,4.48-8.92,7.37-10.83,13.36-1.33,4.15-1.54,8.35-3.88,12.19-2,3.38-5.09,6-8,8.57-1.21,1,.56,2.81,1.77,1.76,5.6-4.84,9.71-9.66,11.43-17,1.19-5.07,2.49-8.8,6.37-12.47a54.24,54.24,0,0,0,6-6c4.76-6.22,4-14.16,5.5-21.44,1.51-7.52,6.25-12.95,10.46-19.09a29.79,29.79,0,0,0,5.67-18.6c-.36-10-2.19-19-.74-29,2.33-16.07,8-32.69,2-48.65-.4-1.06-2.12-1.3-2.41,0-13.22,58.69-51.12,111.31-46.88,173.55.11,1.59,2.61,1.6,2.5,0Z"/><path class="cls-1" d="M1127.4,619.34c1.8-21.26-1.07-42.67-1.13-64.05-.11-39,9.08-76.9,18.18-114.09-7.85-3.91-16.63,3.31-21.27,12.34s-6.77,19.89-11.28,29c-2.46,5-5.68,9.63-6.65,15.42-1.41,8.43,2.33,17,1.72,25.6-.65,9.22-6.22,17.35-5.62,26.57.71,10.65,9.27,17.87,11.14,28.28,1.28,7.09-.66,15.13,2.13,21.46,1.86,4.23,5.41,6.64,8.44,9.56s5.86,7.35,5.16,12.14"/><path class="cls-1" d="M1128.65,619.34c2.33-29.93-2.7-59.8.06-89.78,2.75-29.82,9.84-59,16.94-88a1.26,1.26,0,0,0-.57-1.41c-11.31-4.77-20.35,6.67-24.44,15.87-3,6.73-4.84,13.9-7.55,20.75s-7.72,13.41-9,20.93c-1.28,7.26,1.19,14.43,1.65,21.64.51,8.07-3,15-4.77,22.62a26.87,26.87,0,0,0,1.47,17.17c2.64,6.16,7,11.61,8.58,18.22,1.86,7.81-.89,16.5,2.9,23.89,3.86,7.56,13.75,10.57,13.09,20.4-.11,1.6,2.39,1.6,2.5,0,.82-12.06-13.1-15.51-14.85-26.51-.89-5.62.11-11.36-.92-17-.87-4.71-3.14-8.94-5.43-13.08-2.88-5.19-5.72-10.38-5.71-16.48,0-6.35,2.91-12.24,4.48-18.27a38.14,38.14,0,0,0,.69-15.27c-.92-6.71-2.6-13.37-.44-20,1.72-5.34,5-10,7.24-15.19,2.5-5.89,4.22-12.06,6.46-18.05s4.9-11.8,9.64-16.1c2.39-2.18,5.45-4.12,8.78-4.28,5.34-.24,2.36,5.5,1.6,8.66-6.14,25.29-11.89,50.76-14.53,76.69a309.43,309.43,0,0,0-.94,46.07c.75,15.51,1.82,31,.61,46.55-.12,1.6,2.38,1.59,2.5,0Z"/><path class="cls-1" d="M1125.6,620.06c-2.61-12.31-12.19-19.42-20-27.27-22.81-22.92-34.25-59.42-44.27-94.36l-4.89,27c-1.12,6.14-2.23,12.61-.84,18.66,1.44,6.33,5.46,11.41,6.42,17.89.9,6.11-1,12.94,1.31,18.39,2.72,6.38,9.5,7.16,14.25,11.12,3.35,2.8,5.69,7.25,9,10.11,5.88,5.09,13.54,4.34,20.53,5.71a37.41,37.41,0,0,1,18.25,9.68"/><path class="cls-1" d="M1128,619.39c-2.44-10.2-9.25-17.43-16.63-24.48A118.09,118.09,0,0,1,1090,567.64c-12.34-21.7-19.44-46-26.29-69.88-.64-2.22-4.36-2.53-4.82,0q-2.28,12.54-4.55,25.07c-1.19,6.59-2.61,13.4-1.53,20.1,1.18,7.29,6.21,13.35,6.86,20.73.55,6.23-1.24,12.79,1.79,18.62,2.48,4.77,7.15,6.63,11.56,9.18,5.61,3.24,8.1,9.43,13.3,13.11,4.79,3.39,10.55,3.88,16.2,4.57a37.1,37.1,0,0,1,21,9.62c2.38,2.15,5.93-1.37,3.53-3.53a43.22,43.22,0,0,0-14.85-9.11c-5.43-1.89-11.13-1.69-16.68-3-7.61-1.77-10-7.43-15.16-12.43-3.68-3.58-9-4.73-12.62-8.25-5.3-5.12-2.44-14-3.29-20.48-.77-5.86-4.06-10.71-5.85-16.24-2.5-7.69-.52-15.79.88-23.51l4.19-23.14h-4.82c6.69,23.29,13.67,46.9,25.26,68.31A118.82,118.82,0,0,0,1103.32,594c8,8.14,17.09,15.06,19.87,26.69.75,3.13,5.57,1.81,4.82-1.33Z"/><path class="cls-1" d="M1129.12,621.57c5.8-6.52,14.72-9.62,20.44-16.2,3.3-3.81,5.33-8.54,8.22-12.67,5-7.19,12.6-12.41,17.11-19.94,3.72-6.22,5.08-13.53,6.37-20.66a34.35,34.35,0,0,1-2.83,27.75c-1.91,3.28-4.37,6.25-5.9,9.73-2.45,5.57-2.7,12.65-7.58,16.29-2.22,1.65-5,2.25-7.53,3.43-3.57,1.7-6.45,4.57-9.87,6.54a44.94,44.94,0,0,1-8.76,3.52l-10.1,3.25"/></g><g id="Layer_53" data-name="Layer 53"><path class="cls-5" d="M670.48,518.76l.19-.08c18.64-7.6,33.65-14.14,44.12-18.8,18.6-8.28,37.91-15,56.19-23.94a38.59,38.59,0,0,1,6.4-2.46,40.56,40.56,0,0,1,14.67-1.29,32.35,32.35,0,0,1,8.29,1.7,24,24,0,0,1,6.93,3.58,23.44,23.44,0,0,1,5.78,6.56c3,5,3.61,9.64,4.35,15.14.61,4.59,1.59,11.59,3,20.82q1.8,19.63,3.61,39.27c.4,9.88.59,20.2.48,30.93q0,5.82-.21,11.48c-.19,6.62-.43,11.29-.51,13,0,0-.54,11.95.4,27,1.2,19.44,6.32,38.8,9.25,48.81l-.36,2-29.93-1H706.71a110,110,0,0,0,2-11.57,111.52,111.52,0,0,0,.48-20.45,41.69,41.69,0,0,0-2.64-18.08,60.85,60.85,0,0,0-4.13-8.18c-3.26-5.66-4.74-6.77-7.54-11.41A68.26,68.26,0,0,1,689,609.42c-1.78-4.84-3.58-9.66-4.08-16.24-.32-4.25-1.1-6.22.08-8,1.36-2.13,3.28-1.82,5.46-4.82a8.74,8.74,0,0,0,2-5.27,9.45,9.45,0,0,0-5-7.8c-1.89-.8-3.61-.45-3.68-.93s1.71-1.35,1.71-1.35h0c1-1.3,1.22-1.66,1.22-1.66a9.67,9.67,0,0,0,.6-1.51c.49-1.32.74-2,.76-2.1a4.41,4.41,0,0,0-.6-3,7.82,7.82,0,0,0-2.72-3.75c-.39-.27-1.9-1.22-1.9-1.22h0s-1.11-.44-1.82-.65a8.43,8.43,0,0,0-2.43-.32,17.69,17.69,0,0,1,1.28-1.74c.71-.86,1-1.1,1.67-2a5.91,5.91,0,0,0,.91-1.5,6.41,6.41,0,0,0,.15-2.71h0a10.41,10.41,0,0,0-.61-3.16c-1.06-2.47-4.43-3.7-4.43-3.7h0a9.08,9.08,0,0,0-2-.76,4.11,4.11,0,0,0-1.66-.26.25.25,0,0,1-.19,0c-.27-.2,1.31-1.13,1.35-1.21.63-1.27.29-1.74.88-2.64,1.37-2.07.52-5,.31-5.72a9.3,9.3,0,0,0-.4-1.08,8.08,8.08,0,0,0-.82-1.48c-.27-.37-.66-.7-3.1-1.61-1.61-.59-3.26-1.11-3.26-1.11h0A6,6,0,0,1,670.48,518.76Z"/></g><g id="Layer_54" data-name="Layer 54"><path class="cls-6" d="M502.72,400.73a64,64,0,0,0,5,6A55.61,55.61,0,0,0,524,419.09a57.89,57.89,0,0,0,8.84,3.36c8,2.56,11.63,2.41,13.88,2.09.92-.14,1.67-.31,2.17-.43.88,1.94,2.09,4.67,3.46,8a268.86,268.86,0,0,1,11.5,33.38c2.5,9.4,3.91,17,4.58,20.83,1,5.62,1.62,10.56,2.06,14.56.06.67.13,1.34.2,2-6-1.83-11.09-3.37-14.86-4.53-11.38-3.49-12.48-3.89-14.31-5.17-5-3.5-4.4-5.88-12.13-12.28-2.64-2.18-3.43-2.5-6.09-4.92a70,70,0,0,1-7.8-8.17c-2.67-3.31-3.72-5.3-6.67-6.82a13.38,13.38,0,0,0-3.57-1.23,8.18,8.18,0,0,0-.79,2c-.17.73-.5,2.6.69,5.91a22.51,22.51,0,0,0,5,7.86,28.58,28.58,0,0,1-5.65-1.26c-3.49-1.17-6.43-2.92-12.59-8-3-2.52-6.87-5.87-11.15-10.06a3.25,3.25,0,0,0-2.63-.75,3.21,3.21,0,0,0-2.12,1.47c-.1,1-.19,1.93-.29,2.89l.72,1.93a8.24,8.24,0,0,0-.51,2.08,10.15,10.15,0,0,0,.32,3.46,17.74,17.74,0,0,0,.9,2.91,32.68,32.68,0,0,0,0,3.73,30.64,30.64,0,0,0,1.17,7,16.66,16.66,0,0,0,.09,4.74,20.06,20.06,0,0,0,1.38,4.45c.44.94,1.76,3.57,5.95,7.75A50.51,50.51,0,0,0,493,504c1.58,1.09,3.35,2.15,11.27,5.85,5.26,2.45,5.14,2.29,10.11,4.61,6.57,3.06,9.85,4.58,13.1,6.51s3.92,2.59,6.88,4.12a58.47,58.47,0,0,0,8.66,3.61c4.07,1.37,12.34,4.59,31,12.93.54,2.11,1.21,4.84,1.92,8.05,5.44,24.47,4.11,34.81,7.48,42.7a25.23,25.23,0,0,1,1.78,8.3,11.64,11.64,0,0,1-.55,4.31,13,13,0,0,1-2.16,3.77c-2.3,2.71-5.81,3.71-10.76,4.92-4.59,1.12-8.9,2-12.89,2.83.26,3.22.59,6.54,1,9.93.8,6.78,1.83,13.2,3,19.25l-37.11,2.36a31,31,0,0,1-3.08-2.94,33.56,33.56,0,0,1-7.16-12.49l-6.18-13a71,71,0,0,1-22.66,2.41c-5.5-.31-10.93-.68-16.83-4a25.76,25.76,0,0,1-8.28-7c-1.05-1.4-3.08-4.43-5.21-14.22a115.45,115.45,0,0,1-2.37-17,346.17,346.17,0,0,1-.93-38.85c.6-18.33,2-14.94,8.17-65.94,1.36-11.23,2.64-22.41,8-36.35a103.9,103.9,0,0,1,9.1-18.38,98.68,98.68,0,0,1,17.52-20.69"/></g><g id="Layer_48" data-name="Layer 48"><path class="cls-7" d="M650.41,375.78c-6.06-17.15-11.14-38.2,3.38-50.69,6.06-5.22,14.48-7.76,22.61-10.15,45.1-13.26,91.07-26.77,129.12-51.29S873.12,201.3,872.14,160c-.73-31-18.7-60.76-44.29-82.9S769.52,39.8,735.66,28.9C648,.67,548.86-.24,462.42,28.26,429.74,39,398.24,54.33,375.88,77.43s-34.49,54.94-25.76,84.48c9.46,32,41.32,56.22,76,70.44s72.75,20.34,109.54,29.53c16.85,4.21,34.27,9.5,46.24,20.64,12.2,11.37,16.87,27,23.93,41.22,10.5,21.09,27.14,40,47.93,54.37"/></g><g id="_2nd" data-name="2nd"><path class="cls-4" d="M572.86,341.19a33.78,33.78,0,0,1-2.59,28.35A18.7,18.7,0,0,0,575,382.46a6.24,6.24,0,0,1-1.71,4.23,6.67,6.67,0,0,1-6,1.59c-.5,1-1.17,2.44-1.89,4.18a53,53,0,0,0-2.77,8.21c-.74,3.1-.44,3.42-1.16,4.75a10.53,10.53,0,0,1-4.87,4.29c-.86.43-4.41,2.08-10.67,1.25a33.53,33.53,0,0,1-17.15-8"/><path class="cls-4" d="M572.86,341.19c-6.22,2.28-11.24,5.88-12.61,8.15a10.34,10.34,0,0,1-2.32,3.09c-2.22,1.89-3.92,1.33-7.31,2.86a12.37,12.37,0,0,0-5.37,3.94c-1.86,2.64-2.73,8.47-2.53,10.18-1.68.42-3.48.32-5.16.74C537,368.2,536.85,364,536,362"/><path class="cls-4" d="M572.86,341.19a27.68,27.68,0,0,0,5-10.75,23.21,23.21,0,0,0,.52-8.7c-1.47-10.18-10.24-15.88-11.71-16.84-3.56-2.32-4.78-1.21-9.52-3.91a40.29,40.29,0,0,1-8.51-6.8c-12.29-11.05-39.69-1.38-41-.91a54.62,54.62,0,0,0-14.72,8,53.23,53.23,0,0,0-16.08,21.59c-8.68,22.55,4.26,44,5.86,46.59a128.22,128.22,0,0,0,3.48,13.69c2.46,7.87,2.35,10.7,4.87,13.08,1,1,3.16,2.6,9.67,3.51a53.82,53.82,0,0,0,21.92-1.59c1.29-5.16,3.91-13.7,5.2-18.86"/><path class="cls-4" d="M536,366.48c-.59-.3-4.51-2.67-7.36-1.37-3.58,1.64-4.5,6.64-3.41,10.12a9.53,9.53,0,0,0,4.08,5.1"/><path class="cls-4" d="M540.84,410.17c-.05,2.13-.59,6.07-.64,8.2h0"/><path class="cls-4" d="M496.63,398.92c-4.19,3.09-9.3,9.67-15,16.85-11.76,14.77-15.37,29.88-19.42,53.52-6.56,38.28-10.38,61.46-9.09,95.76,1.25,33.08,6,42.82,9.1,46.81.56.72,1.17,1.35,1.17,1.35,4.88,5.21,11,6.77,14.46,7.66,12.74,3.26,29.83-.8,31.51-1.21"/><path class="cls-4" d="M540.52,415c7.86,4.95,9.56,7.44,9.21,8.37-.92,2.46-13.07,1-22.59-2.87-12.14-4.9-20.94-14.95-25.05-20.62"/><path class="cls-4" d="M548.89,424.11a268.59,268.59,0,0,1,15,41.35,233.57,233.57,0,0,1,6.92,38.28"/><path class="cls-4" d="M712.27,377a14.69,14.69,0,0,0-6.95-5c-6.47-2.15-12.05,1.29-12.85,1.8"/><path class="cls-4" d="M709.6,384.69a17.33,17.33,0,0,0-16.6-1.93"/><path class="cls-4" d="M675,417.7l21.13.55a29.15,29.15,0,0,1-7.92,6.07,26.43,26.43,0,0,1-12.48,3"/><path class="cls-4" d="M690.3,347.18a20.86,20.86,0,0,0,8.89.76c5.51-.8,9.3-6.15,10.23-7.21a7.84,7.84,0,0,0,2.4,4.75,8.34,8.34,0,0,0,8.92,1.14,10.42,10.42,0,0,0-2.59,6.59c-.07,5.28,4.2,8.39,4.6,8.67-1.2,5.17-.28,8.27,1,10.2,2.21,3.39,5.34,3,6.74,6.34,1.32,3.17-.83,5-.09,9.65a15.18,15.18,0,0,0,3.07,6.82"/><path class="cls-4" d="M706.38,444.52a111.16,111.16,0,0,1,5.6,26.3,121.68,121.68,0,0,1-1,30.46"/><path class="cls-4" d="M756.74,455.85a51.21,51.21,0,0,0,.9,15.35,35.77,35.77,0,0,0,3,8.6"/><path class="cls-4" d="M747,328.82a18.34,18.34,0,0,1,21.42,8.53A30,30,0,0,1,783.28,365a36.68,36.68,0,0,1,9.85,9.26,38.21,38.21,0,0,1,7.1,22.27,26.77,26.77,0,0,1,4,7.39c4.37,12.55-2.38,24.39-4,27a19,19,0,0,1-.76,13.49c-4.43,9.47-15.4,10.61-15.93,10.66a10.59,10.59,0,0,1-6.2,3.55c-4.44.66-9.16-2-11.74-6.69A19.67,19.67,0,0,1,755.29,456c-10,.81-20.59-7.13-26.07-20-3.94,1.59-22.74,9.08-35.83,11.76-3.25.66-8.23,1.46-11.38-1.31a8.28,8.28,0,0,1-2.44-4.33c-7.08-28.07-5.72-42.27-5.72-42.27,2.2-23.12,10.56-41.85,16.77-53.26"/><path class="cls-4" d="M493,337.56a27.73,27.73,0,0,0-3,10.21,28.53,28.53,0,0,0,3.91,17"/><path class="cls-4" d="M484.1,351.25a31.91,31.91,0,0,0,6.51,20.64"/><path class="cls-4" d="M560.22,312.68a14.18,14.18,0,0,1,7.06,6.09c2.56,4.6,2.14,10.5-1,15.34"/><path class="cls-4" d="M777.75,396.6a16.55,16.55,0,0,1,4.89,6.79c2.7,7.14-.77,13.63-1.36,14.68"/></g><g id="Layer_40" data-name="Layer 40"><path class="cls-4" d="M656.41,524.54l119-51.12a38.19,38.19,0,0,1,12.89-2.29c2.86,0,13.53,0,21,6.67,6,5.41,7.38,12.92,8,16.68,8.83,51.91,8,89.37,8,89.37-.94,39.89-1.86,44.56-.33,60.1A268.45,268.45,0,0,0,834,691.44"/><path class="cls-4" d="M685.56,583.77a84.24,84.24,0,0,0,2.88,22.2A76.88,76.88,0,0,0,701,630.44c7,9.93,12.55,28.21,5.83,65"/><path class="cls-4" d="M489.21,518.36c3.34,24.48,7.15,46.17,10.82,64.64,3.92,19.69,7.56,35,17.09,52.69,2.89,5.34,5.61,9.58,7.55,12.46l38.21-2.43L545.33,533.16"/><path class="cls-4" d="M574.07,541.66c5.27,19.85,5.78,37.73,11,57.59a12.9,12.9,0,0,1-1.53,8.3c-3.44,5.82-25.11,9.1-25.54,9.1"/><path class="cls-4" d="M575.7,691q-.24-32.34-.26-64.89V612.53"/></g><g id="Layer_41" data-name="Layer 41"><path class="cls-4" d="M558.94,646c1.08,14.17,2.46,20.28,3.63,23.14.29.69,1.21,2.77.32,4.48a4.81,4.81,0,0,1-4,2.22c-3.06.13-6.3-3.08-7.89-8-.32-1-.89,10.12,4.39,16.57.82,1,2.25,2.51,1.8,3.82-.55,1.57-3.59,2.14-5.27,1.91-6.71-.91-9.46-16.95-9.83-19.25"/><path class="cls-4" d="M524.22,647.48a71.23,71.23,0,0,0-1,14.91c.23,6.07.4,10.46,2.76,15.38,1.16,2.44,5,5.63,11.53,9.8"/><path class="cls-4" d="M571.32,358.43a10.73,10.73,0,0,0-3.55-1.53,12,12,0,0,0-8.82,1.71"/><path class="cls-4" d="M568.34,366.15a10.05,10.05,0,0,0-12.08.33"/><path class="cls-1" d="M564.64,371c4.51,0,4.52-7,0-7s-4.51,7,0,7Z"/><path class="cls-4" d="M467.1,616.93c-.19,8.08-.18,16.45.08,25.09a479,479,0,0,0,4.19,50.76"/><path class="cls-4" d="M678.37,586c28-9.7,53.91-17.26,81.89-27"/><path class="cls-4" d="M747.63,329A33.6,33.6,0,0,0,732,320.8c-15.44-3.16-27.37,7.49-28.77,8.78a35.38,35.38,0,0,0-18.63,9.52c-11.66,11.57-10.35,27.27-10.12,29.53a39.86,39.86,0,0,0-5.54,8.56,42,42,0,0,0-3.56,23.31,36.59,36.59,0,0,0-.49,50.18,27.08,27.08,0,0,0,11.34,7.84c10.65,3.61,20.65-1.41,23.5-2.85a43.5,43.5,0,0,0,8.61-6"/><path class="cls-4" d="M731.88,392.3c.78-.4,4.17-2,7.57-.68,4.5,1.8,6.31,7.75,5,12.34a11.49,11.49,0,0,1-10,8"/><path class="cls-4" d="M656.12,528.37c1.46-.21,9.32.35,10.16,1.42a4.16,4.16,0,0,1-.5,5.37,4.21,4.21,0,0,0,2.25,7.49,3.85,3.85,0,0,1,4.25,3.12,3.79,3.79,0,0,1-2.25,3.87,3.44,3.44,0,0,0,1.75,6.62,3.47,3.47,0,0,1,2,6.49,4,4,0,0,0,2.25,7.49,4.27,4.27,0,0,1,1.87,8.24c-2.31,1.13-3.2,3.65-2.37,5.37a3.94,3.94,0,0,0,3.37,2"/></g><g id="Layer_42" data-name="Layer 42"><path class="cls-4" d="M734.47,411.91a11.35,11.35,0,0,0-4.67,2.82c-4.51,4.61-4.55,13.42-.22,22.09"/></g><g id="Layer_43" data-name="Layer 43"><path class="cls-4" d="M656.73,524.36a4.75,4.75,0,0,0-.75,1.16,5.67,5.67,0,0,0-.31,3.65"/><path class="cls-4" d="M546.48,688.93a14,14,0,0,1-6.39-.28c-5.52-1.59-8.25-6.48-9.57-8.85a23.36,23.36,0,0,1-2.8-8.49"/><path class="cls-4" d="M564.67,394.29l-5-1.06a4,4,0,0,0,3.23,6.44"/></g><g id="Layer_44" data-name="Layer 44"><path class="cls-4" d="M655.31,528.7C615.78,516.73,584.53,507,545,495"/><path class="cls-4" d="M679.25,572.32c-1.65,1.27-6.52,4.53-9.53,5.21a19.89,19.89,0,0,1-11.79-1.32c-7.58-3-56.7-23.15-124-51.3a159.33,159.33,0,0,0-24.67-13c-6.41-2.67-11.31-4.19-17.2-8.57a47.11,47.11,0,0,1-11.69-12.09"/><path class="cls-4" d="M687.19,384.64a124.9,124.9,0,0,1-6.84,11.09c-1.81,2.61-3.62,5-5.4,7.21a7,7,0,0,0,1.82,4,7.09,7.09,0,0,0,4.6,2.18"/><path class="cls-1" d="M697.73,387.79l.12,0-.93.13h.13l-.93-.12a.69.69,0,0,1,.24.05l-.84-.35a.71.71,0,0,1,.22.13L695,387l.09.09-.55-.71a.67.67,0,0,1,.13.21l-.36-.83,0,.12-.13-.93a.53.53,0,0,1,0,.25l.13-.93a1.13,1.13,0,0,1-.08.24l.36-.84-.07.11.55-.71a1,1,0,0,1-.17.19l.71-.55a.76.76,0,0,1-.23.13l.83-.36-.13,0,.93-.13a.89.89,0,0,1-.28,0l.93.12a.77.77,0,0,1-.27-.08l.83.36-.12-.07.71.55a1,1,0,0,1-.21-.19l.55.71-.07-.11.35.83,0-.12.13.93v-.15l-.13.94,0-.14-.35.83.07-.12-.54.71a.61.61,0,0,1,.2-.19l-.71.55.11-.07-.83.36a.72.72,0,0,1,.25-.07l-.93.12H697l-.93-.12a.78.78,0,0,1,.25.07l-.84-.35.12.06-.71-.55.1.08a3.79,3.79,0,0,0,2.47,1,3.55,3.55,0,0,0,2.48-1,3.47,3.47,0,0,0,1-2.47,3.37,3.37,0,0,0-1-2.48,5.54,5.54,0,0,0-1.82-1.06,4.29,4.29,0,0,0-1.38-.18,4.4,4.4,0,0,0-3.32,1.7,4,4,0,0,0-.31,4.48,4.38,4.38,0,0,0,8.12-2.21,4.3,4.3,0,0,0-5.39-4.07,3.5,3.5,0,0,0,1.86,6.75Z"/><path class="cls-4" d="M550.43,689.56a16.75,16.75,0,0,1-3.95-.63,18.89,18.89,0,0,1-5.06-2.43c-3.21-2.26-6.42-8.26-6.81-16.14"/><path class="cls-4" d="M738.43,406.09c4.78-.09,9.23,7.36,10.89,11.61a10.84,10.84,0,0,1-4.1,13c-4.64,2.84-9.72.41-10,.28a10.81,10.81,0,0,1-5.87-10.58C729.84,415.6,733.46,407,738.43,406.09Z"/><path class="cls-8" d="M738.62,408.1c4-.08,7.81,6.22,9.22,9.81a9.19,9.19,0,0,1-3.47,11c-3.93,2.41-8.22.35-8.43.25a9.15,9.15,0,0,1-5-9C731.36,416.14,734.42,408.82,738.62,408.1Z"/><path class="cls-4" d="M668.86,519.56a8.78,8.78,0,0,1,4.9,15.93"/><path class="cls-4" d="M674.3,534.55a8.78,8.78,0,0,1,4.9,15.93"/><path class="cls-4" d="M679.83,550.55a8.78,8.78,0,0,1,4.9,15.93"/><path class="cls-4" d="M684.38,566.18a8.78,8.78,0,0,1,4.9,15.93"/><path class="cls-4" d="M548.6,432.56a57.11,57.11,0,0,1-51.18-24.63"/></g><g id="Layer_45" data-name="Layer 45"><path class="cls-4" d="M545.35,495.15c-5.42-2.29-8.61-5.55-12.34-9.93a57.63,57.63,0,0,0-5.16-5.87c-1.83-1.63-4-2.85-5.86-4.4-5.62-4.64-8.83-12.16-15.41-15.3"/><path class="cls-4" d="M507,459.84a1.68,1.68,0,0,0-1.71-.1,2.66,2.66,0,0,0-.65,1.32,12.23,12.23,0,0,0,1.2,8.18,46,46,0,0,0,5.44,7.69"/><path class="cls-4" d="M510.71,476.56c-11.7-3.18-21.26-11.92-30-20.36"/><path class="cls-4" d="M481.34,456.77c-.91-1.22-3.31-1.81-4.51-.87a3.72,3.72,0,0,0-.95,4.37"/><path class="cls-4" d="M475.71,459.81a14.24,14.24,0,0,0,2.25,3.88,64.55,64.55,0,0,0,16.7,15.59"/><path class="cls-4" d="M476.43,461.74c-1.51,3.71.33,7.91,2.5,11.28a54.72,54.72,0,0,0,11.54,12.84"/><path class="cls-4" d="M477.18,469.86a22.37,22.37,0,0,0,1.92,11.81,40.88,40.88,0,0,0,6.54,8.95,22.84,22.84,0,0,0,5.81,4.94"/><path class="cls-4" d="M478.35,480.41a16.67,16.67,0,0,0,3.3,12.75"/></g><g id="Layer_46" data-name="Layer 46"><g class="cls-9"><path class="cls-5" d="M479.22,79.93c10.38,1.87,19.62,7.93,26.24,16.14s10.73,18.23,13.06,28.51c2.12,9.32,2.84,19.13.6,28.42-2.86,11.87-10.51,22.35-20.41,29.5s-21.94,11.07-34.1,12.15c-12.34,1.1-25.6-1-35.06-9A46.12,46.12,0,0,1,418.8,171.5c-7.82-15.09-10.24-33.13-5.58-49.47s16.62-30.69,32.32-37.2c12.71-5.27,19.94-5.61,33.68-4.9"/></g><g class="cls-9"><path class="cls-10" d="M600.33,211.16c3.24-10,10.49-18.38,19.51-23.84s19.5-8.19,30-9.13c9.52-.85,19.33-.25,28.24,3.21,11.39,4.42,20.74,13.41,26.5,24.18s8,23.22,7.48,35.42c-.56,12.37-4.38,25.24-13.57,33.54A46.14,46.14,0,0,1,683,283.3c-16,5.72-34.19,5.71-49.77-1.09s-28.18-20.59-32.53-37c-3.52-13.29-2.9-20.51-.35-34"/></g><g class="cls-11"><path class="cls-12" d="M742.64,111.79c7.15-7.75,17.23-12.3,27.71-13.48s21.13.73,31.06,4.28c9,3.21,17.66,7.87,24.3,14.74,8.49,8.78,13.22,20.87,13.94,33.06s-2.43,24.45-8,35.29c-5.69,11-14.55,21.08-26.37,24.77a45.71,45.71,0,0,1-17.74,1.46c-16.93-1.5-33.45-9.13-44.74-21.83s-17-30.5-14-47.24c2.38-13.55,6-19.84,13.94-31"/></g><g class="cls-13"><path class="cls-14" d="M648.68,31.28c9.53,4.51,16.88,12.78,21.13,22.43s5.6,20.39,5.17,30.92c-.38,9.56-2.25,19.21-6.83,27.59-5.85,10.72-16,18.84-27.4,23.16s-24.06,5-36.09,2.84c-12.19-2.16-24.46-7.61-31.5-17.79a46,46,0,0,1-6.68-16.51c-3.62-16.6-1.25-34.64,7.5-49.21S598,29.42,614.89,27.23c13.64-1.77,20.72-.22,33.79,4.05"/></g></g><g id="Layer_47" data-name="Layer 47"><path class="cls-15" d="M620.66,83.15c5-4.85,11.69-1.33,15.71,2.86,5.71,5.95,2,14.65-4.42,18.13-7.33,4-13.79.66-15.27-7.58-1.24-7,1.79-14.4,9.3-15.64,3.16-.52,1.82-5.34-1.33-4.82-10.87,1.79-15.07,13.66-12.43,23.38,2.9,10.72,12.8,14.13,22.25,9,8.65-4.71,13.35-16.58,6.46-24.86-5.84-7-16.32-11.22-23.81-4-2.31,2.24,1.22,5.78,3.54,3.54Z"/><path class="cls-15" d="M622.25,78.25q-5.41-8.35-11.57-16.19c-2-2.54-5.49,1-3.53,3.53q5.73,7.35,10.78,15.19c1.75,2.69,6.08.18,4.32-2.53Z"/><path class="cls-15" d="M607.48,63.74A79,79,0,0,0,616.3,65c2.77.24,3.46-4.5.66-4.91l-9.38-1.36a2.55,2.55,0,0,0-3.08,3.07,20.6,20.6,0,0,1-.94,9.41c-1,3.07,3.83,4.38,4.83,1.33a26.26,26.26,0,0,0,.93-12.07l-3.07,3.08,9.38,1.36L616.3,60a67.49,67.49,0,0,1-7.49-1.06c-3.15-.63-4.49,4.19-1.33,4.82Z"/><path class="cls-15" d="M662.91,238.52a97.66,97.66,0,0,0-9.8-27.25c-2.42-4.49-5.27-8.88-9.24-12.08-1.58-1.28-4-2.31-5.47-.85a3.79,3.79,0,0,0-.89,2.18c-.41,3.08.55,6.15,1.5,9.1l10,31.31a2.07,2.07,0,0,0,.81,1.28,2.05,2.05,0,0,0,1.52,0l10.22-2.91"/><path class="cls-15" d="M656.12,239.58a5,5,0,0,0-.73,5.08c.78,1.87,5.56,3.76,4.75,6-.64,1.75-2.82,1.5-1.95,3.89,1.08,3,5.8,2.63,6.34,6.13.25,1.58,2.66.91,2.41-.67-.32-2.06-1.48-3.17-3.2-4.22-.93-.57-2.94-1-2.83-2.56,0-.34,1.79-1.61,2.08-2.17a3.59,3.59,0,0,0,.06-3.52c-1.29-2.17-8.08-2.18-4.77-6.66,1-1.3-1.21-2.55-2.16-1.27Z"/><path class="cls-15" d="M806.28,151.18l-26.8-13.69c-2.67-1.36-6.05-2.68-8.45-.9-.92.69-1.57,1.77-2.65,2.17-1.42.52-2.93-.36-4.4-.72s-3.58.43-3.3,1.92c.18.92,1.17,1.38,2,1.86a8,8,0,0,1,3.51,4.51,7.72,7.72,0,0,0,.74,2.1,5.09,5.09,0,0,0,1.56,1.39A238.52,238.52,0,0,0,798.26,167a3.84,3.84,0,0,0,2.75.55,3.6,3.6,0,0,0,1.72-1.58,25.68,25.68,0,0,0,4.3-14.6"/><path class="cls-15" d="M458.08,120c5.39-3,11.81-.65,15.28,4.26,5,7.12.29,15.45-6.83,18.32-15.41,6.19-19.18-21.56-4.21-24,3.17-.52,1.83-5.34-1.33-4.82-21.47,3.54-14.67,42.52,7.48,33.47,9.86-4,14.43-13.88,10-23.73a16.37,16.37,0,0,0-22.91-7.78c-2.82,1.55-.3,5.87,2.53,4.31Z"/><path class="cls-15" d="M462.13,145.78q-.33,9.57-.35,19.12c0,3.22,5,3.23,5,0q0-9.56.35-19.12c.11-3.21-4.89-3.21-5,0Z"/><path class="cls-15" d="M472.6,155.26l-16.29-.12c-3.22,0-3.22,5,0,5l16.29.12c3.22,0,3.22-5,0-5Z"/></g></svg>